/* XPM */
static char *flashlight_icon[] = {
/* columns rows colors chars-per-pixel */
"24 24 2 1 ",
"  c #607D8B",
". c None",
/* pixels */
"........................",
"........................",
"........................",
"...............  .......",
"..............    ......",
"............. .    .....",
"............   .    ....",
"............    .    ...",
"............     .    ..",
"...........       .   ..",
"..........         . ...",
".........           ....",
"........    .      .....",
".......    .    ........",
"......         .........",
".....         ..........",
"....         ...........",
"....        ............",
"...        .............",
"...       ..............",
"....     ...............",
".....  .................",
"........................",
"........................"
};
