/* XPM */
static char *_c3b91d274fa4823e948406b2f162a43V8xwyIgui3uCA7Rc[] = {
/* columns rows colors chars-per-pixel */
"64 64 49 1 ",
"  c black",
". c #1B1B1B",
"X c gray11",
"o c #1D1D1D",
"O c #1E1E1E",
"+ c gray12",
"@ c #202020",
"# c #2C2C2C",
"$ c #353535",
"% c gray22",
"& c #3A0044",
"* c #380046",
"= c #3B0046",
"- c #3F004A",
"; c #450050",
": c #450055",
"> c #490055",
", c #470058",
"< c #4F005E",
"1 c #50005F",
"2 c #540063",
"3 c #540066",
"4 c #5C006B",
"5 c #5E0071",
"6 c #610070",
"7 c #64007A",
"8 c #68007C",
"9 c #6B007E",
"0 c gray33",
"q c #73008A",
"w c #73008C",
"e c #76008D",
"r c #7E0095",
"t c #7D0098",
"y c #800097",
"u c #81009A",
"i c #8B00A6",
"p c #8F00A9",
"a c #9000AC",
"s c #9900B6",
"d c #9A00BA",
"f c #9E00BB",
"g c #A600C5",
"h c #A800C9",
"j c #B400D3",
"k c #B500D7",
"l c #CA00F0",
"z c #F200FF",
"x c magenta",
/* pixels */
"7997888q77888q77q57q5799979$$q797999997999%%99999999999q$99999%%",
"aaaapppppppppaaappppptrrq99 .ppaaaaaayqeee @aaaaaaaaee62 dfffu  ",
"aaaea9aau9ru9yuu88pqq79942: Opauueaarewer; @ahfhfhhhhhu9 ffeue  ",
"ar9euuy78pta1yu1w79ut775<2; .pupaeyu9e9a6> @afhhahkfhpu9 aafu>  ",
"aep5t4r779ree91e5u<74<<;;:1 +pueeyrqe95:3> @ahfakhfaueq6 e699>  ",
"ae9aaa<999iuyyqq84<79845<:1 .paeaa7556q2>> @ahakzkahau69 ue42>  ",
"auudfaaauaiart6q;7<88894::: +ppaeq94eqw63> @afhahhaaf796 uq;>>  ",
"apuaffau81aayww9545<784<:<< .pae9eee9qq2>> @afhfpfffaq69 u3>3>  ",
"pr9upper8r54qqw2<9q:445<<;: Optee3eaaq49>2 @afkffeeppu63        ",
"peqwp979aa4:<;4:q484<45<:,; Opwe4q9ee42:2, @afhafeeeue3> ufffa  ",
"u9epew5raa44;;;5<75<4885>2; Oue955ee692,2> @afhhpeeeeq33 afufe  ",
"twr7wae<8;9;;;;22q&&;988;:; +te9554e>6,6>, @afhhfaeeu722 uaeu2  ",
"t9u9<ee91929<:4;4;=&=;56:2; +r9e552<52,23> @afhhauuqe6>> tpr6>  ",
"ur9995<;:17<4<<;;;;*=;;;,,: +ee55<,:>>2>3> @afaheuwr8q>2 eeq36  ",
"t9r<25<915;;<;<<<2;;;,:,,:: +e2e22::>>>>>> @uhfhhepe63>> 963>>  ",
"                            O              @uhfauuee2,2>        ",
"hdadaaaapdpaaa+.......++++..+..+.++@@@++@@@@ufhuh9u992>> 6kkkkkk",
"fauahfaqaa8py8 ..29y7yupp9q:;**O+@:6uuaeq66@uhfhuuku962> ekklhkk",
"fuyeaae9yu77yy .<9yyutpdppe245<:+X6ua9e9q82 uuafhuu9q4>3 aklzlff",
"auddyu777u7q88 +ryysaff9eu253:25++9a962q2>9 effhfue93>33 akkldjj",
"eufgd99rt9r:97 -dtdedp9:595:,269 +eea966>62 ehff66e9622> fkkfpff",
"aeydd9r88<2479 =ppddadu595;222,5 @6pee2>9>> 9aaa66696,>> hkkfkaa",
"e9eyau99u259:; :pffpkre95<22,55, @662,,2,32 9uaae6662>>> fkfhfaa",
"aey8y7ur85929: 4uapw9qe54q525:>5 @@         9uuh99666,2, fkfauhh",
"dyeduyyy885::: 5upewue5:55t59694 aahhaaure @uuauu966>3>> akkfkkk",
"ae8eff28uee5:2 6ue8day959ejfe626 ahhaue6qq @uhfau996333> akfkhff",
"u8eaffau9qe5:2 :eeqrfuueeyfeq769 auaae6a63 @ahfhpuq43>22 akkkfaa",
"ufuuafa29565:, =99qdzfeau9ue6e29 aau9eae66 @afahauq6336> ekkkfff",
"eeaauaa25:2,:: =79eufapuaaeu9>9> aaaua66e6 @aauaeye9>>>2 ekfkkaa",
"ueaaau952:2==,  9etpeaeaf6f6>26> akfae6233 @auaeq799>>>> ekkhfff",
"eueaa922:,,-=2  299u9uauaf6>39;> aufpq6662 @auhaue66>6>> ekkfuaa",
"ee9ee9226992:2 +:29999ua69u6q;>> autpq336> @aafhae627q>> ekfkfuu",
"eiu67q6269q2>> +@=,,,,>>>>>>>>>- aua24962, @aaffaau9292> ekfkeee",
"auee932>2642,, @OO               aaeq232>> @ahhauuuue2>> ekkeuee",
"uue9999>2-;>2> @@3222326662223>@@aee6,,2>> @ahhau9uue86> 6kfkuuu",
"ee96999>--;>>> @@34quu9uee7q33> @aae92,3>> @auhuh96eq63> 6kfuuee",
"e249299,----2, @@3qrueu96e66r6> @aa9u62,>> @aaafuu66333> 6ffueee",
"ue2926>2->-->> @@3uq6uu6e6>6u66 @aaua962>, @ahauu6>>6>>> 6fueuee",
"ere496>>>---,> @@3u9u9qu6e2>66> @aupueq633 @ahuau62>>6>> 6futree",
"uqw24q6>>3>>33 @@2eut943>3>>3>> @ape99622> @ufuu99633>>> 6uuuquu",
"               @@3ue92>>3>>666> @uu9q24>2, @tau9;q>>2>>> @      ",
"@@@@@>>66eee962>>@              @ua9366>,2 @e9>2;663>>>> @6666@@",
"@uafhhhhhhhhhhhhfffipuuq@@@@@@@@@uu962>>>> @r932>>>>3>6> @6>9>@@",
"@ahhhhhfafhaaahapffqeqq2 @>>336@@u9e6>>>>> @@            @>>>6@@",
"@ahffaffhhhuahhhfaef3q;2 @>uef9 @e7e262,23 @@@@@@@@@@@@@@@@@@@@@",
"@hhhffhhuuahhufeauu9e3:2 @>afu> @9q262>>>, @@hhhhhhhhhhhhhfffa@@",
"@hafafffuuuhaeea9uuu96>> @2ffae @@         @@hhhhffaafffaafhae  ",
"@hhfueffauuahhaaa9uu9>,2 @3ae6, @euafaaauee@@hffhfakkafauhhuue  ",
"@hhuahfeafff9aazau263,3, @6u6,> @uafaufuf66 @hhffahhk99ue9u6e9  ",
"@hhhhaehef99aeppu9uuq232 @6e2>2 @affae9e6>3 @hfhfaffa999ua9996  ",
"@hahuaahfu99qaa69u992>q> @@     @uaee96>3>> @hhfllauau99aeeu2>  ",
"@hfuuhlhaea97aaee9u442;; @@@@@@@@           @hfallkhfauf96uu3>  ",
"@hahalxluuaueqqqeeq--:3> @uuuaaaaaaauuuer66+@hfaukkau9u9eurq3>  ",
"@hfhfhlha9aa2329ee4--;>> @uaueaeuaaeuaq766> @haafueueae9epq63>  ",
"@hahfffeee943323666>-->> @uueeeaaafueee26>> @hhauuee9euuue63>>  ",
"@ahffa99uatrq333262>9>>> @aeaafuauaaaue96>2 @hfau99969euq3>36>  ",
"@hahfees9aau69>699>2>>>3 @aaeaue9euaaue9,23 @hfhfae6>:q6;;--3>  ",
"@hahpueq2eaau62>999>2>3> @ueauea9euuue962>> @hhaa99u>;26>>--->  ",
"@faeeea3e2euu66299q>>6>> @uae999e499qq62,>> @fuauhu9926>6>>-->  ",
"@fp62e2aq7u>3>>3>88>>23> @eua9692q49466>32> @fha9u669>3>>>233>  ",
"@aaee2e,2>263636>>>>>>>> @eue962662>6>>33,> @a9u9eu963>3,3>>>>  ",
"@atqeu666666333322333332 @e9666666322333626@@au9e9662233222233@@",
"%9999999999999q79998q799%%999998q89988q8999%%99999999999q7997q##",
"0000000000000000000000000000000000000000000000000000000000000000"
};;