/* XPM */
static char *_4abf103745547a8b16cc2fc69a7d701S61XRoKzzH8LmgDd[] = {
/* columns rows colors chars-per-pixel */
"64 64 40 1 ",
"  c black",
". c #1B1B1B",
"X c gray11",
"o c #1E1E1E",
"O c #3A0000",
"+ c #3E0000",
"@ c #202020",
"# c #2C2C2C",
"$ c #353535",
"% c gray22",
"& c #450000",
"* c #460000",
"= c #480000",
"- c #4A0000",
"; c #510000",
": c #540000",
"> c #5C0000",
", c #5D0000",
"< c #610000",
"1 c #680000",
"2 c #6D0000",
"3 c #750000",
"4 c #770000",
"5 c #780000",
"6 c #7F0000",
"7 c gray33",
"8 c #830000",
"9 c #840000",
"0 c #8F0000",
"q c #930000",
"w c #940000",
"e c #9C0000",
"r c #A90000",
"t c #AB0000",
"y c #B60000",
"u c #B70000",
"i c #CE0000",
"p c #F50000",
"a c #F70003",
"s c #F72021",
/* pixels */
"121112111111221211111121212$$1212212212241%%222222222222%21121%%",
"qqqwqqqqwq00qqqqwwwqq988421 Xqqqqqqqw85554 @wwqwqwww55<, erer8  ",
"qqq4q1qq9268189811q41211,:* .0q884qq85454- @wretrtrttt92 re594  ",
"q81588811w8q;88;5119912,;;* o08qq488252w<- @wrrtwtuerw92 wwe9-  ",
"q4q,8,81226452;4,9;1,:;**-: ow84489252,->* @wtrwyteq855< 5<22-  ",
"q51qqq-1110888441,;111,<;*; oqq4qw2<,<4,-* @qrwuaywtw9<2 84<,*  ",
"q88eeqqq9w0q68<4*1;1112,**- .qqq442<554,,- @qetwtrwwr22< 92---  ",
"qq8qerq81:qq8451,,<:12,;-;; .qq42455252;-- @wereweer01<2 9:*>-  ",
"q618ww4818,,444;;24*,,,;;** oq954,5wq2<2-: @wryer56ww9<;        ",
"q444q111qq,*;*<*4,1,;,<;*-* oq55,2154<:-,* @werqe55595,- 9reew  ",
"815q54<8qq,,***,:1<;,11,-;* o851<,55<1>->- @qettq45552,: wr8r5  ",
"84921q5:1*1-***;;4OO*212*-* o852,<,4-<*<*- @wrtteq5592:: 9q48:  ",
"8182:551:2:1;*,*,*OO+*,<-:- o825<<;:<:*::- @wrttw9925<-* 9q8,-  ",
"86211,:**:1;,;;****OO*-**-- o54,<;**--,->- @qewt595922-, 552:<  ",
"918;:<:1;<**;*;;;;****-**-* o5:4::*-----*- @8tetr5w5<:-- 2<,--  ",
"                            o              @8rew9956:*>-        ",
"reqeqwww0eqqqqo.......oooo.oooXX.oo@@@@@@@@@9et9t2922:-* <uuuuuu",
"rw9qreq5qq1q81 ..;18188qw12-*OOoX@-<99w52<<@9ter99u92<,- 5uuituu",
"e685qq52882189 .;28888qeww5;,,;-oo<8w25252: 99wrt9922<-: wyipirr",
"w9ee8911191211 o888eqer159:<;-:<oo2w2<,2;-4 5eerr952;-,; wuuiryy",
"59ere228918*12 +e8e5e02*,1<--:<2 o55w2<<-<, 5tre,,52<:,- ruuewee",
"w59ee1811;;<11 Owweeqe8,2<*:;;-< @<w55:-2-- 2www<<<2<--* tuueyww",
"5258q9128:<1-* -weewy841<;::-<<* @<<,*-:-,; 29ww5<<<,*-- eyerrww",
"q58181882,2:2* ,9ww4145<<2<;<--< @@         299r22<<<->* ryew9rr",
"e85e688811<--* <9q5284,*<<8,2<2< wwttww995 @99w982<<-:-- wyyeyyy",
"w525re;1954,-: <842eq62<25yr5<:< wtrw95<52 @9rew922<>:,- wyrytee",
"925weew9144<-; *5528e89548e412<2 w9ww5<w<: @wtetw95<;-:: wyuyeww",
"8e990rw:2<<<*- +225epr5w8284<4>2 ww945w5<< @wrwtw92<,;<* 5yuyerr",
"55wq8qw:<-:-*- +2159ewq8qq481-2- qqq8w<<5< @ww9q5952---> 5yeuyww",
"95www92<:*:O+*  258w5w4qe<r<-;<- qyrq5<::, @w9w52222---- 5uytree",
"595wq2::-*-*+:  :22929w8we<-,2-- w9ew4<<<; @w9tw95<<-<-- 5yye8ww",
"562552::<22;-; o-;21228w<29<1--- w99w2,:<- @wwrrw5<:22-* 8yrye88",
"8w9<221:<22:-* @@+----*-----*-** w9w,<2<,* @wwerwq82:2,* 5yey555",
"q9552::-:<<;-- o@@               ww52;::-- @wrtw98985:*- 6yy5955",
"8852222-,+*->* @@:::,;:<<<,;,:-@@w55<--,-- @wttw929952<* <yey999",
"542<222-++*-*- @@:<299286522::- @ww52;-:-- @w9t9r2<52<,- <yr9955",
"5,,2:22-++++>* @@;299592<5<<4<* @ww29<,--- @wwwe99<<,:,* <er9566",
"92;2,<-;+-++-- @@,95<9915<-<8<< @ww9w2<;*- @wrw99<--<--- <e95955",
"595<2<--*+++-- @@,929229<5;-<<- @w9w952<:, @wt9w9<:--<-- <e99955",
"952,<2<*->-*;, @@:5992<;-,-->-- @wq442<:;- @9r8922<:>**- <999299",
"               @@:952:--,*-<<<- @9922:<->- @9w92*2-*,--- @      ",
"@@@o@--<<55521:--@              @9w2:<<-*: @52-,-<<,---- @<<<<@@",
"@9wrttrrttttttttreeqw992@@@@@@@@@992<,-*-- @52::----;-<- @<-2-@@",
"@wrtttrrwetwwwtwqer1554, @--:,<@@925<----- @@            @-*-<@@",
"@wrreqeertt9wrtreq4r:2*: @-94r2 @524,,,*,; @@@@@@@@@@@@@@@@@@@@@",
"@trterrr99wtt9r5w8825,-: @*we8- @21,<;*--- @@rttrttttrtttteerq@@",
"@rwewrre999tw45w29992<-- @;req4 @@         @@ttrrerwwerewwrrw5  ",
"@tre95eew99wtrwww2992*-, @:w5<- @59wrwww856@@tertewyywew9tr995  ",
"@tt9wtr5qeer1wwpw9:<,*:- @<9<-- @9qew9r8e<< @tterwrty229529<52  ",
"@ttttw5t4r22q5ww92992:;> @15;-, @qerw514<*, @tereweew2229w222<  ",
"@twr9wwte8222ww<2922:-2- @@     @9w552<-:-- @trriiw9w921w569>-  ",
"@te99titq5w22ww5528,<,*- @@@@@@@@           @tewiiutew8r2<89;-  ",
"@twrwisi99w95245552++->- @999wwwwwww99955<<@@tew9uyw92925992:-  ",
"@tetetirw2ww:,:255<*++*- @9w95q49ww59w221<- @twwr9595w525w5<:-  ",
"@twrree5552<:,:,<<<-++-- @99555qwqr6655:<** @ttw9955459995<;--  ",
"@wtrew229w992::;:<,-2*-- @w5wwr8w8qqw952<-, @rrw9122,2592,-,<-  ",
"@twte45r2ww9<2-<22->*-*: @ww5w95259ww952*:: @retew5<--2<-*++:-  ",
"@twrw852:5ww9<>-222-,*>- @95w95w2598952<>-- @trww229--:<--+++-  ",
"@eq555q;5;598<<;222-*<-* @9w82225<2252<,--- @e9q9t922><*<--+*-  ",
"@rq<,5,w429-,--:-22--;,- @48q2<2,1<2<<<*;,- @rtw29<<2*,---,:;-  ",
"@wq45:5-,-:<;<,<-*--*--* @5952<:<<,-<-*::-- @w282482<:-:-:-*--  ",
"@w8258<<<<<<:::::,,;:,;, @52<<<<<<;::,;,<:<@@w9254<<:,>;;,;,::@@",
"%22222222222222222222222%%22222222222222222%%22222222222222222##",
"777777777777777777777777777777777777777777777777777777777777777%"
};
