/* XPM */
static char *result[] = {
/* columns rows colors chars-per-pixel */
"25 32 36 1 ",
"  c #2F2F2F",
". c gray20",
"X c #353535",
"o c #3A3A3A",
"O c #3C3C3C",
"+ c #3F3F3F",
"@ c gray27",
"# c #464646",
"$ c gray29",
"% c #4B4B4B",
"& c gray30",
"* c gray32",
"= c #535353",
"- c gray33",
"; c gray34",
": c #585858",
"> c gray35",
", c #5B5B5B",
"< c gray36",
"1 c gray37",
"2 c #606060",
"3 c #646464",
"4 c #656565",
"5 c #686868",
"6 c #6A6A6A",
"7 c gray42",
"8 c #6C6C6C",
"9 c #6D6D6D",
"0 c gray44",
"q c #717171",
"w c #727272",
"e c #767676",
"r c #797979",
"t c #898989",
"y c #DDDDDD",
"u c None",
/* pixels */
"uuuuuuuuuuuuuuuuuuuuuuuuu",
"uuuuuuuuu2#yyyyyyy,uuuuuu",
"uuuuuuuyyyyyyyyyyyyy uuuu",
"uuuuu&yyyyyyyyyyyyyyyyuuu",
"uuuu+yyyyyyyyyyyyyyyyyyuu",
"uuuuyyyyyyyyyyyyyyyyyyy+u",
"uuuyyyyyyy uuuuu8yyyyyyyu",
"uuuyyyyyy:uuuuuuuryyyyyyu",
"uuuyyyyyyuuuuuuuuuyyyyyyu",
"uu4yyyyyyuuuuuuuuuyyyyyyu",
"uu0yyyyyyuuuuuuuu2yyyyyyu",
"uuuyyyyyy$uuuuuuuyyyyyyuu",
"uuuyyyyyyy$uuuu>yyyyyyXuu",
"uuu-yyyyyyyyuuyyyyyyy<uuu",
"uuuuyyyyyyyyyyyyyyyy%uuuu",
"uuuuuyyyyyyyyyyyyyyuuuuuu",
"uuuuuuyyyyyyyyyyyyyuuuuuu",
"uuuuuyyyyyyyyyyyyyyy=uuuu",
"uuuqyyyyyyyyyyyyyyyyyOuuu",
"uu1yyyyyyouuryyyyyyyyy9uu",
"uuyyyyyyuuuuuu6yyyyyyyyuu",
"uyyyyyywuuuuuuuuyyyyyyyuu",
"uyyyyyyuuuuuuuuuuyyyyyy5u",
"eyyyyy*uuuuuuuuuuyyyyyy3u",
"6yyyyyyuuuuuuuuuuyyyyyyuu",
"uyyyyyyuuuuuuuuuoyyyyyyuu",
"uyyyyyyy@uuuuu7yyyyyyytuu",
"uyyyyyyyyyyyyyyyyyyyyyuuu",
"uuyyyyyyyyyyyyyyyyyyyuuuu",
"uuuyyyyyyyyyyyyyyyyyuuuuu",
"uuuu;yyyyyyyyyyyyy9uuuuuu",
"uuuuuuu1.yyyyyO9uuuuuuuuu"
};
