/* XPM */
static char *result[] = {
/* columns rows colors chars-per-pixel */
"25 32 36 1 ",
"  c gray18",
". c #2F2F2F",
"X c #343434",
"o c #353535",
"O c gray21",
"+ c #373737",
"@ c #3A3A3A",
"# c gray23",
"$ c #3E3E3E",
"% c gray25",
"& c #444444",
"* c gray29",
"= c #4B4B4B",
"- c #4C4C4C",
"; c gray30",
": c gray31",
"> c #515151",
", c #535353",
"< c gray34",
"1 c #585858",
"2 c gray36",
"3 c #5D5D5D",
"4 c #606060",
"5 c #626262",
"6 c #686868",
"7 c gray42",
"8 c #6C6C6C",
"9 c #6F6F6F",
"0 c gray44",
"q c gray46",
"w c gray47",
"e c #7E7E7E",
"r c #808080",
"t c #959595",
"y c #DDDDDD",
"u c None",
/* pixels */
"uuuuuuuuuuu:yyyy#uuuuuuuu",
"uuuuuuuu0yyyyyyyyyy>uuuuu",
"uuuuuuuyyyyyyyyyyyyyyuuuu",
"uuuuuuyyyyyyyyyyyyyyyyuuu",
"uuuuuyyyyyyyyyyyyyyyyy.uu",
"uuuuXyyyyyyyyyyyyyyyyyyuu",
"uuuuyyyyyyy7uuuuyyyyyyyru",
"uuuyyyyyyyuuuuuuuyyyyyyyu",
"uuuyyyyyyquuuuuuu4yyyyyyu",
"uu,yyyyyyuuuuuuuuuyyyyyy,",
"uuyyyyyy0uuuuuuuuuyyyyyyt",
"uuyyyyyyuuuuuuuuuu+yyyyyy",
"u<yyyyyyuuuuuuuuuu>yyyyyy",
"uyyyyyy@uuuuuuuuuu2yyyyyy",
"uyyyyyy3uuuuuuuuuu1yyyyyy",
"uyyyyyyuuuuuuuuuuu;yyyyyy",
"uyyyyyyuuuuuuuuuuu%yyyyyy",
"uyyyyyyuuuuuuuuuuuyyyyyy%",
"uyyyyyyuuuuuuuuuuuyyyyyy5",
"uyyyyyyuuuuuuuuuuuyyyyyyu",
"uyyyyyywuuuuuuuuuuyyyyyyu",
"uyyyyyy>uuuuuuuuuoyyyyyyu",
"uyyyyyyyuuuuuuuuuyyyyyy9u",
"u&yyyyyyuuuuuuuu@yyyyyyuu",
"uuyyyyyyyuuuuuuqyyyyyy*uu",
"uuyyyyyyyyuuuu-yyyyyyyuuu",
"uu=yyyyyyyyyyyyyyyyyy9uuu",
"uuuyyyyyyyyyyyyyyyyyOuuuu",
"uuuuyyyyyyyyyyyyyyy6uuuuu",
"uuuuuyyyyyyyyyyyyy$uuuuuu",
"uuuuuu yyyyyyyyyyuuuuuuuu",
"uuuuuuuu8.yyye2uuuuuuuuuu"
};
