/* XPM */
static char *result[] = {
/* columns rows colors chars-per-pixel */
"15 32 26 1 ",
"  c #2F2F2F",
". c gray20",
"X c #3A3A3A",
"o c #3C3C3C",
"O c #3F3F3F",
"+ c #414141",
"@ c #444444",
"# c #484848",
"$ c #4C4C4C",
"% c gray32",
"& c gray33",
"* c gray34",
"= c #5A5A5A",
"- c #5B5B5B",
"; c #5F5F5F",
": c gray38",
"> c #686868",
", c #6D6D6D",
"< c gray43",
"1 c #6F6F6F",
"2 c #747474",
"3 c gray46",
"4 c #797979",
"5 c gray50",
"6 c #DDDDDD",
"7 c None",
/* pixels */
"777777777777777",
"7777777o6666667",
"777-66666666667",
"7@666666666666:",
"&66666666666663",
"666666666666667",
"666666666666667",
"46666*766666667",
"777777766666667",
"7777777666666+7",
"7777771666666>7",
"777777#66666677",
"777777666666677",
"777777666666677",
"777777666666677",
"777777666666677",
"777777666666X77",
"77777,666666=77",
"77777$666666777",
"777772666666777",
"777776666666777",
"777776666666777",
"777776666666777",
"777776666666777",
"77777666666O777",
"7777<666666;777",
"7777%6666667777",
"7777.6666667777",
"777766666667777",
"7777 6666667777",
"777776666617777",
"777777566777777"
};
