/* XPM */
static char *result[] = {
/* columns rows colors chars-per-pixel */
"25 32 37 1 ",
"  c gray21",
". c #393939",
"X c #3A3A3A",
"o c gray23",
"O c #3C3C3C",
"+ c gray25",
"@ c #414141",
"# c #434343",
"$ c gray27",
"% c #4B4B4B",
"& c gray30",
"* c #4E4E4E",
"= c gray31",
"- c gray32",
"; c #555555",
": c #585858",
"> c gray35",
", c #5A5A5A",
"< c gray36",
"1 c #5D5D5D",
"2 c #5F5F5F",
"3 c gray38",
"4 c gray39",
"5 c #646464",
"6 c #656565",
"7 c gray40",
"8 c #686868",
"9 c gray42",
"0 c gray45",
"q c #747474",
"w c #767676",
"e c #7B7B7B",
"r c #7E7E7E",
"t c gray54",
"y c #9F9F9F",
"u c #DDDDDD",
"i c None",
/* pixels */
"iiiiiiiiiiiiiiiiiiiiiiiii",
"iiiiiiiiiouuuuuuu7iiiiiii",
"iiiiiiquuuuuuuuuuuu=iiiii",
"iiiii1uuuuuuuuuuuuuuuiiii",
"iiiiuuuuuuuuuuuuuuuuuuiii",
"iiiXuuuuuuuuuuuuuuuuuu-ii",
"iiiuuuuuuu*iiii:uuuuuuuii",
"iiXuuuuuuqiiiiii5uuuuuu>i",
"iiuuuuuuriiiiiiiiuuuuuuui",
"iiuuuuuueiiiiiiiiuuuuuuui",
"iiuuuuuuiiiiiiiiiuuuuuuui",
"iiuuuuuuiiiiiiiiiuuuuuuu0",
"iiuuuuuu*iiiiiiiiuuuuuuu4",
"iiuuuuuuuiiiiiiiuuuuuuuu;",
"iiuuuuuuuu&iii@uuuuuuuuu>",
"iiiuuuuuuuuuuuuuuuuuuuuu7",
"iiiOuuuuuuuuuuuuuuuuuuuuw",
"iiii1uuuuuuuuuuuu3uuuuuui",
"iiiii9uuuuuuuuu<iiuuuuuui",
"iiiiiiieXuuut<iii,uuuuuui",
"iiiiiiiiiiiiiiiiiuuuuuu i",
"iiiiiiiiiiiiiiiiiuuuuuuii",
"iuuuuiiiiiiiiiii2uuuuuuii",
"uuuuuuiiiiiiiiiiuuuuuu*ii",
"uuuuuuiiiiiiiii<uuuuuuiii",
"uuuuuuuiiiiiii.uuuuuu6iii",
"$uuuuuuu1iii%uuuuuuuyiiii",
"iuuuuuuuuuuuuuuuuuuuiiiii",
"i;uuuuuuuuuuuuuuuuuiiiiii",
"ii%uuuuuuuuuuuuuu+iiiiiii",
"iiiiuuuuuuuuuuu8iiiiiiiii",
"iiiiii<$uuuu#iiiiiiiiiiii"
};
