/* XPM */
static char *d0acd673840d40b89c528db04b5f70e7crE32clagdJnVUa4[] = {
/* columns rows colors chars-per-pixel */
"25 32 40 1 ",
"  c None",
". c #2F2F2F",
"X c gray19",
"o c #313131",
"O c #323232",
"+ c gray20",
"@ c #373737",
"# c #393939",
"$ c #3A3A3A",
"% c gray24",
"& c #414141",
"* c gray27",
"= c #464646",
"- c gray28",
"; c gray29",
": c gray30",
"> c gray31",
", c #505050",
"< c gray32",
"1 c gray34",
"2 c #5A5A5A",
"3 c #5B5B5B",
"4 c gray36",
"5 c #5D5D5D",
"6 c #5F5F5F",
"7 c gray38",
"8 c gray39",
"9 c #676767",
"0 c DimGray",
"q c gray42",
"w c #6D6D6D",
"e c gray43",
"r c gray44",
"t c #727272",
"y c #747474",
"u c #767676",
"i c gray47",
"p c #7E7E7E",
"a c #959595",
"s c #DDDDDD",
/* pixels */
"                         ",
"         6ssssssss*      ",
"       ssssssssssssss    ",
"     .ssssssssssssssss;  ",
"    sssssssssssssssssssu ",
"   *ssssssssssssssssssss ",
"   ssssssst     psssssss ",
"  ossssss        ssssssse",
"  ssssss         *ssssss2",
"  ssssss         :sssssse",
"  *ssss6         sssssss ",
"   #ss*          sssssss ",
"                sssssss  ",
"              tsssssssi  ",
"           t@ssssssss    ",
"         assssssssso     ",
"         sssssssss       ",
"         sssssssssss     ",
"         ssssssssssss&   ",
"          e<&sssssssss&  ",
"               2sssssss  ",
"  0*u           1ssssss# ",
" ssss1           sssssss ",
" sssss           sssssss ",
"<sssssi          sssssss ",
":ssssss         ssssssso ",
" sssssss7     %ssssssss  ",
" sssssssssssssssssssss0  ",
"  ssssssssssssssssssss   ",
"   sssssssssssssssss#    ",
"    ;sssssssssssss@      ",
"       8#ssssso6         "
};
