/* XPM */
static char *_de678f3e46a405985f2fc11a5429ad8wPM5mFk70dv00xK1[] = {
/* columns rows colors chars-per-pixel */
"25 32 36 1 ",
"  c None",
". c gray18",
"X c #323232",
"o c #373737",
"O c gray22",
"+ c #393939",
"@ c #3A3A3A",
"# c #3C3C3C",
"$ c #3E3E3E",
"% c #3F3F3F",
"& c gray26",
"* c gray29",
"= c #4B4B4B",
"- c #515151",
"; c #565656",
": c #585858",
"> c gray35",
", c gray37",
"< c #5F5F5F",
"1 c #626262",
"2 c #646464",
"3 c #656565",
"4 c gray40",
"5 c #686868",
"6 c #6A6A6A",
"7 c #6C6C6C",
"8 c #6D6D6D",
"9 c gray43",
"0 c gray44",
"q c #727272",
"w c gray45",
"e c #747474",
"r c gray46",
"t c gray48",
"y c #7E7E7E",
"u c #DDDDDD",
/* pixels */
"                         ",
"      <%wuuuuuuuuuuuuuot ",
"   >uuuuuuuuuuuuuuuuuuuu*",
"   uuuuuuuuuuuuuuuuuuuuuu",
"  ouuuuuuuuuuuuuuuuuuuuu.",
"  @uuuuuuuuuuuuuuuuuuuuuw",
"   %uuuuuuuuuuuuuuuuuu6w ",
"    ruuuuuu              ",
"    @uuuuu*              ",
"    uuuuuu               ",
"    uuuuuu               ",
"    uuuuuu               ",
"   -uuuuu%               ",
"   uuuuuuuuuuu%6         ",
"   uuuuuuuuuuuuuuur      ",
"   uuuuuuuuuuuuuuuuu     ",
"   uuuuuuuuuuuuuuuuuu    ",
"    *uuuuuuuuuuuuuuuuu   ",
"            4uuuuuuuuu<  ",
"               uuuuuuuu  ",
"                uuuuuuu  ",
"  7yX            uuuuuu7 ",
" -uuuu           uuuuuu1 ",
" uuuuu4          uuuuuut ",
" uuuuuu         4uuuuuu  ",
" uuuuuu;        uuuuuuu  ",
" uuuuuuu@      uuuuuuu7  ",
" >uuuuuuuuuuuuuuuuuuuu   ",
"  uuuuuuuuuuuuuuuuuuu    ",
"   -uuuuuuuuuuuuuuuy     ",
"     uuuuuuuuuuuuu       ",
"       w&uuuuu@7         "
};
