/* XPM */
static char *_7b0771b63e34f46d5911ac7e3bb249ezgIDtMi106T3sOrz[] = {
/* columns rows colors chars-per-pixel */
"26 32 34 1 ",
"  c None",
". c gray18",
"X c #2F2F2F",
"o c gray19",
"O c #313131",
"+ c #353535",
"@ c #373737",
"# c #393939",
"$ c #3A3A3A",
"% c #414141",
"& c #434343",
"* c #444444",
"= c gray27",
"- c #494949",
"; c #4E4E4E",
": c gray31",
"> c gray32",
", c #535353",
"< c gray33",
"1 c #5A5A5A",
"2 c #5D5D5D",
"3 c gray37",
"4 c gray38",
"5 c #646464",
"6 c #656565",
"7 c #676767",
"8 c DimGray",
"9 c #6D6D6D",
"0 c gray43",
"q c #6F6F6F",
"w c gray45",
"e c gray47",
"r c gray58",
"t c #DDDDDD",
/* pixels */
"                          ",
"          *ttttttt-       ",
"       5ttttttttttttt     ",
"      tttttttttttttttt    ",
"     tttttttttttttttttt   ",
"    tttttttttttttttttttt  ",
"   1ttttttt     &ttttttt  ",
"   ttttttX       $tttttt> ",
"   tttttt         tttttt8 ",
"  wttttt*         ttttttt ",
"  5ttttt:         ttttttt ",
"   tttttq         tttttt& ",
"   ttttt         *tttttt  ",
"    *t$          ttttttt  ",
"                <tttttt-  ",
"                ttttttt   ",
"               tttttttq   ",
"              <ttttttX    ",
"             @ttttttt     ",
"            $ttttttt      ",
"           tttttttt       ",
"         qttttttt*        ",
"        rttttttt1         ",
"      :tttttttt           ",
"    <tttttttt5            ",
"  4ttttttttO              ",
" $tttttttttttttttttttttt@ ",
" tttttttttttttttttttttttt ",
" tttttttttttttttttttttttt3",
" tttttttttttttttttttttttt ",
" tttttttttttttttttttttttt ",
" 3tt$5         e3*OttttO  "
};
