/* XPM */
static char *a1e86d11baf04c58fad2dc763bdc7164nRurgqGLzGYBzVLR[] = {
/* columns rows colors chars-per-pixel */
"27 32 33 1 ",
"  c None",
". c #313131",
"X c #353535",
"o c #393939",
"O c #3A3A3A",
"+ c gray23",
"@ c #3C3C3C",
"# c #3F3F3F",
"$ c gray25",
"% c #434343",
"& c #464646",
"* c #494949",
"= c #4E4E4E",
"- c #505050",
"; c gray32",
": c #565656",
"> c #585858",
", c #5A5A5A",
"< c #5B5B5B",
"1 c #5D5D5D",
"2 c gray39",
"3 c #656565",
"4 c gray40",
"5 c gray45",
"6 c gray46",
"7 c #767676",
"8 c #7B7B7B",
"9 c #7E7E7E",
"0 c gray50",
"q c gray54",
"w c #8B8B8B",
"e c #959595",
"r c #DDDDDD",
/* pixels */
"                           ",
"         >rrrr&            ",
"        4rrrrrr            ",
"        rrrrrrr            ",
"       Xrrrrrr8            ",
"       rrrrrrr             ",
"      .rrrrrr              ",
"      rrrrrrr      2rrX    ",
"     +rrrrrr      *rrrr+   ",
"     rrrrrrr      rrrrrr   ",
"    +rrrrrr      @rrrrrr   ",
"    rrrrrrr      rrrrrr-   ",
"   =rrrrrr       rrrrrr    ",
"   rrrrrrr       rrrrrr    ",
"  6rrrrrr6      >rrrrrr    ",
"  rrrrrrr       ;rrrrrr    ",
"  rrrrrr>       rrrrrr@    ",
" $rrrrrr        rrrrrr4    ",
" rrrrrr6        rrrrrr     ",
" rrrrrr         rrrrrr     ",
"$rrrrrrrrrrrrrrrrrrrrrrrr$ ",
"rrrrrrrrrrrrrrrrrrrrrrrrrr$",
"rrrrrrrrrrrrrrrrrrrrrrrrrrr",
">rrrrrrrrrrrrrrrrrrrrrrrrr.",
" rrrrrrrrrrrrrrrrrrrrrrrrr ",
"  $weeq9999555rrrrrrrrqX1  ",
"               rrrrrr      ",
"               rrrrrr      ",
"               rrrrrr      ",
"               rrrrrr      ",
"               rrrrr.      ",
"               5rrrr       "
};
