/* XPM */
static char *result[] = {
/* columns rows colors chars-per-pixel */
"26 32 31 1 ",
"  c gray18",
". c #313131",
"X c #343434",
"o c #373737",
"O c gray22",
"+ c #3A3A3A",
"@ c gray23",
"# c #3E3E3E",
"$ c #3F3F3F",
"% c #434343",
"& c #444444",
"* c gray28",
"= c #515151",
"- c gray32",
"; c gray33",
": c #555555",
"> c gray36",
", c #5D5D5D",
"< c gray39",
"1 c #646464",
"2 c gray40",
"3 c #6C6C6C",
"4 c #6F6F6F",
"5 c #717171",
"6 c gray45",
"7 c #767676",
"8 c #777777",
"9 c #797979",
"0 c #808080",
"q c #DDDDDD",
"w c None",
/* pixels */
"wwwwwwwwwwwwwwwwwwwwwwwwww",
"wwwwwwwwwww*qqqqqqq+wwwwww",
"wwwwwwwwwqqqqqqqqqqqqqwwww",
"wwwwwww+qqqqqqqqqqqqqqqwww",
"wwwwwwqqqqqqqqqqqqqqqqqqww",
"wwwwwqqqqqqqqqqqqqqqqqqqXw",
"wwww#qqqqqqq9wwww;qqqqqqqw",
"wwwwqqqqqqOwwwwwww2qqqqqqw",
"wwwqqqqqqqwwwwwwwwwqqqqqqw",
"wwwqqqqqqwwwwwwwwwwwqqqqqw",
"wwqqqqqq wwwwwwwwwww<qq-ww",
"wwqqqqqqwwwwwwwwwwwwwwwwww",
"wwqqqqqqwwwwwwwwwwwwwwwwww",
"w$qqqqqqww6qqqqqqq>wwwwwww",
"wqqqqqq#wqqqqqqqqqqqwwwwww",
"wqqqqqqqqqqqqqqqqqqqq2wwww",
"wqqqqqqqqqqqqqqqqqqqqqwwww",
"wqqqqqqqqqqqqqqqqqqqqqqwww",
"wqqqqqqqqq4wwww%qqqqqqqwww",
"wqqqqqqqqwwwwwww&qqqqqq:ww",
"wqqqqqqq,wwwwwwwwqqqqqq.ww",
"wqqqqqqqwwwwwwwwwqqqqqq0ww",
"wqqqqqqqwwwwwwwwwqqqqqqoww",
"w qqqqqqwwwwwwwwwqqqqqq,ww",
"w3qqqqqq7wwwwwww=qqqqqqwww",
"wwqqqqqqqwwwwwwwqqqqqqqwww",
"ww+qqqqqqq5www@qqqqqqq4www",
"wwwqqqqqqqqqqqqqqqqqqqwwww",
"wwwwqqqqqqqqqqqqqqqqqwwwww",
"wwwwwqqqqqqqqqqqqqq6wwwwww",
"wwwwwwXqqqqqqqqqqqwwwwwwww",
"wwwwwwww8oqqqqX1wwwwwwwwww"
};
