/* XPM */
static char *result[] = {
/* columns rows colors chars-per-pixel */
"26 32 28 1 ",
"  c #313131",
". c #343434",
"X c #373737",
"o c #3A3A3A",
"O c #3C3C3C",
"+ c #414141",
"@ c #444444",
"# c gray28",
"$ c gray31",
"% c #505050",
"& c #535353",
"* c gray33",
"= c #565656",
"- c #585858",
"; c #5A5A5A",
": c #5F5F5F",
"> c gray39",
", c #6A6A6A",
"< c gray43",
"1 c gray44",
"2 c #727272",
"3 c gray45",
"4 c gray46",
"5 c #767676",
"6 c #777777",
"7 c gray58",
"8 c #DDDDDD",
"9 c None",
/* pixels */
"99999999999999999999999999",
"99888888o=2999999995$888<9",
"98888888888888888888888889",
"%8888888888888888888888889",
" 8888888888888888888888889",
":8888888888888888888888889",
"9O888888888888888888888899",
"99999999999999988888888999",
"999999999999998888888$9999",
"99999999999998888888999999",
"99999999999988888889999999",
"99999999999888888899999999",
"99999999998888888999999999",
"99999999978888889999999999",
"999999991888888&9999999999",
"99999999888888899999999999",
"9999999+888888699999999999",
"99999998888888999999999999",
"999999#888888-999999999999",
"99999988888889999999999999",
"99999988888889999999999999",
"99999X888888;9999999999999",
"99999888888899999999999999",
"99999888888899999999999999",
"99999888888899999999999999",
"9999,888888.99999999999999",
"9999-888888*99999999999999",
"9999*888888399999999999999",
"9999>888888999999999999999",
"99999888888999999999999999",
"9999988888=999999999999999",
"999999@8849999999999999999"
};
