/* XPM */
static char *frame3[] = {
/* columns rows colors chars-per-pixel */
"31 14 24 1 ",
"  c gray29",
". c #5D5D5D",
"X c gray40",
"o c #808080",
"O c gray60",
"+ c #A4A4A4",
"@ c #AAAAAA",
"# c #AFAFAF",
"$ c #BCBCBC",
"% c #CBCBCB",
"& c gray81",
"* c #D0D0D0",
"= c #D2D2D2",
"- c gray85",
"; c #DDDDDD",
": c gray90",
"> c #E6E6E6",
", c #F1F1F1",
"< c #F8F8F8",
"1 c #F9F9F9",
"2 c #FBFBFB",
"3 c gray99",
"4 c white",
"5 c black",
/* pixels */
"5555555555555555555555555555555",
"5555555555555555555555555555555",
"5555555555555555555555555555555",
"5<42345555555424245555555555555",
"5#,4245555555@-4245555555555555",
"5o>4215555555X*2345555555555555",
"55O=:455555555o&:45555555555555",
"5555555555555555555555555555555",
"5555555555555555555555555555555",
"5555555555555555555555555234425",
"5555555555555555555555555+=2345",
"5555555555555555555555555 $4245",
"55555555555555555555555555.%;25",
"5555555555555555555555555555555"
};
