/* XPM */
static char *frame0[] = {
/* columns rows colors chars-per-pixel */
"31 14 23 1 ",
"  c gray29",
". c #5D5D5D",
"X c gray40",
"o c #808080",
"O c gray60",
"+ c #A4A4A4",
"@ c #AAAAAA",
"# c #AFAFAF",
"$ c #BCBCBC",
"% c #CBCBCB",
"& c gray81",
"* c #D0D0D0",
"= c #D2D2D2",
"- c gray85",
"; c #DDDDDD",
": c gray90",
"> c #E6E6E6",
", c #F1F1F1",
"< c gray98",
"1 c #FBFBFB",
"2 c #FDFDFD",
"3 c white",
"4 c black",
/* pixels */
"4444444444444444444444444444444",
"4444444444444333334444444444444",
"4444444444444@-3334444444444444",
"4444444444444X*1234444444444444",
"44444444444444o&:34444444444444",
"4444444444444444444444444444444",
"444444444444444444444444412<314",
"4444444444444444444444444+=1214",
"4211214444444444444444444 $3114",
"4#,31344444444444444444444.%;14",
"4o>3114444444444444444444444444",
"44O=:34444444444444444444444444",
"4444444444444444444444444444444",
"4444444444444444444444444444444"
};
