/* XPM */
static char *frame9[] = {
/* columns rows colors chars-per-pixel */
"31 14 26 1 ",
"  c gray29",
". c #5D5D5D",
"X c gray40",
"o c #808080",
"O c gray60",
"+ c #A4A4A4",
"@ c #AAAAAA",
"# c #AFAFAF",
"$ c #BCBCBC",
"% c #CBCBCB",
"& c gray81",
"* c #D0D0D0",
"= c #D2D2D2",
"- c gray85",
"; c #DDDDDD",
": c gray90",
"> c #E6E6E6",
", c #F1F1F1",
"< c #F8F8F8",
"1 c #F9F9F9",
"2 c gray98",
"3 c #FBFBFB",
"4 c gray99",
"5 c #FDFDFD",
"6 c white",
"7 c black",
/* pixels */
"7777777777777777777777777777777",
"7777777777777777777777777777777",
"7777777777777777777777777352637",
"7777777777777777777777777+=3537",
"7777777777777777777777777 $6337",
"7<634677777777777777777777.%;37",
"7#,6367777777777777777777777777",
"7o>6317777777777777777777777777",
"77O=:67777777777777777777777777",
"7777777777777636637777777777777",
"7777777777777@-6367777777777777",
"7777777777777X*3467777777777777",
"77777777777777o&:67777777777777",
"7777777777777777777777777777777"
};
