/* XPM */
static char *frame10[] = {
/* columns rows colors chars-per-pixel */
"31 14 24 1 ",
"  c gray29",
". c #5D5D5D",
"X c gray40",
"o c #808080",
"O c gray60",
"+ c #A4A4A4",
"@ c #AAAAAA",
"# c #AFAFAF",
"$ c #BCBCBC",
"% c #CBCBCB",
"& c gray81",
"* c #D0D0D0",
"= c #D2D2D2",
"- c gray85",
"; c #DDDDDD",
": c gray90",
"> c #E6E6E6",
", c #F1F1F1",
"< c #F8F8F8",
"1 c gray98",
"2 c #FBFBFB",
"3 c #FDFDFD",
"4 c white",
"5 c black",
/* pixels */
"5555555555555555555555555555555",
"5555555555555555555555555555555",
"5555555555555555555555555231425",
"5555555555555555555555555+=2325",
"5555555555555555555555555 $4225",
"55555555555555555555555555.%;25",
"5555555555555555555555555555555",
"5<42245555555555555555555555555",
"5#,4245555555424425555555555555",
"5o>4225555555@-4225555555555555",
"55O=:45555555X*2325555555555555",
"55555555555555o&:45555555555555",
"5555555555555555555555555555555",
"5555555555555555555555555555555"
};
