/* XPM */
static char *frame13[] = {
/* columns rows colors chars-per-pixel */
"31 14 25 1 ",
"  c gray29",
". c #5D5D5D",
"X c gray40",
"o c #808080",
"O c gray60",
"+ c #A4A4A4",
"@ c #AAAAAA",
"# c #AFAFAF",
"$ c #BCBCBC",
"% c #CBCBCB",
"& c gray81",
"* c #D0D0D0",
"= c #D2D2D2",
"- c gray85",
"; c #DDDDDD",
": c gray90",
"> c #E6E6E6",
", c #F1F1F1",
"< c #F8F8F8",
"1 c #F9F9F9",
"2 c gray98",
"3 c #FBFBFB",
"4 c #FDFDFD",
"5 c white",
"6 c black",
/* pixels */
"6666666666666666666666666666666",
"6666666666666666666666666666666",
"6666666666666666666666666666666",
"6666666666666666666666666342536",
"6666666666666535356666666+=3436",
"6666666666666@-5356666666 $5356",
"6666666666666X*34366666666.%;36",
"66666666666666o&:56666666666666",
"6666666666666666666666666666666",
"6<55556666666666666666666666666",
"6#,5556666666666666666666666666",
"6o>5516666666666666666666666666",
"66O=:56666666666666666666666666",
"6666666666666666666666666666666"
};
