/* XPM */
static char *frame11[] = {
/* columns rows colors chars-per-pixel */
"31 14 23 1 ",
"  c gray29",
". c #5D5D5D",
"X c gray40",
"o c #808080",
"O c gray60",
"+ c #A4A4A4",
"@ c #AAAAAA",
"# c #BCBCBC",
"$ c #CBCBCB",
"% c gray81",
"& c #D0D0D0",
"* c #D2D2D2",
"= c gray85",
"- c #DDDDDD",
"; c gray90",
": c #E6E6E6",
"> c #F1F1F1",
", c #F8F8F8",
"< c gray98",
"1 c #FBFBFB",
"2 c #FDFDFD",
"3 c white",
"4 c black",
/* pixels */
"4444444444444444444444444444444",
"444444444444444444444444412<314",
"4444444444444444444444444+*1214",
"4444444444444444444444444 #3114",
"44444444444444444444444444.$-14",
"4444444444444444444444444444444",
"4444444444444444444444444444444",
"4444444444444313134444444444444",
"4,31134444444@=3134444444444444",
"4@>3134444444X&1214444444444444",
"4o:31144444444o%;34444444444444",
"44O*;34444444444444444444444444",
"4444444444444444444444444444444",
"4444444444444444444444444444444"
};
