/* XPM */
static char *frame2[] = {
/* columns rows colors chars-per-pixel */
"31 14 24 1 ",
"  c gray29",
". c #5D5D5D",
"X c gray40",
"o c #808080",
"O c gray60",
"+ c #A4A4A4",
"@ c #AAAAAA",
"# c #BCBCBC",
"$ c #CBCBCB",
"% c gray81",
"& c #D0D0D0",
"* c #D2D2D2",
"= c gray85",
"- c #DDDDDD",
"; c gray90",
": c #E6E6E6",
"> c #F1F1F1",
", c #F8F8F8",
"< c #F9F9F9",
"1 c #FBFBFB",
"2 c gray99",
"3 c #FDFDFD",
"4 c white",
"5 c black",
/* pixels */
"5555555555555555555555555555555",
"5555555555555555555555555555555",
"5555555555555444445555555555555",
"5555555555555@=4445555555555555",
"5,44445555555X&1345555555555555",
"5@>44455555555o%;45555555555555",
"5o:44<5555555555555555555555555",
"55O*;45555555555555555555555555",
"5555555555555555555555555555555",
"5555555555555555555555555124415",
"5555555555555555555555555+*1245",
"5555555555555555555555555 #4145",
"55555555555555555555555555.$-15",
"5555555555555555555555555555555"
};
