/* XPM */
static char *_1b3728df08847d5986994b82ba60617ym7SZhtJgRT8nWYM[] = {
/* columns rows colors chars-per-pixel */
"30 26 31 1 ",
"  c None",
". c black",
"X c #010101",
"o c gray6",
"O c #181818",
"+ c #191919",
"@ c gray24",
"# c gray27",
"$ c #535353",
"% c #555555",
"& c gray34",
"* c #585858",
"= c #646464",
"- c #686868",
"; c #767676",
": c gray50",
"> c gray59",
", c gray66",
"< c #AAAAAA",
"1 c gray69",
"2 c gray70",
"3 c gray72",
"4 c gray78",
"5 c #CBCBCB",
"6 c #CDCDCD",
"7 c #D8D8D8",
"8 c #DADADA",
"9 c #E7E7E7",
"0 c gray94",
"q c gray95",
"w c white",
/* pixels */
"         ........             ",
"         ........             ",
"    ....=00000000+...         ",
"    ....-wwwwwwww+...         ",
"  ..;,,,5wwwwwwww2,,,#.       ",
"  ..2wwwwwwwwwwwwwwww-..      ",
"  ..2wwwwwwwwwwwwwwww2:&      ",
"  ..2wwwwwwwwwwwwwwwwww,..    ",
"  $&6wwwwwwwwwwwwwwwwww4*@    ",
"..0wwwwwwwwwwwwwwwwwwwwww2..  ",
"..0wwwwwwwwwwwwwwwwwwwwww3oo  ",
".X0wwwwwwwwwwwwwwwwwwwwwwwwq..",
".Xqwwwwwwwwwwwwwwwwwwwwwwww0..",
".X0wwwwwwwwwwwwwwwwwwwwwwww0..",
"..qwwwwwwwwwwwwwwwwwwwwwwww0..",
"..0wwwwwwwwwwwwwwwwwwwwww3oo  ",
"..0wwwwwwwwwwwwwwwwwwwwww2..  ",
"  &*6wwwwwwwwwwwwwwwwww4&@    ",
"  ..2wwwwwwwwwwwwwwwwww,..    ",
"  ..2wwwwwwwwwwwwwwww2:&      ",
"  ..2wwwwwwwwwwwwwwww-..      ",
"  ..>7779wwwwwwww7777*..      ",
"    ....-wwwwwwww+...         ",
"    ....=00000000+...         ",
"         ........             ",
"         ........             "
};
