/* XPM */
static char *_cdbc705fceb4e5dcbf0486d57343210Pr0Sw9lDUVOsNNfa[] = {
/* columns rows colors chars-per-pixel */
"10 10 3 1 ",
"  c None",
". c #CB1212",
"X c #CC1212",
/* pixels */
"          ",
"          ",
"    ..X.  ",
"   ....   ",
"  ....    ",
"  ....    ",
"   ....   ",
"    ....  ",
"          ",
"          "
};
