/* XPM */
static char *leaderboard[] = {
/* columns rows colors chars-per-pixel */
"64 64 141 2 ",
"   c #412618",
".  c #422618",
"X  c #432619",
"o  c #422719",
"O  c #45271A",
"+  c #45281A",
"@  c #46291A",
"#  c #4B2B1C",
"$  c #482B1F",
"%  c #4A2C1C",
"&  c #4D2D1E",
"*  c #4F301E",
"=  c #4F3528",
"-  c #513020",
";  c #533021",
":  c #553223",
">  c #523420",
",  c #543421",
"<  c #573424",
"1  c #54392B",
"2  c #5E3828",
"3  c #5B3E30",
"4  c #5C3E30",
"5  c #603E26",
"6  c #633B2A",
"7  c #643B2B",
"8  c #653D2C",
"9  c #5F412F",
"0  c #614127",
"q  c #68462A",
"w  c #6F4C2D",
"e  c #6E4230",
"r  c #65453A",
"t  c #65473A",
"y  c #68493C",
"u  c #68493D",
"i  c #734F30",
"p  c #784835",
"a  c #7A4A37",
"s  c #7B4B37",
"d  c #6E503B",
"f  c #765130",
"g  c #765131",
"h  c #795432",
"j  c #7C5634",
"k  c #6A534A",
"l  c #6D564B",
"z  c #6D574B",
"x  c #6E574D",
"c  c #6F584D",
"v  c #705045",
"b  c #725246",
"n  c #755F56",
"m  c #844F3C",
"M  c #805936",
"N  c #87523E",
"B  c #845D38",
"V  c #935A44",
"C  c #9B5F49",
"Z  c #85664E",
"A  c #86674E",
"S  c #966C40",
"D  c #996E42",
"F  c #8D6E54",
"G  c #9D6855",
"H  c #9F6957",
"J  c #9F6A58",
"K  c #A4644D",
"L  c #A5664E",
"P  c #A6664F",
"I  c #A66553",
"U  c #A86654",
"Y  c #AC6952",
"T  c #A16B5A",
"R  c #B36F57",
"E  c #B46F56",
"W  c #B67158",
"Q  c #B6705A",
"!  c #BA735A",
"~  c #BE765D",
"^  c #826E62",
"/  c #896D61",
"(  c #AC7766",
")  c #AD7866",
"_  c #C2785F",
"`  c #C47A5F",
"'  c #C47960",
"]  c #C67A60",
"[  c #C77B61",
"{  c #B98951",
"}  c #BE8E53",
"|  c #BF8E54",
" . c #A68C75",
".. c #B88774",
"X. c #BA8876",
"o. c #B39374",
"O. c #BB9B7A",
"+. c #BE9D7C",
"@. c #C29155",
"#. c #CB9859",
"$. c #CE9A5B",
"%. c #CF9B5C",
"&. c #D5A05E",
"*. c #D6A15F",
"=. c #D08F77",
"-. c #DDA662",
";. c #DDA762",
":. c #D4AB7A",
">. c #D4AB7C",
",. c #D6AD7F",
"<. c #D8AE7D",
"1. c #E9B268",
"2. c #EBB369",
"3. c #ECB369",
"4. c #EFB76B",
"5. c #F2B86C",
"6. c #F7BD6F",
"7. c #F8BD6F",
"8. c #F9BF6F",
"9. c #FABF70",
"0. c #FCC171",
"q. c #9C8D85",
"w. c #9D8E87",
"e. c #9D8E88",
"r. c #BF9382",
"t. c #C39483",
"y. c #C4A481",
"u. c #CBAA86",
"i. c #D8B58D",
"p. c #DEB890",
"a. c #D7BCA3",
"s. c #D8BBA2",
"d. c #FDCD8E",
"f. c #E9C69F",
"g. c #F4D2A8",
"h. c #F7D3AA",
"j. c #F8D5AB",
"k. c #FAD7AD",
"l. c #FCD8AE",
"z. c #FEDBB0",
"x. c None",
/* pixels */
"x.x.x.x.x.x.x.x.x.x.x.x.x.x.x.x.x.x.x.x.x.x.x.x.x.x.x.x.x.x.x.x.x.x.x.x.x.x.x.x.x.x.x.x.x.x.x.x.x.x.x.x.x.x.x.x.x.x.x.x.x.x.x.x.",
"x.x.x.x.x.x.x.x.x.x.x.x.x.x.x.x.x.x.x.x.x.x.x.x.x.x.x.x.x.x.x.x.x.x.x.x.x.x.x.x.x.x.x.x.x.x.x.x.x.x.x.x.x.x.x.x.x.x.x.x.x.x.x.x.",
"x.x.x.x.x.x.x.x.x.x.x.x.x.x.x.x.x.x.x.x.x.x.x.x.x.x.x.x.x.x.x.x.x.x.x.x.x.x.x.x.x.x.x.x.x.x.x.x.x.x.x.x.x.x.x.x.x.x.x.x.x.x.x.x.",
"x.x.x.x.x.x.x.x.x.x.x.x.x.x.x.x.x.x.x.x.x.x.x.x.x.x.x.x.x.x.x.x.x.x.x.x.x.x.x.x.x.x.x.x.x.x.x.x.x.x.x.x.x.x.x.x.x.x.x.x.x.x.x.x.",
"x.x.x.x.x.x.x.x.x.x.x.x.x.x.x.x.x.x.x.x.x.x.x.x.x.x.x.x.x.x.x.x.x.x.x.x.x.x.x.x.x.x.x.x.x.x.x.x.x.x.x.x.x.x.x.x.x.x.x.x.x.x.x.x.",
"x.x.x.x.x.x.x.x.x.x.x.x.x.x.x.x.x.x.x.x.x.x.x.x.x.x.x.x.x.x.x.x.x.x.x.x.x.x.x.x.x.x.x.x.x.x.x.x.x.x.x.x.x.x.x.x.x.x.x.x.x.x.x.x.",
"x.x.x.x.x.x.x.x.x.x.x.x.x.x.x.x.x.x.x.x.x.x.x.x.x.x.x.x.x.x.x.x.x.x.x.x.x.x.x.x.x.x.x.x.x.x.x.x.x.x.x.x.x.x.x.x.x.x.x.x.x.x.x.x.",
"x.x.x.x.x.x.x.x.x.x.x.x.x.x.x.x.x.x.x.x.x.x.x.x.x.x.x.x.x.x.x.x.x.x.x.x.x.x.x.x.x.x.x.x.x.x.x.x.x.x.x.x.x.x.x.x.x.x.x.x.x.x.x.x.",
"x.x.x.x.x.x.x.x.x.x.x.x.x.x.x.x.x.x.x.x.x.$ . . . . . . . . . . . . . . . . . . . . $ x.x.x.x.x.x.x.x.x.x.x.x.x.x.x.x.x.x.x.x.x.",
"x.x.x.x.x.x.x.x.x.x.x.x.x.x.x.x.x.x.x.x.x.3 b b b b b b b b b b b b b b b b b b b b 3 x.x.x.x.x.x.x.x.x.x.x.x.x.x.x.x.x.x.x.x.x.",
"x.x.x.x.x.x.x.x.x.x.x.x.x.x.x.x.x.x.x.x.x.3 b b b b b b b b b b b b b b b b b b b b 3 x.x.x.x.x.x.x.x.x.x.x.x.x.x.x.x.x.x.x.x.x.",
"x.x.x.x.x.x.x.x.x.x.x.x.x.x.x.x.x.x.x.x.x.1 t v b b b b b b b b b b b b b b b b v t 1 x.x.x.x.x.x.x.x.x.x.x.x.x.x.x.x.x.x.x.x.x.",
"x.x.x.x.x.x.x.x.x.x.x.x.x.x.x.x.x.x.x.x.x.n =  .s.s.s.s.s.s.s.s.s.s.s.s.s.s.s.s. .= n x.x.x.x.x.x.x.x.x.x.x.x.x.x.x.x.x.x.x.x.x.",
"x.x.x.x.x.x.x.x.x.x.x.x.x.x.x.x.x.x.x.x.x.x.^ +.z.z.z.z.z.z.z.z.z.z.z.z.z.z.z.z.+.^ x.x.x.x.x.x.x.x.x.x.x.x.x.x.x.x.x.x.x.x.x.x.",
"x.x.x.x.x.x.x.x.x.x.x.x.x.x.x.x.x.x.x.x.x.x.^ +.z.z.z.z.z.z.z.z.z.z.z.z.z.z.z.z.+.^ x.x.x.x.x.x.x.x.x.x.x.x.x.x.x.x.x.x.x.x.x.x.",
"x.x.x.x.x.x.x.x.x.x.x.x.x.x.x.x.x.x.x.x.x.x.^ +.z.z.z.z.z.z.z.z.z.z.z.z.z.z.z.z.+.^ x.x.x.x.x.x.x.x.x.x.x.x.x.x.x.x.x.x.x.x.x.x.",
"x.x.x.x.x.x.x.x.x.x.x.x.x.x.x.x.x.x.x.x.x.x.^ +.z.z.z.z.z.z.z.z.z.z.z.z.z.z.z.z.+.^ x.x.x.x.x.x.x.x.x.x.x.x.x.x.x.x.x.x.x.x.x.x.",
"x.x.x.x.x.x.x.x.x.x.x.x.x.x.x.x.x.x.x.x.x.x.^ +.z.z.z.z.z.z.z.z.z.z.z.z.z.z.z.z.+.^ x.x.x.x.x.x.x.x.x.x.x.x.x.x.x.x.x.x.x.x.x.x.",
"x.x.x.  . . . . . . . . . . . . . . . . . . . u.z.z.z.z.z.z.z.z.z.z.z.z.z.z.z.z.+.^ x.x.x.x.x.x.x.x.x.x.x.x.x.x.x.x.x.x.x.x.x.x.",
"x.x.z r b b b b b b b b b b b b b b b b b b / z.z.z.z.z.z.z.z.z.z.z.z.z.z.z.z.z.+.^ x.x.x.x.x.x.x.x.x.x.x.x.x.x.x.x.x.x.x.x.x.x.",
"x.x.z r b b b b b b b b b b b b b b b b b b / z.z.z.z.z.z.z.z.z.z.z.z.z.z.z.z.z.+.^ x.x.x.x.x.x.x.x.x.x.x.x.x.x.x.x.x.x.x.x.x.x.",
"x.x.x 4 y b b b b b b b b b b b b b b b b b / z.z.z.z.z.z.z.z.z.z.z.z.z.z.z.z.z.+.^ x.x.x.x.x.x.x.x.x.x.x.x.x.x.x.x.x.x.x.x.x.x.",
"x.x.x.l o :.<.<.<.<.<.<.<.<.<.<.<.<.<.<.<.<.p.z.z.z.z.z.z.z.z.z.z.z.z.z.z.z.z.z.+.^ x.x.x.x.x.x.x.x.x.x.x.x.x.x.x.x.x.x.x.x.x.x.",
"x.x.x.x.@ 7.0.0.0.0.0.0.0.0.0.0.0.0.0.0.0.0.d.z.z.z.z.z.z.z.z.z.z.z.z.z.z.z.z.z.+.^ x.x.x.x.x.x.x.x.x.x.x.x.x.x.x.x.x.x.x.x.x.x.",
"x.x.x.x.@ 7.0.0.0.0.0.0.0.0.0.0.0.0.0.0.0.0.d.z.z.z.z.z.z.z.z.z.z.z.z.z.z.z.z.z.+.^ x.x.x.x.x.x.x.x.x.x.x.x.x.x.x.x.x.x.x.x.x.x.",
"x.x.x.x.@ 7.0.0.0.0.0.0.0.0.0.0.0.0.0.0.0.0.d.z.z.z.z.z.z.z.z.z.z.z.z.z.z.z.z.z.+.^ x.x.x.x.x.x.x.x.x.x.x.x.x.x.x.x.x.x.x.x.x.x.",
"x.x.x.x.@ 7.0.0.0.0.0.0.0.0.0.0.0.0.0.0.0.0.d.z.z.z.z.z.z.z.z.z.z.z.z.z.z.z.z.z.+.^ x.x.x.x.x.x.x.x.x.x.x.x.x.x.x.x.x.x.x.x.x.x.",
"x.x.x.x.@ 7.0.0.0.0.0.0.0.0.0.0.0.0.0.0.0.0.d.z.z.z.z.z.z.z.z.z.z.z.z.z.z.z.z.z.+.^ x.x.x.x.x.x.x.x.x.x.x.x.x.x.x.x.x.x.x.x.x.x.",
"x.x.x.x.@ 7.0.0.0.0.0.0.0.0.0.0.0.0.0.0.0.0.d.z.z.z.z.z.z.z.z.z.z.z.z.z.z.z.z.z.u.. . . . . . . . . . . . . . . . . . .   w.x.x.",
"x.x.x.x.@ 7.0.0.0.0.0.0.0.0.0.0.0.0.0.0.0.0.d.z.z.z.z.z.z.z.z.z.z.z.z.z.z.z.z.z.z./ b b b b b b b b b b b b b b b b b b r z x.x.",
"x.x.x.x.@ 7.0.0.0.0.0.0.0.0.0.0.0.0.0.0.0.0.d.z.z.z.z.z.z.z.z.z.z.z.z.z.z.z.z.z.z./ b b b b b b b b b b b b b b b b b b r z x.x.",
"x.x.x.x.@ 7.0.0.0.0.0.0.0.0.0.0.0.0.0.0.0.0.d.z.z.z.z.z.z.z.z.z.z.z.z.z.z.z.z.z.z./ b b b b b b b b b b b b b b b b b y 4 c x.x.",
"x.x.x.x.@ 7.0.0.0.0.0.0.0.0.0.0.0.0.0.0.0.0.d.z.z.z.z.z.z.z.z.z.z.z.z.z.z.z.z.z.z.t.........................( H H H G o l x.x.x.",
"x.x.x.x.@ 7.0.0.0.0.0.0.0.0.0.0.0.0.0.0.0.0.d.z.z.z.z.z.z.z.z.z.z.z.z.z.z.z.z.z.z.=.[ [ [ [ [ [ [ [ [ [ [ [ Q U U U I + x.x.x.x.",
"x.x.x.x.@ 7.0.0.0.0.0.0.0.0.0.0.0.0.0.0.0.0.d.z.z.z.z.z.z.z.z.z.z.z.z.z.z.z.z.z.z.=.[ [ [ [ [ [ [ [ [ [ [ [ Q U U U I + x.x.x.x.",
"x.x.x.x.@ 7.0.0.0.0.0.0.0.0.0.0.0.0.0.0.0.0.d.z.z.z.z.z.z.z.z.z.z.z.z.z.z.z.z.z.z.=.[ [ [ [ [ [ [ [ [ [ [ [ Q U U U I + x.x.x.x.",
"x.x.x.x.@ 7.0.0.0.0.9.$.#.#.%.5.0.0.0.0.0.0.d.z.z.z.z.z.z.z.z.h.f.z.z.z.z.z.z.z.z.=.[ [ [ [ [ E K K K R [ [ Q U U U I + x.x.x.x.",
"x.x.x.x.@ 7.0.0.0.0.3.g i i w , &.0.0.0.0.0.d.z.z.z.z.z.z.z.g.d A z.z.z.z.z.z.z.z.=.[ [ [ [ [ N 8 8 8 - s [ Q U U U I + x.x.x.x.",
"x.x.x.x.@ 7.0.0.0.0.0.0.0.0.0.{ h 0.0.0.0.0.d.z.z.z.z.z.z.k.d 9 Z z.z.z.z.z.z.z.z.=.[ [ [ [ [ [ [ [ [ _ - E Q U U U I + x.x.x.x.",
"x.x.x.x.@ 7.0.0.0.0.0.0.0.0.0.| f 0.0.0.0.0.d.z.z.z.z.z.z.j.o.O.Z z.z.z.z.z.z.z.z.=.[ [ [ [ [ [ [ [ [ ` ; E Q U U U I + x.x.x.x.",
"x.x.x.x.@ 7.0.0.0.0.0.1.S M j > %.0.0.0.0.0.d.z.z.z.z.z.z.z.z.O.Z z.z.z.z.z.z.z.z.=.[ [ [ [ [ [ [ a e < e [ Q U U U I + x.x.x.x.",
"x.x.x.x.@ 7.0.0.0.0.8.5 D } @.2.0.0.0.0.0.0.d.z.z.z.z.z.z.z.z.O.Z z.z.z.z.z.z.z.z.=.[ [ [ [ [ [ [ L C m : ' Q U U U I + x.x.x.x.",
"x.x.x.x.@ 7.0.0.0.0.-.0 0.0.0.0.0.0.0.0.0.0.d.z.z.z.z.z.z.z.z.O.Z z.z.z.z.z.z.z.z.=.[ [ [ [ [ [ [ [ [ [ 2 Y Q U U U I + x.x.x.x.",
"x.x.x.x.@ 7.0.0.0.0.*.q 0.0.0.0.0.0.0.0.0.0.d.z.z.z.z.z.z.z.z.O.Z z.z.z.z.z.z.z.z.=.[ [ [ [ [ [ [ [ [ [ 7 L Q U U U I + x.x.x.x.",
"x.x.x.x.@ 7.0.0.0.0.*.q 0.0.0.0.0.0.0.0.0.0.d.z.z.z.z.z.z.z.z.O.Z z.z.z.z.z.z.z.z.=.[ [ [ [ [ [ [ [ [ [ 6 P Q U U U I + x.x.x.x.",
"x.x.x.x.@ 7.0.0.0.0.*.q 0.0.0.0.0.0.0.0.0.0.d.z.z.z.z.z.z.z.z.O.Z z.z.z.z.z.z.z.z.=.[ [ [ [ [ [ [ [ [ W & ! Q U U U I + x.x.x.x.",
"x.x.x.x.@ 7.0.0.0.0.;.+ * * * * B 0.0.0.0.0.d.z.z.z.z.z.z.z.z.y.F z.z.z.z.z.z.z.z.=.[ [ [ [ [ p # # # % V [ Q U U U I + x.x.x.x.",
"x.x.x.x.@ 7.0.0.0.0.0.5.4.4.4.4.6.0.0.0.0.0.d.z.z.z.z.z.z.z.z.z.l.z.z.z.z.z.z.z.z.=.[ [ [ [ [ ' ~ ~ ~ ] [ [ Q U U U I + x.x.x.x.",
"x.x.x.x.@ 7.0.0.0.0.0.0.0.0.0.0.0.0.0.0.0.0.d.z.z.z.z.z.z.z.z.z.z.z.z.z.z.z.z.z.z.=.[ [ [ [ [ [ [ [ [ [ [ [ Q U U U I + x.x.x.x.",
"x.x.x.x.@ 7.0.0.0.0.0.0.0.0.0.0.0.0.0.0.0.0.d.z.z.z.z.z.z.z.z.z.z.z.z.z.z.z.z.z.z.=.[ [ [ [ [ [ [ [ [ [ [ [ Q U U U I + x.x.x.x.",
"x.x.x.x.@ 7.0.0.0.0.0.0.0.0.0.0.0.0.0.0.0.0.d.z.z.z.z.z.z.z.z.z.z.z.z.z.z.z.z.z.z.=.[ [ [ [ [ [ [ [ [ [ [ [ Q U U U I + x.x.x.x.",
"x.x.x.k O >.,.,.,.,.,.,.,.,.,.,.,.,.,.,.,.,.i.a.a.a.a.a.a.a.a.a.a.a.a.a.a.a.a.a.a.r.X.X.X.X.X.X.X.X.X.X.X.X.) T T T J X k x.x.x.",
"x.x.x 4 u b b b b b b b b b b b b b b b b b b b b b b b b b b b b b b b b b b b b b b b b b b b b b b b b b b b b b b u 4 x x.x.",
"x.x.z r b b b b b b b b b b b b b b b b b b b b b b b b b b b b b b b b b b b b b b b b b b b b b b b b b b b b b b b b r z x.x.",
"x.x.z r b b b b b b b b b b b b b b b b b b b b b b b b b b b b b b b b b b b b b b b b b b b b b b b b b b b b b b b b r z x.x.",
"x.x.q.  . . . . . . . . . . . . . . . . . . . . . . . . . . . . . . . . . . . . . . . . . . . . . . . . . . . . . . . .   e.x.x.",
"x.x.x.x.x.x.x.x.x.x.x.x.x.x.x.x.x.x.x.x.x.x.x.x.x.x.x.x.x.x.x.x.x.x.x.x.x.x.x.x.x.x.x.x.x.x.x.x.x.x.x.x.x.x.x.x.x.x.x.x.x.x.x.x.",
"x.x.x.x.x.x.x.x.x.x.x.x.x.x.x.x.x.x.x.x.x.x.x.x.x.x.x.x.x.x.x.x.x.x.x.x.x.x.x.x.x.x.x.x.x.x.x.x.x.x.x.x.x.x.x.x.x.x.x.x.x.x.x.x.",
"x.x.x.x.x.x.x.x.x.x.x.x.x.x.x.x.x.x.x.x.x.x.x.x.x.x.x.x.x.x.x.x.x.x.x.x.x.x.x.x.x.x.x.x.x.x.x.x.x.x.x.x.x.x.x.x.x.x.x.x.x.x.x.x.",
"x.x.x.x.x.x.x.x.x.x.x.x.x.x.x.x.x.x.x.x.x.x.x.x.x.x.x.x.x.x.x.x.x.x.x.x.x.x.x.x.x.x.x.x.x.x.x.x.x.x.x.x.x.x.x.x.x.x.x.x.x.x.x.x.",
"x.x.x.x.x.x.x.x.x.x.x.x.x.x.x.x.x.x.x.x.x.x.x.x.x.x.x.x.x.x.x.x.x.x.x.x.x.x.x.x.x.x.x.x.x.x.x.x.x.x.x.x.x.x.x.x.x.x.x.x.x.x.x.x.",
"x.x.x.x.x.x.x.x.x.x.x.x.x.x.x.x.x.x.x.x.x.x.x.x.x.x.x.x.x.x.x.x.x.x.x.x.x.x.x.x.x.x.x.x.x.x.x.x.x.x.x.x.x.x.x.x.x.x.x.x.x.x.x.x.",
"x.x.x.x.x.x.x.x.x.x.x.x.x.x.x.x.x.x.x.x.x.x.x.x.x.x.x.x.x.x.x.x.x.x.x.x.x.x.x.x.x.x.x.x.x.x.x.x.x.x.x.x.x.x.x.x.x.x.x.x.x.x.x.x.",
"x.x.x.x.x.x.x.x.x.x.x.x.x.x.x.x.x.x.x.x.x.x.x.x.x.x.x.x.x.x.x.x.x.x.x.x.x.x.x.x.x.x.x.x.x.x.x.x.x.x.x.x.x.x.x.x.x.x.x.x.x.x.x.x."
};
