/* XPM */
static char *return[] = {
/* columns rows colors chars-per-pixel */
"64 64 2 1 ",
"  c #FAFAFA",
". c None",
/* pixels */
"................................................................",
"................................................................",
"................................................................",
"................................................................",
"................................................................",
"................................................................",
"................................................................",
"................................................................",
"................................................................",
"................................................................",
"................................................................",
"................................................................",
".....................    .......................................",
"....................      ......................................",
"...................        .....................................",
"..................         .....................................",
".................         ......................................",
"................          ......................................",
"...............          .......................................",
"..............          ........................................",
".............                          .........................",
"............                                ....................",
"...........                                   ..................",
"...........                                    .................",
"...........                                     ................",
"...........                                      ...............",
"............                                      ..............",
".............                                      .............",
"..............          ..................         .............",
"...............          ..................         ............",
"................          ..................        ............",
".................         ...................        ...........",
"..................         ...................       ...........",
"...................        ...................       ...........",
"....................      ....................       ...........",
".....................    .....................       ...........",
"..............................................       ...........",
"..............................................       ...........",
"..............................................       ...........",
".............................................        ...........",
"............................................        ............",
"............................................        ............",
"..........................................          ............",
".......................................            .............",
".............    ......    .....                  ..............",
"............      ....      ....                  ..............",
"............       ..       ...                  ...............",
"............       ..       ...                .................",
"............      ....      ...               ..................",
".............     ....     .....            ....................",
"..............  ........  ........      ........................",
"................................................................",
"................................................................",
"................................................................",
"................................................................",
"................................................................",
"................................................................",
"................................................................",
"................................................................",
"................................................................",
"................................................................",
"................................................................",
"................................................................",
"................................................................"
};
