/* XPM */
static char *d00d90c44f814ae68cffd63eac5fb364LcvAAbXSzSrzTAm4[] = {
/* columns rows colors chars-per-pixel */
"150 56 84 1 ",
"  c None",
". c #2F2F2F",
"X c gray19",
"o c #313131",
"O c #323232",
"+ c gray20",
"@ c #343434",
"# c #353535",
"$ c gray21",
"% c #373737",
"& c gray22",
"* c #3A3A3A",
"= c gray23",
"- c #3C3C3C",
"; c gray24",
": c #3E3E3E",
"> c #3F3F3F",
", c gray25",
"< c #414141",
"1 c gray26",
"2 c #434343",
"3 c #444444",
"4 c gray27",
"5 c #464646",
"6 c gray28",
"7 c #484848",
"8 c #4B4B4B",
"9 c #4C4C4C",
"0 c gray30",
"q c #4E4E4E",
"w c gray31",
"e c #505050",
"r c gray32",
"t c #535353",
"y c #555555",
"u c #565656",
"i c gray34",
"p c #585858",
"a c gray35",
"s c #5A5A5A",
"d c #5B5B5B",
"f c gray36",
"g c #5D5D5D",
"h c gray37",
"j c #5F5F5F",
"k c #606060",
"l c gray38",
"z c gray39",
"x c #646464",
"c c #656565",
"v c gray40",
"b c #676767",
"n c #686868",
"m c DimGray",
"M c #6A6A6A",
"N c gray42",
"B c #6C6C6C",
"V c #6D6D6D",
"C c gray43",
"Z c #6F6F6F",
"A c gray44",
"S c #717171",
"D c #727272",
"F c gray45",
"G c #747474",
"H c gray46",
"J c #767676",
"K c #777777",
"L c gray47",
"P c #797979",
"I c gray48",
"U c #7B7B7B",
"Y c #7C7C7C",
"T c #7E7E7E",
"R c #808080",
"E c #888888",
"W c gray54",
"Q c #8B8B8B",
"! c #939393",
"~ c gray58",
"^ c #9D9D9D",
"/ c gray62",
"( c #9F9F9F",
") c #DDDDDD",
/* pixels */
"                                                                                                                                                      ",
"                    v4))))))T4A                                                                                                                       ",
"                h))))))))))))))))r                                                                                                                    ",
"              /)))))))))))))))))))))K                                                                                                                 ",
"            +)))))))))))))))))))))))))                                                                                                                ",
"           ))))))))))))))))))))))))))))                                                                                                               ",
"          ))))))))))))))))))))))))))))))                                                                                                              ",
"         )))))))))))))))r#E))))))))))))))                                                                                                             ",
"        )))))))))))v          h))))))))))                                                                                                             ",
"       7)))))))))               r))))))))/                                                                                                            ",
"       )))))))))                 h))))))))                                                                                                            ",
"      k))))))))                   ))))))))                                                                                                            ",
"      ))))))))*                   #)))))))                                                                                                            ",
"      ))))))))                    <)))))))                                                                                                            ",
"      ))))))))                    7)))))))                                                                                                            ",
"      ))))))))                    ))))))))                                                                                                            ",
"      ))))))))                    ))))))))                                                                                                            ",
"      ))))))))i                   )))))))/                                                                                                            ",
"      )))))))))                   )))))))                                                                                                             ",
"      ))))))))))                   )))))#                                                                                                             ",
"      4))))))))))                   4)~K                                                                                                              ",
"       )))))))))))A                                                                                                                                   ",
"       *))))))))))))                                                                                                                                  ",
"        ))))))))))))))V                                                                                                                               ",
"         ))))))))))))))):                                                                                                                             ",
"          )))))))))))))))))L                           vr)))<                 hE)))*V                 <)))          i)))i              h~)))#L        ",
"           ))))))))))))))))))p                       ))))))))))            K))))))))))+             k))))))       v)))))))          n))))))))))R      ",
"            k))))))))))))))))))4                   #))))))))))))          ))))))))))))))            ))))))*     K)))))))))         )))))))))))))v     ",
"              w))))))))))))))))))r                ))))))))))))))+        ))))))))))))))))          #))))))V    i))))))))))v       )))))))))))))))     ",
"                h))))))))))))))))))              ))))))))))))))))       ))))))))))))))))))         )))))))    p)))))))))))v      )))))))))))))))))    ",
"                   )))))))))))))))))            )))))))))))))))))L     )))))))))))))))))))#        )))))))   L))))))))))))      ))))))))))))))))))    ",
"                     w)))))))))))))))          r))))))))   ))))))h    ))))))))))r#)))))))))       p)))))):   )))))))))))))     ))))))))p   )))))))    ",
"                        ))))))))))))))         ))))))))    A)))))i    ))))))))   K)))))))))4      )))))))V  ))))))))))))))    v)))))))      ))))))    ",
"                          ))))))))))))#       +)))))))     v)))))V   ))))))))    k))))))))))      )))))))  h))))))))))))))    )))))))i      ))))))    ",
"     hV                     )))))))))))       )))))))#     T)))))    )))))))<    V))))))))))      )))))))  )))))n )))))))<   L)))))))       ))))))    ",
"   )))))+                    ))))))))))h     n)))))))      ))))))   p)))))))      ))))))))))     #))))))) *)))).  4))))))n   )))))))i      V))))))    ",
"  )))))))                     Q)))))))))     ))))))))      )))))    ))))))))      ))))))))))))))))))))))< )))))   #))))))h   )))))))       )))))):    ",
"  )))))))h                     )))))))))     )))))))*      v)))v    )))))))r      *)))))))))))))))))))))n<))))    ))))))))  v)))))))      )))))))     ",
" v)))))))v                     #))))))))     )))))))k               )))))))L       )))))))))))))))))))))h))))*    ))))))))))))))))))    K))))))):     ",
" :)))))))                      v))))))))     )))))))K               )))))))         )))))))))))))))))))))))))     ))))))))))))))))))  v)))))))))      ",
" Q)))))))                      v))))))))     )))))))                )))))))          )))))))))))))))))))))))<     :))))))))))))))))))))))))))))       ",
" ))))))))                      4))))))))     )))))))L               )))))))          <))))))))))))))))))))))       ))))))))))))))))))))))))))h        ",
" +)))))))                      ))))))))w     )))))))p               )))))))A         )))))))     ))))))))))(       ))))))))))))))))))))))))4      w)E ",
" 7)))))))r                    k))))))))      ))))))))              n)))))))*         )))))):     ))))))))))         )))))))))))))))))))))n       i))) ",
"  ))))))))                    )))))))))      ))))))))             k)))))))))        w))))))      ))))))))))           <)))Tk ))))))))4K         K)))) ",
"  )))))))))                 4)))))))))n      ))))))))n           )))))))))))i       )))))))      )))))))))w                  ))))))))           ))))) ",
"  +))))))))))k            <)))))))))))       i))))))))#        7)))))))))))))V     )))))))k      )))))))))                   :))))))))        p)))))) ",
"   )))))))))))))))7*#n)))))))))))))))         )))))))))):A  p))))))))))))))))))hh)))))))))       )))))))))                    )))))))))p    V)))))))T ",
"   A))))))))))))))))))))))))))))))))          w))))))))))))))))))))))))))))))))))))))))))        /))))))):                    +)))))))))))))))))))))  ",
"    v))))))))))))))))))))))))))))))            )))))))))))))))))))))) +)))))))))))))))))p        w)))))))K                     ))))))))))))))))))))L  ",
"      )))))))))))))))))))))))))))p              ))))))))))))))))))))   ))))))))))))))))w          )))))))                       ))))))))))))))))))V   ",
"       A))))))))))))))))))))))):                 7))))))))))))))))      +)))))))))))))L           )))))))                        ))))))))))))))))     ",
"          :)))))))))))))))))h                      ))))))))))))!         T))))))))))*             v)))))                          A))))))))))))k      ",
"              h#))))))E*i                            L:))))/r               r))))#K                K))T                              k+)))):p         ",
"                                                                                                                                                      ",
"                                                                                                                                                      "
};
