/* XPM */
static char *result[] = {
/* columns rows colors chars-per-pixel */
"47 44 160 2 ",
"   c #772223",
".  c #3F7378",
"X  c #474747",
"o  c #4E4E4E",
"O  c #555555",
"+  c #585757",
"@  c #5D5D5D",
"#  c #7E4444",
"$  c #4F6667",
"%  c #5D6464",
"&  c #536F71",
"*  c #487074",
"=  c #4D7B7E",
"-  c #507376",
";  c #646464",
":  c #6A6967",
">  c #6C6C6C",
",  c #686867",
"<  c #726F6C",
"1  c #6E706F",
"2  c #657576",
"3  c #737373",
"4  c #777877",
"5  c #7D7977",
"6  c #7B7B7B",
"7  c #8B3A3B",
"8  c #953938",
"9  c #923132",
"0  c #BB2D2F",
"q  c #A23536",
"w  c #B73F3F",
"e  c #B93838",
"r  c #B93334",
"t  c #BE5D24",
"y  c #BE632C",
"u  c #BD6530",
"i  c #BE6934",
"p  c #BF6B3A",
"a  c #BF713E",
"s  c #C15E25",
"d  c #C1652D",
"f  c #C26F3B",
"g  c #8D4242",
"h  c #984848",
"j  c #855757",
"k  c #B94747",
"l  c #AD5757",
"z  c #856E5F",
"x  c #B9794F",
"c  c #BE7C51",
"v  c #8B6767",
"b  c #9F6564",
"n  c #977A66",
"m  c #9B7C67",
"M  c #B46464",
"N  c #B37575",
"B  c #C17543",
"V  c #C27847",
"C  c #C07E51",
"Z  c #AEAD5B",
"A  c #A7A55A",
"S  c #B1AF5C",
"D  c #B4B25B",
"F  c #B8B75F",
"G  c #A8866F",
"H  c #B68567",
"J  c #B3896C",
"K  c #BC8B6B",
"L  c #BA8563",
"P  c #A48976",
"I  c #BC967E",
"U  c #ACAA62",
"Y  c #AAA869",
"T  c #B2B16F",
"R  c #B9B769",
"E  c #BAB863",
"W  c #A7A677",
"Q  c #A8A770",
"!  c #ACAB74",
"~  c #A5A47C",
"^  c #B0AF71",
"/  c #B4B274",
"(  c #B8B77B",
")  c #B9B879",
"_  c #BBBA71",
"`  c #C28156",
"'  c #C1825A",
"]  c #C08F6D",
"[  c #4C7E82",
"{  c #3E8C92",
"}  c #39959D",
"|  c #3999A1",
" . c #2CA3AE",
".. c #33A0AA",
"X. c #26ACB7",
"o. c #28AFBB",
"O. c #2CA9B4",
"+. c #21B3BF",
"@. c #48878C",
"#. c #47898F",
"$. c #478B91",
"%. c #1CBECB",
"&. c #21B6C3",
"*. c #20B8C5",
"=. c #1CC0CF",
"-. c #1CC5D3",
";. c #1DC9D7",
":. c #838383",
">. c #8E8280",
",. c #868887",
"<. c #878988",
"1. c #8C8C8C",
"2. c #8E8985",
"3. c #9E8F86",
"4. c #948E8E",
"5. c #90908E",
"6. c #97988E",
"7. c #9F9F8E",
"8. c #949493",
"9. c #9C9C9B",
"0. c #9E9E92",
"q. c #AF8585",
"w. c #A09F88",
"e. c #BF9E88",
"r. c #A79890",
"t. c #A99897",
"y. c #B09393",
"u. c #A3A282",
"i. c #A6A58D",
"p. c #ACAB8A",
"a. c #BEA18D",
"s. c #B8B786",
"d. c #B8B88A",
"f. c #B9B78A",
"g. c #A7A692",
"h. c #A4A49D",
"j. c #A9A89D",
"k. c #BEA798",
"l. c #B9A598",
"z. c #BCBB94",
"x. c #B9B99C",
"c. c #A4A4A4",
"v. c #ADA2A1",
"b. c #A9A9A4",
"n. c #ADADAD",
"m. c #BAABA2",
"M. c #B0AEAE",
"N. c #B6B6A6",
"B. c #BBBBA3",
"V. c #B2B2AE",
"C. c #B9B9AD",
"Z. c #B4B4B3",
"A. c #BDB6B2",
"S. c #B7B8B7",
"D. c #BAB9B5",
"F. c #BCBCBC",
"G. c #C0B1A7",
"H. c #C0BFBE",
"J. c #C0C0C0",
"K. c None",
/* pixels */
"K.K.K.K.K.K.K.K.K.K.K.K.K.K.K.K.K.K.K.K.K.K.K.K.K.K.K.K.K.K.K.K.K.K.K.K.K.K.n.<.K.K.K.K.K.K.K.",
"K.K.K.K.K.K.K.K.K.K.K.K.K.K.K.K.K.K.K.K.K.K.K.K.K.K.K.K.K.K.K.K.K.K.K.b w M n.F.F.K.K.K.K.K.K.",
"K.K.K.K.K.K.K.K.K.K.K.K.K.K.K.K.K.K.K.K.K.K.K.K.K.K.K.K.K.K.K.K.K.K.6 v j q 0 y.S.F.5.K.K.K.K.",
"K.K.K.K.K.K.K.K.K.K.K.K.K.K.K.K.K.K.K.K.K.K.K.K.K.K.K.K.K.K.K.K.K.A.F.M.c.8.9 0 q.F.F.5.K.K.K.",
"K.K.K.K.K.K.K.K.K.K.K.K.K.K.K.K.K.K.K.K.K.K.K.K.K.K.K.K.K.K.K.K.e.9.p.n.F.M.9.7 k q.F.Z.1.K.K.",
"K.K.K.K.K.K.K.K.K.K.K.K.K.K.K.K.K.K.K.K.K.K.K.K.K.K.K.K.K.K.K.G.9.f.M.:.Z.F.S.9.g M y.A.Z.6 K.",
"K.K.K.K.K.K.K.K.K.K.K.K.K.K.K.K.K.K.K.K.K.K.K.K.K.K.K.K.K.K.F.0.B.M.> 3 3 M.F.J.9.g M v.M.S.> ",
"K.K.K.K.K.K.K.K.K.K.K.K.K.K.K.K.K.K.K.K.K.K.K.K.K.K.K.K.8.J.u.N.c., ; , 3 6 Z.F.S.9.h N M.S.K.",
"K.K.K.K.K.K.K.K.K.K.K.K.K.K.K.K.K.K.K.K.K.K.K.K.K.K.K.9.F.u.D.9.; ; ; 3 > + 3 Z.F.M.5.l N S.M.",
"K.K.K.K.K.K.K.K.K.K.K.K.K.K.K.K.K.K.K.K.K.K.K.K.K.K.v.S.! S.5.1 :.> 6 6 @ @ > 3 M.S.c.j e v.n.",
"K.K.K.K.K.K.K.K.K.K.K.K.K.K.K.K.K.K.K.K.K.K.K.K.K.A.Z.! Z.,.; :.$.o.| , > @ 3 , 8.Z.n.9.8 k K.",
"K.K.K.K.K.K.K.K.K.K.K.K.K.K.K.K.K.K.K.K.K.K.K.K.J.c.^ S.@.1 8.| -.-.-.%.3 @ @ > 1 c.S.9.# e K.",
"K.K.K.K.K.K.K.K.K.K.K.K.K.K.K.K.K.K.K.K.K.K.K.H.v.( G.[ v 2 [ ;.;.;.;.-., > ; > ,.M.c.c.  K.K.",
"K.K.K.K.K.K.K.K.K.K.K.K.K.K.K.K.K.K.K.K.K.K.J.9.a.Z.>.> < n >.*.;.;.;.%., 1 ; 8.S.Z Z.J.K.K.K.",
"K.K.K.K.K.K.K.K.K.K.K.K.K.K.K.K.K.K.K.K.K.J.9.f.Z.; ; > 3 4 >.} -.-.%.- % ; 9.A.U F.K K.K.K.K.",
"K.K.K.K.K.K.K.K.K.K.K.K.K.K.K.K.K.K.K.K.F.0.B.n.@ + @ > @ 3 < :.2 * % 4 X c.N.Q F.H K.K.K.K.K.",
"K.K.K.K.K.K.K.K.K.K.K.K.K.K.K.K.K.K.2.F.7.C.c.@ ; + + O ; 4 1 > 3 3 > ; b.B.~ F.H K.K.K.K.K.K.",
"K.K.K.K.K.K.K.K.K.K.K.K.K.K.K.K.K.t.F.~ V.9.; + ; + + @ > 3 4 1 3 @ ; Z.d.i.F.Z.K.K.K.K.K.K.K.",
"K.K.K.K.K.K.K.K.K.K.K.K.K.K.K.K.n.S.! n.5.,.[ @ 1 1 @ ; ; 3 ; 3 ; + S./ h.H.6.K.K.K.K.K.K.K.K.",
"K.K.K.K.K.K.K.K.K.K.K.K.K.K.K.F.n.^ n.:.4 v ..-.-. .4 ; @ > , + ; Z.S b.F.v K.K.K.K.K.K.K.K.K.",
"K.K.K.K.K.K.K.K.K.K.K.K.K.K.J.b./ Z.3 ; <. .;.;.;.-.[ < O o + 6 Z.F b.J.K.K.K.K.K.K.K.K.K.K.K.",
"K.K.K.K.K.K.K.K.K.K.K.K.K.J.c.( S.4 + 3 3 %.;.;.;.;.} 4 O o 8.n.D S.F.K.K.K.K.K.K.K.K.K.K.K.K.",
"K.K.K.K.K.K.K.K.K.K.K.K.H.t.s.Z.> @ 3 ; 3 &.-.;.;.-.$ > @ 8.n.Z S.F.K.K.K.K.K.K.K.K.K.K.K.K.K.",
"K.K.K.K.K.K.K.K.K.K.K.J.6.x.n.> 3 3 > > 4 2 *.-.-.{ ,.+ 9.V.Y F.A.K.K.K.K.K.K.K.K.K.K.K.K.K.K.",
"K.K.K.K.K.K.K.K.K.K.F.w.C.n.+ , 3 3 > > 3 :.6 2 3 8.3 b.B.W F.m.K.K.K.K.K.K.K.K.K.K.K.K.K.K.K.",
"K.K.K.K.K.K.K.K.<.F.u.C.c.> ; @ + > > 3 > + 4 :.> > V.z.i.F.l.K.K.K.K.K.K.K.K.K.K.K.K.K.K.K.K.",
"K.K.K.K.K.K.K.G S.W Z.8.3 :.,.3 ; ; ; ; + X 3 3 > Z.s.j.J.c.K.K.K.K.K.K.K.K.K.K.K.K.K.K.K.K.K.",
"K.K.K.K.K.K.J S.! S.<.3 : [ } 2 6 , > ; + O > 3 S._ b.J.2.K.K.K.K.K.K.K.K.K.K.K.K.K.K.K.K.K.K.",
"K.K.K.K.K.K M./ S.:.> ; X.-.;.-.= 4 1 > > 3 6 n.E V.F.K.K.K.K.K.K.K.K.K.K.K.K.K.K.K.K.K.K.K.K.",
"K.K.K.K.p c./ S.6 ; @ . ;.;.;.;.*.1.3 ; 3 <.F.D n.H.K.K.K.K.K.K.K.K.K.K.K.K.K.K.K.K.K.K.K.K.K.",
"K.K.K.c i M.n.3 , @ 3 | -.;.;.;.*.<.4 > 8.S.S F.F.K.K.K.K.K.K.K.K.K.K.K.K.K.K.K.K.K.K.K.K.K.K.",
"K.K.> y t e.8., @ @ 3 & -.;.-.-.$.8.3 9.D.U F.F.K.K.K.K.K.K.K.K.K.K.K.K.K.K.K.K.K.K.K.K.K.K.K.",
"K.3 > P f d F.> @ @ > [ [ *.*.#.1.4 c.C.Y J.m.K.K.K.K.K.K.K.K.K.K.K.K.K.K.K.K.K.K.K.K.K.K.K.K.",
"<.3 > > C s B F.> > , > >.v 6 1.> b.B.u.J.l.K.K.K.K.K.K.K.K.K.K.K.K.K.K.K.K.K.K.K.K.K.K.K.K.K.",
"8.> < 3 m f d ' S., > @ @ < @ @ n.z.g.F.r.K.K.K.K.K.K.K.K.K.K.K.K.K.K.K.K.K.K.K.K.K.K.K.K.K.K.",
"K.:.3 1 > J ` s e.n.1 > > > ; S.) b.J.3.K.K.K.K.K.K.K.K.K.K.K.K.K.K.K.K.K.K.K.K.K.K.K.K.K.K.K.",
"K.1.4 4 ; + a.B ` k.M.; , 4 Z.R b.J.K.K.K.K.K.K.K.K.K.K.K.K.K.K.K.K.K.K.K.K.K.K.K.K.K.K.K.K.K.",
"K.K.<.> @ ; : ] V ` l.Z.:.M.D M.e.K.K.K.K.K.K.K.K.K.K.K.K.K.K.K.K.K.K.K.K.K.K.K.K.K.K.K.K.K.K.",
"K.K.K.4 @ > ; : i s x K Z.A S.K K.K.K.K.K.K.K.K.K.K.K.K.K.K.K.K.K.K.K.K.K.K.K.K.K.K.K.K.K.K.K.",
"K.K.K.1 > ; > @ > u s u p k.e.K.K.K.K.K.K.K.K.K.K.K.K.K.K.K.K.K.K.K.K.K.K.K.K.K.K.K.K.K.K.K.K.",
"K.K.K.K.,.3 ; 3 3 > m y t i K.K.K.K.K.K.K.K.K.K.K.K.K.K.K.K.K.K.K.K.K.K.K.K.K.K.K.K.K.K.K.K.K.",
"K.K.K.K.K.3 6 3 3 > > : < K.K.K.K.K.K.K.K.K.K.K.K.K.K.K.K.K.K.K.K.K.K.K.K.K.K.K.K.K.K.K.K.K.K.",
"K.K.K.K.K.K.K.c.> 3 3 ; K.K.K.K.K.K.K.K.K.K.K.K.K.K.K.K.K.K.K.K.K.K.K.K.K.K.K.K.K.K.K.K.K.K.K.",
"K.K.K.K.K.K.K.K.1.,.O K.K.K.K.K.K.K.K.K.K.K.K.K.K.K.K.K.K.K.K.K.K.K.K.K.K.K.K.K.K.K.K.K.K.K.K."
};
