/* XPM */
static char *black_flashlight_icon[] = {
/* columns rows colors chars-per-pixel */
"48 46 65 1 ",
"  c #060605",
". c #080705",
"X c #0A0907",
"o c #0C0C0B",
"O c #110F0C",
"+ c #13110E",
"@ c #1B170F",
"# c #0B0E10",
"$ c #0E1113",
"% c #141413",
"& c #191713",
"* c #1C1A15",
"= c #151618",
"- c #17181B",
"; c #1C1C1B",
": c #221E16",
"> c #221E1A",
", c #24211C",
"< c #2B261E",
"1 c #1D1E21",
"2 c #1F2123",
"3 c #232323",
"4 c #292725",
"5 c #2B2924",
"6 c #26272A",
"7 c #282628",
"8 c #26292D",
"9 c #2B2B2C",
"0 c #322B22",
"q c #302E2C",
"w c #33312D",
"e c #252930",
"r c #2D2E31",
"t c #2E3134",
"y c #323334",
"u c #383633",
"i c #383835",
"p c #353639",
"a c #37393E",
"s c #3A3A3C",
"d c #353D45",
"f c #3A3D43",
"g c #3E4146",
"h c #404245",
"j c #4B4944",
"k c #43464C",
"l c #464A4D",
"z c #494C4D",
"x c #524F4D",
"c c #454951",
"v c #4C4F54",
"b c #4E5155",
"n c #545251",
"m c #50555F",
"M c #6C675F",
"N c #565B63",
"B c #585D69",
"V c #5D626A",
"C c #64686B",
"Z c #6A6F74",
"A c #6B7075",
"S c #787E86",
"D c #79808A",
"F c #999996",
"G c None",
/* pixels */
"GGGGGGGGGGGGGGGGGGGGGGGGGGGGGGGGGGGGGGGGGGGGGGGG",
"GGGGGGGGGGGGGGGGGGGGGGGGGGGGGGGGGGGGGw;3GGGGGGGG",
"GGGGGGGGGGGGGGGGGGGGGGGGGGGGGGGGGGGGiyspjhGGGGGG",
"GGGGGGGGGGGGGGGGGGGGGGGGGGGGGGGGGGG*O2bAAzpGGGGG",
"GGGGGGGGGGGGGGGGGGGGGGGGGGGGGGGGG4*%;yVZSk99GGGG",
"GGGGGGGGGGGGGGGGGGGGGGGGGGGGGGGGG%%;9mSBBbp97GGG",
"GGGGGGGGGGGGGGGGGGGGGGGGGGGGGGGG,%%thbNyrkxi5GGG",
"GGGGGGGGGGGGGGGGGGGGGGGGGGGGGGGG%;;3aat78yxn*>GG",
"GGGGGGGGGGGGGGGGGGGGGGGGGGGGGGGGO--==eq7qq5sq%>G",
"GGGGGGGGGGGGGGGGGGGGGGGGGGGGGGG;#-=$%%7s0>9%q%;G",
"GGGGGGGGGGGGGGGGGGGGGGGGGGGGGGG+=%%#oOo2*+o.*&.G",
"GGGGGGGGGGGGGGGGGGGGGGGGGGGGGGGo$%%ooo X+.   &+:",
"GGGGGGGGGGGGGGGGGGGGGGGGGGGGGG,%=%%oXo#$#..  &0G",
"GGGGGGGGGGGGGGGGGGGGGGGGGGGGG;;2-=+oo#$$#o  O<GG",
"GGGGGGGGGGGGGGGGGGGGGGGGGGGG;;9t2%o##$o.XX O,GGG",
"GGGGGGGGGGGGGGGGGGGGGGGGGGG*1pct3=$=#.oOO+::GGGG",
"GGGGGGGGGGGGGGGGGGGGGGGGGG*;sC8q;+%ooo+*,<,GGGGG",
"GGGGGGGGGGGGGGGGGGGGGGGGG%=yAbx,*o.+:,:GGGGGGGGG",
"GGGGGGGGGGGGGGGGGGGGGGGG%-sl3Mj*X.+GGGGGGGGGGGGG",
"GGGGGGGGGGGGGGGGGGGGGG*%;ilFs**oX@GGGGGGGGGGGGGG",
"GGGGGGGGGGGGGGGGGGGGG;o%t89j5&+o&GGGGGGGGGGGGGGG",
"GGGGGGGGGGGGGGGGGGGG;,3dei*5+o++GGGGGGGGGGGGGGGG",
"GGGGGGGGGGGGGGGGGGGtt8e8r;*OX+@GGGGGGGGGGGGGGGGG",
"GGGGGGGGGGGGGGGGGGiyhkfg3;oXX&GGGGGGGGGGGGGGGGGG",
"GGGGGGGGGGGGGGGGG9ykmcaw4Oo+@GGGGGGGGGGGGGGGGGGG",
"GGGGGGGGGGGGGGGGyrfckp77*=%GGGGGGGGGGGGGGGGGGGGG",
"GGGGGGGGGGGGGGGprpgakt9*%&GGGGGGGGGGGGGGGGGGGGGG",
"GGGGGGGGGGGGGG9yrysisy5;*GGGGGGGGGGGGGGGGGGGGGGG",
"GGGGGGGGGGGGG9rypahsq7;5GGGGGGGGGGGGGGGGGGGGGGGG",
"GGGGGGGGGGG39rdfpasy4;>GGGGGGGGGGGGGGGGGGGGGGGGG",
"GGGGGGGGGG639fkpry99**GGGGGGGGGGGGGGGGGGGGGGGGGG",
"GGGGGGGGGrr6rfhsp9>>>GGGGGGGGGGGGGGGGGGGGGGGGGGG",
"GGGGGGGGpfrdpfsy9;*<GGGGGGGGGGGGGGGGGGGGGGGGGGGG",
"GGGGGGGpsyrdtp775;,GGGGGGGGGGGGGGGGGGGGGGGGGGGGG",
"GGGGGGyfr6tr792>>,GGGGGGGGGGGGGGGGGGGGGGGGGGGGGG",
"GGGGG;rt6;13;;*&,GGGGGGGGGGGGGGGGGGGGGGGGGGGGGGG",
"GGGG;;%82;;7;*>GGGGGGGGGGGGGGGGGGGGGGGGGGGGGGGGG",
"GGG%;=;=63;;=*GGGGGGGGGGGGGGGGGGGGGGGGGGGGGGGGGG",
"GG;;;1-=O;*%;GGGGGGGGGGGGGGGGGGGGGGGGGGGGGGGGGGG",
"G6;11-%$o.%,GGGGGGGGGGGGGGGGGGGGGGGGGGGGGGGGGGGG",
"Gtr;-=oo..*GGGGGGGGGGGGGGGGGGGGGGGGGGGGGGGGGGGGG",
"G1-1%o..X*GGGGGGGGGGGGGGGGGGGGGGGGGGGGGGGGGGGGGG",
"GG3;,o.X,GGGGGGGGGGGGGGGGGGGGGGGGGGGGGGGGGGGGGGG",
"GGG;O=+:GGGGGGGGGGGGGGGGGGGGGGGGGGGGGGGGGGGGGGGG",
"GGGG&>:GGGGGGGGGGGGGGGGGGGGGGGGGGGGGGGGGGGGGGGGG",
"GGGGGGGGGGGGGGGGGGGGGGGGGGGGGGGGGGGGGGGGGGGGGGGG"
};
