/* XPM */
static char *_29f1a412e2e45ccd2724a52cf45727dlWD53Z7H5QoJIHDi[] = {
/* columns rows colors chars-per-pixel */
"46 18 237 2 ",
"   c None",
".  c #1C4543",
"X  c #1E5A56",
"o  c #1E5B58",
"O  c #1F5D59",
"+  c #225552",
"@  c #215D5A",
"#  c #205D5B",
"$  c #205E5B",
"%  c #255E5B",
"&  c #265F5C",
"*  c #1C635F",
"=  c #1C6561",
"-  c #1C6662",
";  c #1B6965",
":  c #1B6B66",
">  c #1E6964",
",  c #1C6C67",
"<  c #1B6D68",
"1  c #2A6E6B",
"2  c #2D6E6A",
"3  c #326866",
"4  c #326F6C",
"5  c #28706B",
"6  c #28706C",
"7  c #29706C",
"8  c #2A706C",
"9  c #2B716D",
"0  c #2C716D",
"q  c #2D716E",
"w  c #2E716E",
"e  c #2F726E",
"r  c #30726E",
"t  c #31726F",
"y  c #35726F",
"u  c #2D7A76",
"i  c #2F7B77",
"p  c #2C7D79",
"a  c #2D7F7B",
"s  c #3A7470",
"d  c #307A76",
"f  c #3F7A77",
"g  c #307D79",
"h  c #377E7A",
"j  c #387E7A",
"k  c #397E7A",
"l  c #545759",
"z  c #595A5C",
"x  c #5D5F61",
"c  c #5B6261",
"v  c #5D6161",
"b  c #5C6261",
"n  c #5C6262",
"m  c #5C6362",
"M  c #5D6463",
"N  c #5D6264",
"B  c #5E6464",
"V  c #5E6564",
"C  c #5F6564",
"Z  c #5F6565",
"A  c #5F6665",
"S  c #576F6D",
"D  c #5C6C6B",
"F  c #5F6C6A",
"G  c #596F6D",
"H  c #437673",
"J  c #467775",
"K  c #4B7370",
"L  c #4F7370",
"P  c #497673",
"I  c #417A77",
"U  c #517370",
"Y  c #606464",
"T  c #616565",
"R  c #606666",
"E  c #606766",
"W  c #6C6767",
"Q  c #666866",
"!  c #676866",
"~  c #656769",
"^  c #636968",
"/  c #626A6A",
"(  c #646B6A",
")  c #646C6B",
"_  c #676D6D",
"`  c #696A6C",
"'  c #6A6C6E",
"]  c #6B6D6E",
"[  c #696F6F",
"{  c #746261",
"}  c #6D7272",
"|  c #767374",
" . c #737677",
".. c #747474",
"X. c #787272",
"o. c #797272",
"O. c #7C7070",
"+. c #737778",
"@. c #747778",
"#. c #747779",
"$. c #747879",
"%. c #76797A",
"&. c #777A7B",
"*. c #7A7D7E",
"=. c #7E7F7F",
"-. c #835A5A",
";. c #945254",
":. c #925455",
">. c #A44B4D",
",. c #A64A4D",
"<. c #B14548",
"1. c #B66A6C",
"2. c #BE7679",
"3. c #2E817D",
"4. c #2F817D",
"5. c #2F827E",
"6. c #31807B",
"7. c #33807D",
"8. c #33817D",
"9. c #30827E",
"0. c #31827E",
"q. c #30837F",
"w. c #34817D",
"e. c #7C7E80",
"r. c #7C7F80",
"t. c #7E8080",
"y. c #7E8082",
"u. c #808484",
"i. c #818485",
"p. c #808486",
"a. c #818586",
"s. c #828486",
"d. c #828586",
"f. c #838587",
"g. c #838687",
"h. c #848688",
"j. c #858788",
"k. c #858789",
"l. c #83898A",
"z. c #838A8A",
"x. c #868888",
"c. c #87898A",
"v. c #87898B",
"b. c #848A8B",
"n. c #858B8C",
"m. c #878A8C",
"M. c #888A8B",
"N. c #888A8C",
"B. c #888B8C",
"V. c #888B8D",
"C. c #898B8D",
"Z. c #8A8C8C",
"A. c #898C8E",
"S. c #8A8D8F",
"D. c #8B8D8F",
"F. c #8A8E8E",
"G. c #8B8E90",
"H. c #8C9494",
"J. c #8E9495",
"K. c #8F9595",
"L. c #909395",
"P. c #919494",
"I. c #919496",
"U. c #929597",
"Y. c #949798",
"T. c #909898",
"R. c #939B9B",
"E. c #95999B",
"W. c #959A9A",
"Q. c #9B9FA1",
"!. c #9DA4A4",
"~. c #A3A8AA",
"^. c #A4AAAB",
"/. c #A5ABAD",
"(. c #A6ABAC",
"). c #A6AFB0",
"_. c #A9AFB1",
"`. c #AAB1B3",
"'. c #AAB2B4",
"]. c #ACB2B4",
"[. c #ADB3B4",
"{. c #ADB3B5",
"}. c #ADB5B6",
"|. c #AEB4B6",
" X c #AEB5B7",
".X c #AFB5B7",
"XX c #AFB6B8",
"oX c #B0B7B9",
"OX c #B1B7B9",
"+X c #B1B9BA",
"@X c #B3B9BA",
"#X c #B2B9BB",
"$X c #B3B9BB",
"%X c #B2BABB",
"&X c #B2BABC",
"*X c #B3BABC",
"=X c #B3BBBD",
"-X c #B4BBBD",
";X c #B4BCBD",
":X c #B4BCBE",
">X c #B5BDBE",
",X c #B6BDBF",
"<X c #C59596",
"1X c #CA9193",
"2X c #CD9799",
"3X c #CE9699",
"4X c #C9999B",
"5X c #CB989A",
"6X c #CB999B",
"7X c #D0999B",
"8X c #D09EA0",
"9X c #D8B5B7",
"0X c #B7BEC0",
"qX c #B8BEC0",
"wX c #B9C0C1",
"eX c #BAC0C1",
"rX c #BAC1C1",
"tX c #BBC2C4",
"yX c #BBC3C5",
"uX c #BCC4C5",
"iX c #BCC4C6",
"pX c #BDC4C6",
"aX c #BDC5C7",
"sX c #BEC5C7",
"dX c #BEC6C8",
"fX c #BFC6C8",
"gX c #BFC7C9",
"hX c #C0C8C9",
"jX c #C0C8CA",
"kX c #C1C9CB",
"lX c #D6C7C9",
"zX c #DDCDCF",
"xX c #DBCFD1",
"cX c #DCCFD2",
"vX c #DCD0D2",
"bX c #DDD2D4",
"nX c #DDD2D5",
/* pixels */
"                                                                                            ",
"      . g 6.0.w.{ :.>.<.2.1X6X3X7X9XcXnXnXnXvXcXvXxXlX8X3X5X5X<X1.,.;.-.^ j g d &           ",
"  % p p 5.5.5.5.q.h h I J L U F / } | | o.o.o.O.O.O.o.o.W Q F S U J I j w.q.q.q.5.5.5.u +   ",
"  o > > : , , < < < < < < < , < < < < < < < < < < < < < < < < < < < < < < < < > ; : = = #   ",
"  O > > > , , < < < < < < < < < < < < < < < < < < < < < < < < < < < < < < < < > ; ; = * #   ",
"  X > > < < , < < < < < < < < < < < < < < < < < < < < < < < < < < < < < < < < , ; ; = * #   ",
"      K H s y t t t t t q t t q q 1 q q q 1 q 1 q 7 1 1 7 7 7 7 1 7 7 7 6 6 1 1 2 4 3       ",
"      t.x.x.j.j.x.j.p.j.p.j.p.j.j.j.j.V.n.V.V.V.V.n.n.V.j.x.p.j.j.v.p.j.x.p.u.s.s.s.`       ",
"      t.x.x.j.j.j.j.u.j.j.p.j.e.^ Z l.jXkXkXkXkXhXkXjXsXZ Z %.j.u.j.j.j.p.j.s.s.s.s.[       ",
"      t.x.M.M.M.(.OX*X$X*XOXn.n m Z n.jXkXkXkXkXkXkXjXyXZ Z m [ {.OXXXXX{._.n.j.s.s.`       ",
"      =.P.@XhXhXhXkXhXkXkXyXm [ p.j.n.U.U.I.U.U.U.U.U.U.j.f.*.m J.kXkXkXjXdXyXqX~.u.~       ",
"      Z.rXrXhXhXhXkXkXkXkXJ.m p.j.G.G.j.j.p.x.p.j.j.f.j.G.n.s.Z Y kXkXkXkXkXqXyXOX`.x       ",
"      W.wXwXhXhXhXkXkXkXkXx.m E.jXkX$XG.V.Z.V.A.V.V.V.U.jXjX_.Y n kXkXkXkXdXrXyXXXXXz       ",
"      W.wXwXhXhXhXkXkXkXkXJ.m '.jXkXjXjXkXgXgXkXhXkXkXhXjXjXdXx ^ kXkXkXkXdXyXyX$XXXY       ",
"      Z.wXrXhXhXhXkXkXkXkX^.m m R.}.$X*X+X*X:X*X>X>X:X:X*X/.) m s.kXkXkXkXyXwXyXOXXXZ       ",
"      u.wXrXhXhXhXkXkXkXkX0Xp.Z m x m m m m m m m m m m m m m #.Q.kXkXkXkXkXyXyXXXXXl       ",
"          Y J.!.{.*X*X*X*XOXu.e.%.+.#. . . .+.+.+.+.+.#.#.%.t.u.*XpXpXpXpX>X X/.u.          ",
"                                                                                            "
};
