/* XPM */
static char *result[] = {
/* columns rows colors chars-per-pixel */
"48 48 176 2 ",
"   c #050404",
".  c #090807",
"X  c #03060E",
"o  c #06080D",
"O  c #0C0A0A",
"+  c #090707",
"@  c #100F0E",
"#  c #180E0F",
"$  c #08110E",
"%  c #060A12",
"&  c #0A0D14",
"*  c #080F19",
"=  c #061515",
"-  c #0A1515",
";  c #071817",
":  c #071619",
">  c #0A161A",
",  c #07181C",
"<  c #0A191B",
"1  c #0B1817",
"2  c #131313",
"3  c #1C1413",
"4  c #1D1B16",
"5  c #13151B",
"6  c #131B1C",
"7  c #1A1C1C",
"8  c #2C0F0D",
"9  c #3E0F0E",
"0  c #310F0F",
"q  c #37100F",
"w  c #231313",
"e  c #2C1111",
"r  c #321112",
"t  c #3D1112",
"y  c #16201D",
"u  c #1B221C",
"i  c #23211D",
"p  c #29261D",
"a  c #27291F",
"s  c #312C1E",
"d  c #30311F",
"f  c #0E1624",
"g  c #071921",
"h  c #0A1B23",
"j  c #0A1E2A",
"k  c #131C25",
"l  c #1C1E23",
"z  c #101A28",
"x  c #0A1F30",
"c  c #0C202E",
"v  c #142123",
"b  c #15222C",
"n  c #1C232A",
"m  c #0C2334",
"M  c #0D263A",
"N  c #0E293D",
"B  c #142433",
"V  c #1C2633",
"C  c #13293C",
"Z  c #192A3A",
"A  c #182B37",
"S  c #232522",
"D  c #262A20",
"F  c #23252C",
"G  c #262D2B",
"H  c #2A292D",
"J  c #2E2A23",
"K  c #312C22",
"L  c #30292A",
"P  c #2D322B",
"I  c #333429",
"U  c #393D2B",
"Y  c #202733",
"T  c #252B31",
"R  c #2A2B34",
"E  c #212C39",
"W  c #292F3A",
"Q  c #2C3233",
"!  c #20303C",
"~  c #2E363B",
"^  c #353539",
"/  c #440E0E",
"(  c #4B0D0E",
")  c #540D0E",
"_  c #430F10",
"`  c #540F11",
"'  c #5C0E11",
"]  c #421113",
"[  c #571012",
"{  c #581014",
"}  c #610C0E",
"|  c #780A0E",
" . c #640E11",
".. c #690D10",
"X. c #730C10",
"o. c #7D0C11",
"O. c #413D36",
"+. c #6F2721",
"@. c #663429",
"#. c #3F433B",
"$. c #45421F",
"%. c #4C442F",
"&. c #55492A",
"*. c #5B512D",
"=. c #4D4D3D",
"-. c #554534",
";. c #594634",
":. c #5B4A35",
">. c #574B37",
",. c #4C5437",
"<. c #54543D",
"1. c #615A23",
"2. c #6B6C27",
"3. c #646532",
"4. c #676438",
"5. c #797535",
"6. c #0E2B40",
"7. c #2D3B47",
"8. c #303C41",
"9. c #374047",
"0. c #3F4347",
"q. c #34455C",
"w. c #3C485A",
"e. c #424042",
"r. c #474649",
"t. c #4D494B",
"y. c #4B4647",
"u. c #4F524C",
"i. c #505842",
"p. c #505348",
"a. c #4F4E50",
"s. c #565253",
"d. c #5A5757",
"f. c #655E57",
"g. c #705A53",
"h. c #68634D",
"j. c #71664F",
"k. c #6F6F57",
"l. c #72625D",
"z. c #736751",
"x. c #7A7459",
"c. c #585C66",
"v. c #766866",
"b. c #7A7B60",
"n. c #820A0F",
"m. c #89090E",
"M. c #830C12",
"N. c #890B10",
"B. c #940A10",
"V. c #817E3F",
"C. c #924D57",
"Z. c #867C5F",
"A. c #8D5A67",
"S. c #857A61",
"D. c #8B6B74",
"F. c #8E8D32",
"G. c #848234",
"H. c #8C9135",
"J. c #97973E",
"K. c #A09B30",
"L. c #B7B533",
"P. c #C4C637",
"I. c #EBEB3E",
"U. c #E2E13F",
"Y. c #F0EF3E",
"T. c #F5F53F",
"R. c #ADAF41",
"E. c #B1B640",
"W. c #D0D042",
"Q. c #E7E841",
"!. c #EBEB41",
"~. c #E2E241",
"^. c #FEFD40",
"/. c #8C7F89",
"(. c #977887",
"). c None",
/* pixels */
").).).).).).).).).).).).).).).).).).).).).).).).).).).).).).).).).).).).).W ).).).).).).).).).).",
").).).).).).).).).).).).).).).).).).).).).).).).).).).).).).).).).).).).& % o W ).).).).).).).).",
").).).).).).).).).).).).).).).).).).).).).).).).).).).).).).).).).).5 % % % X X 2 ).).).).).).).",
").).).).).).).).).).).).).).).).).).).).).).).).).).).).).).k.u.z * X X o o X X % o l.).).).).).",
").).).).).).).).).).).).).).).).).).).).).).).).).).).).).).).b.S.& o X X X o o o % % g.).).).).",
").).).).).).).).).).).).).).).).).).).).).).).).).).).).).).).D.h.S.H X X X o o % % % & v.).).).",
").).).).).).).).).).).).).).).).).).).).).).).).).).).).).).C.j.i.m 9.d.X X % o % % & l c.v.).).",
").).).).).).).).).).).).).).).).).).).).).).).).).).).).)./.j.8.x M m Z y.% % % % % i r.O.2 ).).",
").).).).).).).).).).).).).).).).).).).).).).).).).).).).(.f.B m m m M m C t.o % & k a.d.& % 2 ).",
").).).).).).).).).).).).).).).).).).).).).).).).).).).D.r.m m m m B ,.M M N s.% 5 r.s.5 % % % R ",
").).).).).).).).).).).).).).).).).).).).).).).).).).A.Z m m m x B R i.C N N M d.H a.5 % % % X * ",
").).).).).).).).).).).).).).).).).).).).).).).).).c.m m x j m c V H.E M N N M C f.5 % % % % % * ",
").).).).).).).).).).).).).).).).).).).).).).).).7.m m c j j m B Q E.Z M M 6.6.M 6.t.& o % % * f ",
").).).).).).).).).).).).).).).).).).).).).).).! m c j j j j c V F.<.Z M M M 6.6.C 6.e.% % % * B ",
").).).).).).).).).).).).).).).).).).).).).).b c c c j h h m B Q !.W B M M N 6.6.N m c.e.% * f q.",
").).).).).).).).).).).).).).).).).).).).).b c c h h h j c b Y G.R.Y m M N M 6.M m C &.S.5 > B ).",
").).).).).).).).).).).).).).).).).).).).v b j h h j j b P R Q T.=.V m M M M m M M =.*.>.S.f q.).",
").).).).).).).).).).).).).).).).).).~ v c h , h h h j F F.5.5.!.R B M M M M m m A *.>.-.x.p.).).",
").).).).).).).).).).).).).).).).).~ v v h g h g h c c H I.U.Y.J.E M m m c m c m *.>.-.).).).).).",
").).).).).).).).).).).).).).).).G y h h , g , , h c b %.^.^.^.O.V m M m c c m U >.;.).).).).).).",
").).).).).).).).).).).).).).).Q y h g : : : g h h j F K.^.^.~.R M m m j x j B ;.;.).).).).).).).",
").).).).).).).).).).).).).).P y < < : : : : , h h j L T.^.^.Z.V x x j j j j -.@.).).).).).).).).",
").).).).).).).).).).).).).P 6 6 < , ; = : : , h h l &.T.^.^.I n x j j j j I +.).).).).).).).).).",
").).).).).).).).).).).).P 6 6 , < 1 ; ; : < < g f S L.!.^.P.F j j x g j b :.).).).).).).).).).).",
").).).).).).).).).).).P y 1 , : ; = ; , : < < g 6 K ^.4.L.4.l g h h h j ;.).).).).).).).).).).).",
").).).).).).).).).).P u < 1 = ; = ; ; ; , , < < 7 1.Q.J O.p f g g g j -.).).).).).).).).).).).).",
").).).).).).).).).P u 5 < ; - = : : , ; 1 , , < i P.4.l h < h g g j %.).).).).).).).).).).).).).",
").).).).).).).).I u 1 : : ; = = ; : 1 , , , , 6 K Q.p < , g , , g Q ).).).).).).).).).).).).).).",
").).).).).).).I u 6 : ; = = ; ; : ; : 1 ; , 1 6 2.4.k : : , , g n ).).).).).).).).).).).).).).).",
").).).).).).I u 1 ; : = $ = = ; ; : : : , , 1 u P.w - : , : g k ).).).).).).).).).).).).).).).).",
").).).).).U u 6 , ; $ = = = , ; , 1 w ] 1 , < d 3.6 > = : > k ).).).).).).).).).).).).).).).).).",
").).).T P u < 1 = = = $ = = 3 { N.X.t { , < 1 2.7 1 = > g , =.).).).).).).).).).).).).).).).).).",
").).J 2 k 6 : : = = 2 ] n.N.....3 -  .3 1 < : U ; = = , 6 T ).).).).).).).).).).).).).).).).).).",
").).p O o : ; = # n.( w } { r r o.' N.; , , = = - - 1 k Q ).).).).).).).).).).).).).).).).).).).",
").).2 O   % o = $ o.- B.e [ e w t ) M.; ; = = = : > 6 F ).).).).).).).).).).).).).).).).).).).).",
").p O +     % $ / / ..} t q / [ X.N.] = ; = = = 1 6 u ).).).).).).).).).).).).).).).).).).).).).",
").2 . +       % ( _ ) ' ( e q ) ( o.- $ - = - , 6 i ).).).).).).).).).).).).).).).).).).).).).).",
"p @             o / 8 / n./ ) e ' n.= = = > : 6 S ).).).).).).).).).).).).).).).).).).).).).).).",
").+ +             % 8 ) ( m.3 } 0 ' = - = > 6 D ).).).).).).).).).).).).).).).).).).).).).).).).",
").+                 o ( q 9 B.2 | # = > > 6 D ).).).).).).).).).).).).).).).).).).).).).).).).).",
").).+                 o q ( t n.X.- - > 7 D ).).).).).).).).).).).).).).).).).).).).).).).).).).",
").).).                  % 8 ' w e > > 6 D ).).).).).).).).).).).).).).).).).).).).).).).).).).).",
").).).).                  % # $ : 1 6 D ).).).).).).).).).).).).).).).).).).).).).).).).).).).).",
").).).).).                  o > 1 7 D ).).).).).).).).).).).).).).).).).).).).).).).).).).).).).",
").).).).).).                  + k S u.).).).).).).).).).).).).).).).).).).).).).).).).).).).).).",
").).).).).).).              + + @ n w.).).).).).).).).).).).).).).).).).).).).).).).).).).).).).",
").).).).).).).).        . . O 4 K ).).).).).).).).).).).).).).).).).).).).).).).).).).).).).).).",
").).).).).).).).).  . . o 4 K ).).).).).).).).).).).).).).).).).).).).).).).).).).).).).).).).)."
};
