/* XPM */
static char *_9de2bf115ab412ed6464d70890f7dee5Bp4Hc5jBKTGbnzh[] = {
/* columns rows colors chars-per-pixel */
"42 26 201 2 ",
"   c None",
".  c gray6",
"X  c gray8",
"o  c #151515",
"O  c #1C1E1E",
"+  c #0E2323",
"@  c #092525",
"#  c #0C2826",
"$  c #0C2C29",
"%  c #142825",
"&  c #113C39",
"*  c #202020",
"=  c #202121",
"-  c #202323",
";  c #212323",
":  c #222222",
">  c #252727",
",  c gray15",
"<  c #262727",
"1  c #262828",
"2  c #262929",
"3  c #272929",
"4  c #282A2A",
"5  c #282B2B",
"6  c #292C2C",
"7  c #2A2C2C",
"8  c #16423F",
"9  c #0F4443",
"0  c #0F4744",
"q  c #0F4745",
"w  c #104340",
"e  c #114744",
"r  c #104745",
"t  c #104845",
"y  c #124947",
"u  c #114E4B",
"i  c #144D4A",
"p  c #13514E",
"a  c #15514D",
"s  c #15524F",
"d  c #135350",
"f  c #135450",
"g  c #135451",
"h  c #135551",
"j  c #145652",
"k  c #145753",
"l  c #165754",
"z  c #165B57",
"x  c #1A5B57",
"c  c #165D59",
"v  c #165E5A",
"b  c #185E5A",
"n  c #185F5B",
"m  c #17605C",
"M  c #17615D",
"N  c #17625D",
"B  c #17625E",
"V  c #1B605B",
"C  c #18615C",
"Z  c #18625E",
"A  c #18635E",
"S  c #18635F",
"D  c #1A625E",
"F  c #18645F",
"G  c #186460",
"H  c #196460",
"J  c #186560",
"K  c #186561",
"L  c #196661",
"P  c #196662",
"I  c #196763",
"U  c #1A6862",
"Y  c #196964",
"T  c #1A6864",
"R  c #1B6864",
"E  c #1B6964",
"W  c #1B6865",
"Q  c #1A6A65",
"!  c #1B6A65",
"~  c #1A6A66",
"^  c #1B6A66",
"/  c #1A6B66",
"(  c #1B6B66",
")  c #1B6B67",
"_  c #1D6864",
"`  c #1B6C67",
"'  c #1B6C68",
"]  c #1B6D68",
"[  c #1B6D69",
"{  c #1C6D68",
"}  c #1C6E69",
"|  c #1D6E69",
" . c #1E6E69",
".. c #1E6E6A",
"X. c #1E6F6A",
"o. c #1F6F6A",
"O. c #20706B",
"+. c #21706B",
"@. c #21706C",
"#. c #22716C",
"$. c #26736F",
"%. c #2B7671",
"&. c #2D7772",
"*. c #B02328",
"=. c #B02429",
"-. c #B02529",
";. c #B12B2F",
":. c #B22F33",
">. c #B43F44",
",. c #B54246",
"<. c #B85659",
"1. c #BA6468",
"2. c #BB676B",
"3. c #BE7A7D",
"4. c #BE7C7F",
"5. c #498784",
"6. c #4A8884",
"7. c #59918F",
"8. c #7B8080",
"9. c #6C9C9A",
"0. c #7BA5A4",
"q. c #8BAEAE",
"w. c #93B3B3",
"e. c #9AB7B7",
"r. c #A7BEBF",
"t. c #AEB8B8",
"y. c #C5A4A7",
"u. c #C6AEB1",
"i. c #C9BEC1",
"p. c #B4C6C7",
"a. c #B8C0C1",
"s. c #BCC5C5",
"d. c #B6C7C8",
"f. c #BDC7C8",
"g. c #BFC9C9",
"h. c #C0C8CA",
"j. c #C1C8CA",
"k. c #C0C9CB",
"l. c #C1C9CB",
"z. c #C2C9CB",
"x. c #C2CACB",
"c. c #CBC8CA",
"v. c #C2CED0",
"b. c #C3CFD0",
"n. c #C6CFD0",
"m. c #C7CFD0",
"M. c #C8CFD1",
"N. c #CCCED0",
"B. c #CCCFD1",
"V. c #C7D1D3",
"C. c #C8D0D2",
"Z. c #CAD1D3",
"A. c #C9D3D4",
"S. c #CAD2D4",
"D. c #CAD3D4",
"F. c #CBD3D5",
"G. c #CDD2D4",
"H. c #CDD3D5",
"J. c #CBD4D5",
"K. c #CBD4D6",
"L. c #CCD4D5",
"P. c #CCD4D6",
"I. c #CDD4D6",
"U. c #CCD5D6",
"Y. c #CCD5D7",
"T. c #CDD5D7",
"R. c #CDD6D8",
"E. c #CED6D8",
"W. c #CED7D9",
"Q. c #CFD8DA",
"!. c #CED9DA",
"~. c #D0D9DB",
"^. c #D2DADB",
"/. c #D0DADC",
"(. c #D1DADC",
"). c #D1DBDD",
"_. c #D2DBDD",
"`. c #D3DCDE",
"'. c #D3DDDF",
"]. c #D3DEDF",
"[. c #D4DDDF",
"{. c #D5DFE1",
"}. c #D6E0E2",
"|. c #D7E1E3",
" X c #D8E2E4",
".X c #D9E3E5",
"XX c #DAE3E4",
"oX c #DAE4E6",
"OX c #DAE5E7",
"+X c #DCE6E8",
"@X c #DDE7E9",
"#X c #DEE8E9",
"$X c #DEE8EA",
"%X c #DFE9EA",
"&X c #DFEAEB",
"*X c #E1ECED",
"=X c #E3EEEF",
"-X c #E3EEF0",
";X c #E4EEF0",
":X c #E4EFF0",
">X c #E4EFF1",
/* pixels */
"                                    , 2 2 2 , = = = ; 5                             ",
"                                  5 7 7 7 7 7 7 7 7 7 7 7                           ",
"                                . 7 ,                 = 7 5                         ",
"                                X 7 O                   7 5                         ",
"                                X 7 ;                   7 5                         ",
"    :X:X>X>X=X>X:X:X:X:X:X:X:X:X:X:X:X:X:X:X:X=X=X=X=X*X&X&X&XXX[.^.Q.W.W.Z.s.a.t.  ",
"  8.:X:X:X:X:X:X:X:X:X:X:X:X-X:X:X:X:X:X:X:X:X:X>X=X>X=X>X=X=X=X>X>X>X>X-X-X-X-X>X  ",
"  >X:X:X:X:X:X:X:X:X:X:X:X:X-X-X:X:X:X:X:X:X:X>X;X;X=X>X=X>X=X>X*X>X=X>X-X-X-X-X=X  ",
"  n.n.M.n.Z.Z.Z.P.K.K.P.K.K.W.W.W.).~.).).).).].[.[.}.}.|.|.|.|.|.oXXXOXOXOX$X$X*X  ",
"  x.x.x.x.x.z.z.z.z.x.x.x.x.x.x.h.h.x.h.x.x.x.g.z.z.z.z.g.z.z.z.z.g.g.z.z.z.z.z.h.  ",
"  f.x.f.g.h.x.x.h.x.x.h.x.g.g.x.z.z.x.x.x.f.x.x.x.z.z.z.z.g.g.z.x.x.x.x.z.z.g.z.x.  ",
"[ [ [ { [ ` ` [ [ [ [ { [ [ [ ` [ [ [ [ [ [ ] ] { { { X.X.X.} X.X.{ { X.X.X.X.#.@._ ",
") [ [ ` ` ` [ ` ) ) ` ` ` [ ` [ ` [ ` [ ` ] ] ] [ ` [ ` [ [ [ [ ` ` [ ` [ ` ` ` [ ) ",
"  9 r 0 0 0 q q 0 0 0 0 0 0 0 0 0 0 0 0 0 0 q 0 0 0 0 0 0 0 0 0 0 0 0 0 0 0 0 0 0 % ",
"  b P P P P P K P K K K F K F K P B 0 0 0 0 0 q 0 N F D B B B B B B B F B B B B B   ",
"  D [ ` [ ` ` ` [ ` ` [ [ ` [ ` ` ` p h h k p p h ` [ ` [ [ [ 9.p.d.q.O.` ` [ ` `   ",
"  @ ] ] ] ] ] ] ] ] ] ] ] ] ] ] ` F ) ` ] ] ] ] ] F ] ] ] ] V.z.4.3.y.P.%.{ ` [ C   ",
"    [ ] ] ] ] ] ] ] ] ] ] ] ] ] [ y ` ` ] ] ] ] ` c ] ] ] w.G.u.*.*.1.P.x.{ ` ` +   ",
"    & ] ] ] ] ] ] ] ] ] ] ] ] ] ) u ` [ ] ] ] ] ` ] K ] ` K.,.*.*.*.=.=.W.#.{ )     ",
"      ] ] ] ] ] ] ] ] ] ] ] ` [ p Y [ ` ] ] ] ] [ ` k ` ` G.,.*.*.*.*.=.W.$.[ 8     ",
"      p ] ] ] ] ] ] ] ] ` [ ` ` y ` ] ] ] ] ] ] ` ` ` Y ` V.<.:.*.*.:.,.W.{ [       ",
"        ` ` ] ] ] ] ] ] [ ` ] C N ` ] ] ] ] ] ] ] ` ` h [ 7.Z.c.*.*.1.P.e.` x       ",
"        F ` ] ] ] ] ] ] ` [ { e ` ` ` ] ] ] ] ] ] ] ] Y ` ` 0.G.c.G.P.r.{ [         ",
"          ] ] ] ] ] ] ] { { Y p ` ` [ ` ] ] ] ] ] ] ` [ c ` ` O.6.6.%.{ { Y         ",
"          ! { { ` ` ` ` ` ` u Y ` ` ` ` ` ` ` ` ] ] ` ` z ` ` ` ` ` ` ` ` #         ",
"          $ ` ` ) ` ` ` ` ` ) ) ` Y Y ` ` ) ` ) ` ` ) ` Y ) ` ` ) ) Y 8 z           "
};
