/* XPM */
static char *_f2d12e56c6e484fab405abda21452edKRyFfWEL5qttEKic[] = {
/* columns rows colors chars-per-pixel */
"23 40 208 2 ",
"   c None",
".  c #143634",
"X  c #143C3A",
"o  c #1E4B4A",
"O  c #1D4D4C",
"+  c #18504D",
"@  c #18534F",
"#  c #1F5553",
"$  c #1B5956",
"%  c #1B5A56",
"&  c #1B5A57",
"*  c #1B5B57",
"=  c #1C5956",
"-  c #1F5856",
";  c #1F5957",
":  c #1C5A57",
">  c #1C5B57",
",  c #1E5A56",
"<  c #1B5B58",
"1  c #1C5B58",
"2  c #1D5B58",
"3  c #1B5E5B",
"4  c #1C5C59",
"5  c #1E5C59",
"6  c #1B615D",
"7  c #1A615E",
"8  c #1B615E",
"9  c #1B625E",
"0  c #1C625E",
"q  c #1B6661",
"w  c #1C6460",
"e  c #1C6662",
"r  c #1C6763",
"t  c #1D6763",
"y  c #1B6864",
"u  c #1B6964",
"i  c #1B6965",
"p  c #1B6A65",
"a  c #1A6B66",
"s  c #1B6B66",
"d  c #1B6C67",
"f  c #1B6D68",
"g  c #2E6160",
"h  c #216A66",
"j  c #266D69",
"k  c #316663",
"l  c #27706C",
"z  c #38726F",
"x  c #2E7571",
"c  c #377B77",
"v  c #387B77",
"b  c #487472",
"n  c #437876",
"m  c #497B79",
"M  c #4B7D7B",
"N  c #9F2125",
"B  c #9F2226",
"V  c #AA2127",
"C  c #AC2227",
"Z  c #AE2227",
"A  c #AF2227",
"S  c #A82328",
"D  c #AE2228",
"F  c #AE2328",
"G  c #AF2328",
"H  c #A82428",
"J  c #A82429",
"K  c #A8252A",
"L  c #A8262B",
"P  c #AF2429",
"I  c #AF262A",
"U  c #A9282D",
"Y  c #B02328",
"T  c #B0272C",
"R  c #B0282D",
"E  c #B0292E",
"W  c #B02F33",
"Q  c #B24A4E",
"!  c #B34A4E",
"~  c #AE4D51",
"^  c #B34B50",
"/  c #B24D51",
"(  c #B44D51",
")  c #AF555A",
"_  c #B45155",
"`  c #B55457",
"'  c #B05458",
"]  c #B55458",
"[  c #B5585B",
"{  c #B6595C",
"}  c #B45C5E",
"|  c #B05C60",
" . c #B6676A",
".. c #B5686A",
"X. c #B37C7F",
"o. c #B87B7D",
"O. c #40807D",
"+. c #4A827F",
"@. c #468581",
"#. c #4B8380",
"$. c #4C8381",
"%. c #4F8885",
"&. c #4D8886",
"*. c #528582",
"=. c #518683",
"-. c #598A88",
";. c #5A8A88",
":. c #5D8D8B",
">. c #5F918F",
",. c #768B8B",
"<. c #669694",
"1. c #679795",
"2. c #6A9291",
"3. c #749D9C",
"4. c #7E9D9D",
"5. c #939D9D",
"6. c #B38285",
"7. c #B48487",
"8. c #B4878A",
"9. c #B58B8E",
"0. c #B98C8E",
"q. c #AA9192",
"w. c #AC9597",
"e. c #B59093",
"r. c #B69497",
"t. c #B69699",
"y. c #B6979A",
"u. c #BA9799",
"i. c #BB999A",
"p. c #80A3A2",
"a. c #82A4A3",
"s. c #84A6A4",
"d. c #8AA0A0",
"f. c #8EACAB",
"g. c #95A1A0",
"h. c #9AA0A2",
"j. c #9BA1A3",
"k. c #9CA2A4",
"l. c #9DA2A4",
"z. c #9DA3A5",
"x. c #9FA5A5",
"c. c #90A9A9",
"v. c #97ADAD",
"b. c #9CABAB",
"n. c #9FACAD",
"m. c #97B1B0",
"M. c #A0A4A4",
"N. c #A1A5A4",
"B. c #A0A5A5",
"V. c #A1A5A5",
"C. c #A1A6A5",
"Z. c #A1A6A6",
"A. c #A2A6A6",
"S. c #A2A7A7",
"D. c #A3A7A7",
"F. c #A3A8A7",
"G. c #A4A8A8",
"H. c #A4A9A9",
"J. c #A6ACAC",
"K. c #AEACAD",
"L. c #AEADAE",
"P. c #AEADAF",
"I. c #AEAEAF",
"U. c #B5A4A5",
"Y. c #B9A3A5",
"T. c #BCA4A6",
"R. c #B8A9AC",
"E. c #BAADAE",
"W. c #B6AEB0",
"Q. c #A0B5B5",
"!. c #AFB3B4",
"~. c #AFB4B5",
"^. c #AEB5B6",
"/. c #AFB5B7",
"(. c #AFB6B7",
"). c #A5B8B9",
"_. c #AAB8BA",
"`. c #AFBBBD",
"'. c #ABBDBE",
"]. c #B0BCBD",
"[. c #B0BCBE",
"{. c #B4BDBD",
"}. c #B7BCBD",
"|. c #B6BDBF",
" X c #B7BDBF",
".X c #B7BEBF",
"XX c #B8BBBC",
"oX c #B8BCBD",
"OX c #B8BDBE",
"+X c #B8BEBF",
"@X c #AFBFC0",
"#X c #B8BFC0",
"$X c #B4C0C2",
"%X c #B4C1C3",
"&X c #B5C2C3",
"*X c #BBC2C4",
"=X c #BBC3C5",
"-X c #BCC3C5",
";X c #BCC4C5",
":X c #BFC4C5",
">X c #BDC5C6",
",X c #BFC5C6",
"<X c #BFC6C7",
"1X c #BFC6C8",
"2X c #BFC7C8",
"3X c #C0C8C9",
"4X c #C0C8CA",
"5X c #C1C9CB",
/* pixels */
"          J..X#X;X3X5X5X5X;X*X+X/.j.          ",
"          V.#X#X3X3X3X5X5X*X*X+X/.h.          ",
"          V.#X#X;X3X5X5X5X;X$X+X/.z.          ",
"          V.#X#X3X5X;X5X5X*X*X+X/.z.          ",
"          H.$X+X5X3X5X5X5X&X&X#X/.h.          ",
"          g.v.c.s.a.3.<.1.>.:.-.*.M X         ",
"    , w t t s s f s f f s f r r r p 9 9 5     ",
"  . % w t t s f s f f f f f d p p r 9 9 5     ",
"  o 9 e r p d d d d d f f f d r p e p 9 9 9 # ",
"5 5 r r r p d d d d f f f f d p p p p 9 9 0 ; ",
", < r r r p d d d d f f f f d p r p p 9 9 9 ; ",
"% % r r t p d d d d f f f d d r p r p 9 9 9 , ",
"% 1 e h j l x c c O.@.&.%.%.&.*.#.#.+.m n z g ",
"5.z..X+X#X=X2X2X2X2X5X5X5X5X5X*X*X*X*X/.(.(.k.",
"M.D.#X#X#X;X2X2Xo...{ ` ! ! ! ~ r.;X*X/././.z.",
"M.D.#X#X#X=X2X2XW G Y Y Y Y P V 8.$X=X/././.z.",
"V.F.#X#X+X;X3X;XE A Y Y Y Y G V 8.*X*X(.(.(.k.",
"V.V.#X#X+X;X3X3XE Z Y Y Y Y G V X.-X*X(././.k.",
"V.F.#X#XW.E.T.i.T A Y Y Y Y G V ) 6.e.q././.z.",
"N.V.#X.XU G A A A A Y Y Y Y G V V V S S K.(.z.",
"N.V.$X+XK V A A A A Y Y Y Y G V V V V N K./.z.",
"V.F.+XXXH Z A A A A Y Y Y Y G V V V V N K.^.k.",
"V.G.+X+XS V A A A A Y Y Y Y G V V V V N K.^.k.",
"V.V.+XXXH Z A A A A Y Y G G G V V V V N K.^.k.",
"V.G.+X+XH Z Z A A A Y Y Y Y G V V V V N I.(.z.",
"V.G.+X+XH P A A A A Y Y Y Y G V V V V N I.(.z.",
"G.V.$X+XU.Y.i.0.P Z Y Y Y Y G V } 9.i.w.^.^.z.",
"F.G.+X+X+X;X3X-XY Z Y Y Y Y G V 8.$X&X(.(.^.k.",
"G.G.#X$X$X;X3X3XP P Y Y Y Y F V e.*X*X(.(.^.k.",
"D.G.#X+X+X3X3X3XY Z Y Y Y Y Z V t.*X*X(.(.^.k.",
"D.G.+X+XXX*X3X+X..} { ] _ ( Q ' R.*X*X(.(./.k.",
"D.G.+X+X+X3X3X3X5X;X5X5X5X5X3X*X*X*X*X(.(./.k.",
"k b -.2.4.p.f.m.Q.).'.@X$X&X$X[.`.`._.n.b.d.,.",
", , r t y d f d d d f f f f d d p p p 9 9 9 ; ",
"% * r r e p f f d d f f f f d w p e p 9 9 9 1 ",
"% * r r y d p p d d f f f f p p y p y 9 9 3 - ",
"% 1 e y e p f f d d f f f f d p p r p 9 0 0 , ",
"% 1 y e y d p f d d f f f f d r p e p 9 0 3 1 ",
"% < y e e p f f d d f f f f p p y p y 9 9 9 , ",
"O @ 9 e p p f p f f d d f d d r p y p 9 9 3 O "
};
