/* XPM */
static char *key_icon[] = {
/* columns rows colors chars-per-pixel */
"52 48 95 2 ",
"   c #0B0705",
".  c #0C0805",
"X  c #0F0B09",
"o  c #160B07",
"O  c #130D0C",
"+  c #1C0E0C",
"@  c #1B110D",
"#  c #1E1412",
"$  c #1E1816",
"%  c #25140F",
"&  c #211613",
"*  c #241915",
"=  c #2A1B16",
"-  c #241D1B",
";  c #2B1D19",
":  c #301E1A",
">  c #27211F",
",  c #2D211D",
"<  c #35231E",
"1  c #3A231D",
"2  c #2B2523",
"3  c #2F2929",
"4  c #332624",
"5  c #342927",
"6  c #3B2A26",
"7  c #342B2A",
"8  c #3A2C2A",
"9  c #39302F",
"0  c #363233",
"q  c #3C3333",
"w  c #3A3739",
"e  c #3C3839",
"r  c #43261E",
"t  c #442D27",
"y  c #492B25",
"u  c #422E29",
"i  c #44322E",
"p  c #4B332E",
"a  c #433634",
"s  c #4A3531",
"d  c #463836",
"f  c #4A3937",
"g  c #423738",
"h  c #443B3B",
"j  c #4C3C3B",
"k  c #513733",
"l  c #523833",
"z  c #523E3C",
"x  c #5B3E38",
"c  c #4F403F",
"v  c #54413F",
"b  c #5A413C",
"n  c #72463D",
"m  c #4D4242",
"M  c #4D4748",
"N  c #544442",
"B  c #5B4542",
"V  c #554949",
"C  c #5B4C4B",
"Z  c #5C4F51",
"A  c #595255",
"S  c #565458",
"D  c #5C595B",
"F  c #634743",
"G  c #604945",
"H  c #684843",
"J  c #624E4C",
"K  c #62504F",
"L  c #6A524F",
"P  c #645251",
"I  c #6D5452",
"U  c #6D5958",
"Y  c #745753",
"T  c #735D5B",
"R  c #795F5B",
"E  c #7A635E",
"W  c #7D6561",
"Q  c #815F59",
"!  c #8C655F",
"~  c #9E6356",
"^  c #846562",
"/  c #896763",
"(  c #846A67",
")  c #846C6A",
"_  c #8B6F6C",
"`  c #91726E",
"'  c #877070",
"]  c #927370",
"[  c #A7807B",
"{  c #998384",
"}  c #A38784",
"|  c #AF8A85",
" . c #C1A5A7",
".. c #EDCBC5",
"X. c None",
/* pixels */
"X.X.X.X.X.X.X.X.X.X.X.X.X.X.X.X.X.X.X.X.X.X.X.X.X.X.X.X.X.X.X.X.X.X.X.X.X.X.X.X.X.X.X.X.X.X.= X.X.X.X.X.",
"X.X.X.X.X.X.X.X.X.X.X.X.X.X.X.X.X.X.X.X.X.X.X.X.X.X.X.X.X.X.X.X.X.X.X.X.X.X.X.X.X.X.X.X.X.r p ; X.X.X.X.",
"X.X.X.X.X.X.X.X.X.X.X.X.X.X.X.X.X.X.X.X.X.X.X.X.X.X.X.X.X.X.X.X.X.X.X.X.X.X.X.X.X.X.X.= y k G 5 X.X.X.X.",
"X.X.X.X.X.X.X.X.X.X.X.X.X.X.X.X.X.X.X.X.X.X.X.X.X.X.X.X.X.X.X.X.X.X.X.X.X.X.X.X.X.X.X.r s B 8 X.X.X.X.X.",
"X.X.X.X.X.X.X.X.X.X.X.X.X.X.X.X.X.X.X.X.X.X.X.X.X.X.X.X.X.X.X.X.X.X.X.X.X.X.X.X.X.& < 6 z 7 7 X.X.X.X.X.",
"X.X.X.X.X.X.X.X.X.X.X.X.X.X.X.X.X.X.X.X.X.X.X.X.X.X.X.X.X.X.X.X.X.X.X.X.X.X.X.X.@ = 5 m 7 f X.X.X.X.X.X.",
"X.X.X.X.X.X.X.X.X.X.X.X.X.X.X.X.X.X.X.X.X.X.X.X.X.X.X.X.X.X.X.X.X.X.X.X.X.X.X.@ = 7 j 7 f X.X.X.X.X.X.X.",
"X.X.X.X.X.X.X.X.X.X.X.X.X.X.X.X.X.X.X.X.X.X.X.X.X.X.X.X.X.X.X.X.X.X.X.X.X.X.@ = 6 c 7 f X.X.X.X.X.X.X.X.",
"X.X.X.X.X.X.X.X.X.X.X.X.X.X.X.X.X.X.X.X.X.X.X.X.X.X.X.X.X.X.X.X.X.X.X.X.X.* = 8 v 7 q b X.X.X.s 8 X.X.X.",
"X.X.X.X.X.X.X.X.X.X.X.X.X.X.X.X.X.X.X.X.X.X.X.X.X.X.X.X.X.X.X.X.X.X.X.X.* ; 5 c 7 h l j p X.b 9 d p X.X.",
"X.X.X.X.X.X.X.X.X.X.X.X.X.X.X.X.X.X.X.X.X.X.X.X.X.X.X.X.X.X.X.X.X.X.X.* = 8 c 7 q f f d d a a a f z p X.",
"X.X.X.X.X.X.X.X.X.X.X.X.X.X.X.X.X.X.X.X.X.X.X.X.X.X.X.X.X.X.X.X.X.X.* = 8 j 3 q q a a f a d a d a H X.X.",
"X.X.X.X.X.X.X.X.X.X.X.X.X.X.X.X.X.X.X.X.X.X.X.X.X.X.X.X.X.X.X.X.X.& = 7 m 5 d h a z d d a a d a F X.X.X.",
"X.X.X.X.X.X.X.X.X.X.X.X.X.X.X.X.X.X.X.X.X.X.X.X.X.X.X.X.X.X.X.X.$ * 5 h 5 0 f q f B z f X.Y f B X.X.X.X.",
"X.X.X.X.X.X.X.X.X.X.X.X.X.X.X.X.X.X.X.X.X.X.X.X.X.X.X.X.X.X.X.& * 2 e 2 a X.X.g q z z X.X.X.! X.X.X.X.X.",
"X.X.X.X.X.X.X.X.X.X.X.X.X.X.X.X.X.X.X.X.X.X.X.X.X.X.X.X.X.X.@ = 2 w 7 0 X.X.X.X.8 d d 2 X.X.X.X.X.X.X.X.",
"X.X.X.X.X.X.X.X.X.X.X.X.X.X.X.X.X.X.X.X.X.X.X.X.X.X.X.X.X.1 O - w 2 Z X.X.X.X.0 a g j z X.X.X.X.X.X.X.X.",
"X.X.X.X.X.X.X.X.X.X.X.X.X.X.X.X.X.X.X.X.X.X.X.X.X.X.X.n r ; x $ 2 X.X.X.X.X.q q a d d z X.X.X.X.X.X.X.X.",
"X.X.X.X.X.X.X.X.X.X.X.X.X.X.X.X.X.X.X.X.X.X.X.X.X.X.X.p ~ y m z X.X.X.X.X.X.q q j f z X.X.X.X.X.X.X.X.X.",
"X.X.X.X.X.X.X.X.X.X.X.X.X.X.X.X.X.X.X.X.X.X.X.X.X.X.4 p / ..t X.X.X.X.X.X.X.X.c v v X.X.X.X.X.X.X.X.X.X.",
"X.X.X.X.X.X.X.X.X.X.X.X.X.X.X.X.X.X.X.X.X.X.X.X.X.* 4 P  .A Y X.X.X.X.X.X.X.X.X.Q X.X.X.X.X.X.X.X.X.X.X.",
"X.X.X.X.X.X.X.X.X.X.X.X.X.X.X.X.X.X.X.X.X.X.X.X.; < j { C 9 X.X.X.X.X.X.X.X.X.X.X.X.X.X.X.X.X.X.X.X.X.X.",
"X.X.X.X.X.X.X.X.X.X.X.X.X.X.X.X.X.X.X.X.X.X.X.* ; a T d X.X.X.X.X.X.X.X.X.X.X.X.X.X.X.X.X.X.X.X.X.X.X.X.",
"X.X.X.X.X.X.X.X.X.X.X.X.X.X.X.X.X.X.X.X.X.X.- ; a P q X.X.X.X.X.X.X.X.X.X.X.X.X.X.X.X.X.X.X.X.X.X.X.X.X.",
"X.X.X.X.X.X.X.X.X.X.X.X.X.X.X.X.X.X.X.X.X.X.1 a C i X.X.X.X.X.X.X.X.X.X.X.X.X.X.X.X.X.X.X.X.X.X.X.X.X.X.",
"X.X.X.X.X.X.X.X.X.X.X.X.X.X.X.X.X.X.X.X., ; 0 R 8 X.X.X.X.X.X.X.X.X.X.X.X.X.X.X.X.X.X.X.X.X.X.X.X.X.X.X.",
"X.X.X.X.X.X.X.X.X.X.X.X.X.X.X.X.X.X.X.$ - a f q X.X.X.X.X.X.X.X.X.X.X.X.X.X.X.X.X.X.X.X.X.X.X.X.X.X.X.X.",
"X.X.X.X.X.X.X.X.X.X.X.X.X.X.X.X.X.X.* ; - V 2 X.X.X.X.X.X.X.X.X.X.X.X.X.X.X.X.X.X.X.X.X.X.X.X.X.X.X.X.X.",
"X.X.X.X.X.6 g q 2 @ X.X.X.X.X.X.X.o ; 8 V > X.X.X.X.X.X.X.X.X.X.X.X.X.X.X.X.X.X.X.X.X.X.X.X.X.X.X.X.X.X.",
"X.X.X.t Z C m h 9 7 u @ X.X.X.+   s + K 9 X.X.X.X.X.X.X.X.X.X.X.X.X.X.X.X.X.X.X.X.X.X.X.X.X.X.X.X.X.X.X.",
"X.X.a h C R X.X.G 7 4 6 % X.X.u & O E O X.X.X.X.X.X.X.X.X.X.X.X.X.X.X.X.X.X.X.X.X.X.X.X.X.X.X.X.X.X.X.X.",
"X.u w m X.X.X.X.X.i < < ; = . - J * X B X.X.X.X.X.X.X.X.X.X.X.X.X.X.X.X.X.X.X.X.X.X.X.X.X.X.X.X.X.X.X.X.",
"X.a q X.X.X.X.X.X.X.t < , 6 < X 2 ( - X.X.X.X.X.X.X.X.X.X.X.X.X.X.X.X.X.X.X.X.X.X.X.X.X.X.X.X.X.X.X.X.X.",
"6 0 j X.X.X.X.X.X.X.X.4 6 i N u O X.d X.X.X.X.X.X.X.X.X.X.X.X.X.X.X.X.X.X.X.X.X.X.X.X.X.X.X.X.X.X.X.X.X.",
"b a - X.X.X.X.X.X.X.X.X.l v T T 6 X.X.X.X.X.X.X.X.X.X.X.X.X.X.X.X.X.X.X.X.X.X.X.X.X.X.X.X.X.X.X.X.X.X.X.",
"b 7 * X.X.X.X.X.X.X.X.X.X.| U g 7 ; X.X.X.X.X.X.X.X.X.X.X.X.X.X.X.X.X.X.X.X.X.X.X.X.X.X.X.X.X.X.X.X.X.X.",
"l q 2 X.X.X.X.X.X.X.X.X.X.X.) 9 3 7 @ X.X.X.X.X.X.X.X.X.X.X.X.X.X.X.X.X.X.X.X.X.X.X.X.X.X.X.X.X.X.X.X.X.",
"X.a a + X.X.X.X.X.X.X.X.X.X.X.N 7 w M X.X.X.X.X.X.X.X.X.X.X.X.X.X.X.X.X.X.X.X.X.X.X.X.X.X.X.X.X.X.X.X.X.",
"X.z j d O X.X.X.X.X.X.X.X.X.X.X.^ A D 6 X.X.X.X.X.X.X.X.X.X.X.X.X.X.X.X.X.X.X.X.X.X.X.X.X.X.X.X.X.X.X.X.",
"X.X.N N z # X.X.X.X.X.X.X.X.X.X.X.' S C X.X.X.X.X.X.X.X.X.X.X.X.X.X.X.X.X.X.X.X.X.X.X.X.X.X.X.X.X.X.X.X.",
"X.X.B N N N 7 + X.X.X.X.X.X.X.X.X.X.M f X.X.X.X.X.X.X.X.X.X.X.X.X.X.X.X.X.X.X.X.X.X.X.X.X.X.X.X.X.X.X.X.",
"X.X.X.J c N N a X.X.X.X.X.X.X.X.X.X.h d X.X.X.X.X.X.X.X.X.X.X.X.X.X.X.X.X.X.X.X.X.X.X.X.X.X.X.X.X.X.X.X.",
"X.X.X.X.L c B C * X.X.X.X.X.X.X.X.X.9 d X.X.X.X.X.X.X.X.X.X.X.X.X.X.X.X.X.X.X.X.X.X.X.X.X.X.X.X.X.X.X.X.",
"X.X.X.X.X.T C V C @ X.X.X.X.X.X.X.7 q 0 X.X.X.X.X.X.X.X.X.X.X.X.X.X.X.X.X.X.X.X.X.X.X.X.X.X.X.X.X.X.X.X.",
"X.X.X.X.X.X.] P P C @ X.X.X.X.X.5 e L X.X.X.X.X.X.X.X.X.X.X.X.X.X.X.X.X.X.X.X.X.X.X.X.X.X.X.X.X.X.X.X.X.",
"X.X.X.X.X.X.X.[ P P C 6 @ & = 9 q V X.X.X.X.X.X.X.X.X.X.X.X.X.X.X.X.X.X.X.X.X.X.X.X.X.X.X.X.X.X.X.X.X.X.",
"X.X.X.X.X.X.X.X.X.) C C h h 0 a T X.X.X.X.X.X.X.X.X.X.X.X.X.X.X.X.X.X.X.X.X.X.X.X.X.X.X.X.X.X.X.X.X.X.X.",
"X.X.X.X.X.X.X.X.X.X.X.} _ W ` X.X.X.X.X.X.X.X.X.X.X.X.X.X.X.X.X.X.X.X.X.X.X.X.X.X.X.X.X.X.X.X.X.X.X.X.X."
};
