/* XPM */
static char *ee94605e06c34e9db6c8bc621f9603cfpfBJQsJ0HBbooSDq[] = {
/* columns rows colors chars-per-pixel */
"49 49 162 2 ",
"   c None",
".  c #313133",
"X  c #333639",
"o  c #39444A",
"O  c #454547",
"+  c #424649",
"@  c #41484D",
"#  c #5F514B",
"$  c #434F56",
"%  c #415057",
"&  c #4D585F",
"*  c #48535B",
"=  c #5C5A5D",
"-  c #685951",
";  c #6F6059",
":  c #72625B",
">  c #575E64",
",  c #6C5F61",
"<  c #4F6067",
"1  c #4E636D",
"2  c #50646E",
"3  c #58656A",
"4  c #5A6A73",
"5  c #616367",
"6  c #6E6264",
"7  c #676468",
"8  c #726462",
"9  c #786864",
"0  c #746A68",
"q  c #686D71",
"w  c #636B71",
"e  c #65727B",
"r  c #697279",
"t  c #737176",
"y  c #76767B",
"u  c #877975",
"i  c #897A77",
"p  c #82757A",
"a  c #84787B",
"s  c #8C7D7E",
"d  c #8C807D",
"f  c #90817F",
"g  c #657782",
"h  c #637985",
"j  c #6B7983",
"k  c #717A81",
"l  c #787D86",
"z  c #827E80",
"x  c #79858D",
"c  c #7F8B94",
"v  c #838086",
"b  c #8D8285",
"n  c #84848B",
"m  c #948583",
"M  c #968884",
"N  c #938589",
"B  c #94888C",
"V  c #9B8C8C",
"C  c #828B90",
"Z  c #9A8E94",
"A  c #9E9195",
"S  c #9F929A",
"D  c #A2928F",
"F  c #A08E91",
"G  c #A39594",
"H  c #A99497",
"J  c #A69895",
"K  c #A2959C",
"L  c #A5999C",
"P  c #AC9D9D",
"I  c #B19D9D",
"U  c #AEA29E",
"Y  c #B3A49E",
"T  c #B9A79B",
"R  c #B6A89F",
"E  c #B9AA9E",
"W  c #949EA8",
"Q  c #A799A0",
"!  c #A99DA4",
"~  c #9CA1AA",
"^  c #AEA1A5",
"/  c #ADA0A9",
"(  c #B3A3A4",
")  c #B9A5A5",
"_  c #B6A9A6",
"`  c #BAACA2",
"'  c #B3A6AD",
"]  c #B6A9AB",
"[  c #BAADAC",
"{  c #BEB1AE",
"}  c #B7AAB2",
"|  c #BBAEB4",
" . c #BEB2B6",
".. c #BCB6BD",
"X. c #C0AFAD",
"o. c #C4B4AC",
"O. c #CCB7AB",
"+. c #CABAAC",
"@. c #C4B4B4",
"#. c #C6B9B6",
"$. c #CAB9B4",
"%. c #C4B5BA",
"&. c #C9B6B9",
"*. c #C6B9BC",
"=. c #CBBCBB",
"-. c #D1BEB1",
";. c #D1BFBA",
":. c #CFC0BB",
">. c #D5C3B6",
",. c #D8C3B6",
"<. c #D4C4BE",
"1. c #DDCABD",
"2. c #BFBBC1",
"3. c #C5B9C2",
"4. c #CBBDC2",
"5. c #CEC1C4",
"6. c #C3C1C9",
"7. c #CEC3CC",
"8. c #D2C3C3",
"9. c #D8C6C5",
"0. c #D7C8C4",
"q. c #DBCBC4",
"w. c #D3C5CB",
"e. c #D5C9CB",
"r. c #DBCCCC",
"t. c #DFD0C7",
"y. c #DED1CF",
"u. c #D6CBD3",
"i. c #DACDD3",
"p. c #D7CDD9",
"a. c #D9CFD9",
"s. c #DDD0D5",
"d. c #DDD3DD",
"f. c #E2D1C6",
"g. c #E4D3CD",
"h. c #E3D4D3",
"j. c #E8D4D4",
"k. c #E7D9D7",
"l. c #E2D5DA",
"z. c #E5D9DC",
"x. c #EBDBDB",
"c. c #F0DEDC",
"v. c #EFE0DF",
"b. c #F2E1DF",
"n. c #DFD5E1",
"m. c #E5DAE1",
"M. c #EBDDE2",
"N. c #EEE1E4",
"B. c #EDE2EC",
"V. c #F3E3E3",
"C. c #F7E9E6",
"Z. c #FAEBE6",
"A. c #F3E5E9",
"S. c #F5E9ED",
"D. c #FAECED",
"F. c #F3E7F0",
"G. c #F5EAF2",
"H. c #FAEEF4",
"J. c #FEF3F4",
"K. c #FDF9F5",
"L. c #FFF6F8",
"P. c #FFFCFD",
/* pixels */
"                                                                                                  ",
"                                                                        a p                       ",
"                                                                      N ( ' } K 6                 ",
"                                                                      L @.5.u.w.%.Z 6             ",
"                                                                    V ] 4.u.d.l.s.e.! z           ",
"                                                                    L X.w.i.z.m.M.m.u.| p z       ",
"                                                                  V [ =.r.l.M.M.M.M.M.m.3.Z ,     ",
"                                                                  ^ *.e.l.M.A.N.N.A.A.M.m.4.Z 6   ",
"                                                                L :.i.z.V.S.S.V.V.V.A.B.m.l.4.G   ",
"                                                                #.h.b.Z.D.D.S.N.A.A.M.M.M.z.8.' B ",
"                                                              G g.v.Z.J.L.L.J.C.V.V.A.M.m.i.4.@.Z ",
"                                                              $.h.b.D.L.P.P.P.J.c.V.G.B.m.u.%.F   ",
"                                                            P 0.c.Z.H.P.P.P.P.K.Z.V.G.M.i.4.I     ",
"                                                          ( 8.x.S.J.J.P.P.P.K.Z.Z.V.M.u.4.)       ",
"                                                          %.z.A.J.L.L.P.P.P.P.K.L.S.l.%.z         ",
"                                                        [ i.A.D.J.K.L.P.P.P.P.P.L.S.9.P           ",
"                                                      B i.M.G.J.L.J.P.P.K.P.P.P.H.x.8.            ",
"                                              & @   0 K m.G.J.J.J.J.L.P.J.J.L.H.M.s.              ",
"                                            O % $ % = b u.G.H.J.J.L.L.L.J.D.A.z.                  ",
"                                              o 3 > & 7 K M.L.J.J.L.L.J.H.z.=.                    ",
"                                              q 3 e 1 > t  .S.J.J.D.D.D.M.8.                      ",
"                                            V ' x w e h 4 n | l.V.V.C.c.j.                        ",
"                                          J @.8...e 5 n g e z K ] @.y.X.                          ",
"                                        ^ @.8.r.s.~ j l r e 2 > a f V                             ",
"                                      ( #.8.0.h.z.z.6.~ c k h % & O =                             ",
"                                  A ] *.8.0.q.g.x.A.G.B.d.d.2.e o X                               ",
"                              s P ] @.8.e.q.f.g.x.V.A.A.A.x.0.C * .                               ",
"                            m G ] #.=.0.0.g.h.k.x.v.v.V.x.r.+.y                                   ",
"                          d D ( #.:.5.0.t.h.z.x.c.V.x.k.h.@.                                      ",
"                      u f G Y o.*.:.<.q.h.k.x.b.M.M.k.g.8.                                        ",
"                  0 u M J U { #.=.<.0.y.z.M.x.x.x.j.9.&.                                          ",
"                : i M J ( { =.5.e.r.s.h.x.x.x.z.h.0.)                                             ",
"            # ; u V U _ { =.5.r.d.z.z.x.k.x.x.h.9.$.                                              ",
"          - : i V Y {  .*.:.e.y.z.x.N.h.g.g.f.1.$.                                                ",
"      8 9 u m D Y { @.:.:.<.y.y.k.x.k.g.1.1.>.O.D                                                 ",
"  6 d G U ^ _ ` { #.$.:.<.<.q.t.f.1.q.1.,.>.O.T                                                   ",
"  B { :.#.$.o.o.{ +.{ +.+.+.>.+.>.>.<.<.;.$.)                                                     ",
"  K ( ` ` ` E T E E R E { o.$.:.9.q.r.e.;.o.                                                      ",
"    A P _ ] ] { #.:. .:.:.:.8.0.r.i.s.4.)                                                         ",
"    Z /  .#.=.6.6.5.w.w.u.i.s.s.s.i.i.4.)                                                         ",
"      ! ' 3.4.w.w.e.i.a.i.y.i.s.i.r.4.(                                                           ",
"        ! } 7.p.a.u.i.i.i.a.i.r.r.4.&.                                                            ",
"        S !  .p.d.d.a.u.w.p.r.e.w.@.                                                              ",
"          ! ' 3.a.d.d.a.u.w.5.5.*.I                                                               ",
"            ' | 3.u.n.n.p.7.4.*.H                                                                 ",
"              ! } 3.p.d.p.7.%.(                                                                   ",
"                / | 3.7.w.w.|                                                                     ",
"                  Q ' ' 3.%.                                                                      ",
"                                                                                                  "
};
