/* XPM */
static char *_2c2253d35af40a38205fe2e8ac762edx8tVDzCRJKMpHixT[] = {
/* columns rows colors chars-per-pixel */
"46 46 152 2 ",
"   c None",
".  c #54626B",
"X  c #5E6E78",
"o  c #676B70",
"O  c #6C7176",
"+  c #61747D",
"@  c #7B7C7B",
"#  c #727F82",
"$  c #757C81",
"%  c #6F848F",
"&  c #7E8083",
"*  c #77888E",
"=  c #789098",
"-  c #84888D",
";  c #91918F",
":  c #838990",
">  c #8B9197",
",  c #809099",
"<  c #949294",
"1  c #979795",
"2  c #A0A09E",
"3  c #8199A3",
"4  c #8C9EA7",
"5  c #859FA9",
"6  c #969CA3",
"7  c #9CA3AC",
"8  c #8BA6B0",
"9  c #8DABB4",
"0  c #8DA8BF",
"q  c #92B1BB",
"w  c #95B3BB",
"e  c #94B4BD",
"r  c #A3A3A2",
"t  c #A4A4A1",
"y  c #B1B1AE",
"u  c #A7ADB4",
"i  c #B2B7B9",
"p  c #BDBEBB",
"a  c #BEBFBE",
"s  c #C0C0BF",
"d  c #C1C2BF",
"f  c #8EAAC1",
"g  c #90ACC2",
"h  c #9CB0C1",
"j  c #94B8C5",
"k  c #AFBEC6",
"l  c #A2C6C6",
"z  c #BDC2C6",
"x  c #A2C6D2",
"c  c #A3C7D3",
"v  c #A5C9D5",
"b  c #A6CBD7",
"n  c #A6CFD4",
"m  c #A5C0D8",
"M  c #A5C1D9",
"N  c #A8CDD9",
"B  c #A9CFDA",
"V  c #B3C3D4",
"C  c #ABD1DC",
"Z  c #B6DCDB",
"A  c #B7E0DD",
"S  c #BAE0DC",
"D  c #B9E2DE",
"F  c #B9E4DF",
"G  c #B6CFE5",
"H  c #B9CEE3",
"J  c #AED5E1",
"K  c #ACD7E1",
"L  c #BAD3E4",
"P  c #BDD1E5",
"I  c #BCD5E5",
"U  c #BFD7E7",
"Y  c #B0D9E5",
"T  c #B1DAE5",
"R  c #B0D9E6",
"E  c #B2DAE6",
"W  c #B3DAE6",
"Q  c #BAD3E9",
"!  c #B3DEE8",
"~  c #B3DFE8",
"^  c #BAE6E0",
"/  c #BBE6E1",
"(  c #BCE4E0",
")  c #BCE7E2",
"_  c #BCE7E3",
"`  c #BBE9E4",
"'  c #B3E0E8",
"]  c #B4E0E8",
"[  c #B4E0E9",
"{  c #BAE6ED",
"}  c #BBE8ED",
"|  c #BBE9ED",
" . c #BDE8EE",
".. c #BCE9EE",
"X. c #C2C3C1",
"o. c #C3C4C1",
"O. c #C4C4C1",
"+. c #C5C5C2",
"@. c #C4C5C3",
"#. c #C0C5C6",
"$. c #C6C6C5",
"%. c #C7C7C6",
"&. c #C8C8C5",
"*. c #C1C4C9",
"=. c #C6C9C9",
"-. c #D5D5D2",
";. c #D5D6D3",
":. c #D6D7D4",
">. c #D7D8D5",
",. c #D8D8D6",
"<. c #D8D9D7",
"1. c #DADAD7",
"2. c #D9D9D8",
"3. c #DADAD8",
"4. c #DEDEDC",
"5. c #EEE5DE",
"6. c #C0D3E7",
"7. c #C3D6E9",
"8. c #C3D9E8",
"9. c #DEDFE4",
"0. c #C3EEE5",
"q. c #D2F7EF",
"w. c #D1E1F0",
"e. c #D8EEFA",
"r. c #CBF3F4",
"t. c #CCF5F5",
"y. c #CEF7F6",
"u. c #CFF8F7",
"i. c #DFF0FB",
"p. c #D0F9F8",
"a. c #D0F8F9",
"s. c #D2F8FA",
"d. c #E9E7E9",
"f. c #EFEDEA",
"g. c #EEECED",
"h. c #EFECED",
"j. c #F1EFEF",
"k. c #E3EFF4",
"l. c #E2F0FA",
"z. c #EBF5FC",
"x. c #EAFEF9",
"c. c #F2F2F1",
"v. c #F4F2F1",
"b. c #F6F4F3",
"n. c #F8F6F5",
"m. c #FAF8F7",
"M. c #F3FAFE",
"N. c #F5FBFE",
"B. c #F6FBFF",
"V. c #F6FCFF",
"C. c #FBF9F8",
"Z. c #FBFAF9",
/* pixels */
"                                                                                            ",
"                                                                                            ",
"                                                                                            ",
"                                                                                            ",
"                                                                                            ",
"                                                                                            ",
"                                                                                            ",
"                                                                                            ",
"                                                                                            ",
"                                                                                            ",
"                                                                                            ",
"                                                                                            ",
"                                                                                            ",
"                                                                                            ",
"                                                                                            ",
"                                                        o                                   ",
"                                                  e l *.g.                                  ",
"                                                q C E ( f.                                  ",
"                                              9 C Y ' ..q.<                                 ",
"                                            8 N Y ' ..r.Z                                   ",
"                                          5 v E [ ..t.A                                     ",
"                                        3 v E [ ..t.D                                       ",
"                                      = x E ' ..p.^                                         ",
"                                    % x W [ | p.^                                           ",
"                                  + j K ! } p.^                                             ",
"                                + w n K { p._                                               ",
"                =.@.          . 0 H D _ s._                                                 ",
"                  ,.-.        f Q 7.B.x.0.                                                  ",
"                    ,.:.    0 M 6.V.e.P #                                                   ",
"                      >.#.h m P B.e.I *                                                     ",
"                        z V H M.l.8.,                                                       ",
"                          9.w.z.8.4                                                         ",
"                        u C.c.k.k                                                           ",
"                      7 C.    3.:.                                                          ",
"                    6 m.        3.:.                                                        ",
"                  > n.            3.:.                                                      ",
"                : b.;               @.:.                                                    ",
"              $ v.r                     2                                                   ",
"  a X.p     O j.y                                                                           ",
"  & d d d - h.d                                                                             ",
"    o.d i d.4.                                                                              ",
"      o.%.5.d                                                                               ",
"        +.d d d                                                                             ",
"          %.d d @                                                                           ",
"            1 +.t                                                                           ",
"                                                                                            "
};
