/* XPM */
static char *_7f4056ad92743bfc364773ada110cc2Lokan7AJy4vPYQ7d[] = {
/* columns rows colors chars-per-pixel */
"64 64 20 1 ",
"  c black",
". c #202020",
"X c #2C2C2C",
"o c gray22",
"O c #000040",
"+ c #00004C",
"@ c #000058",
"# c #000064",
"$ c #000070",
"% c #00007C",
"& c gray33",
"* c #000088",
"= c #000098",
"- c #0000A4",
"; c #0000B0",
": c #0000BC",
"> c #0000D4",
", c #0000FC",
"< c #2024FC",
"1 c #4040FC",
/* pixels */
"$$$$$$$$$$$$$$$$$$$$$$$$$$$oo$$$$$$$$$$$$$oo$$$$$$$$$$$$o$$$$$oo",
"=====================***%$$ .========*%%%% .========%%#@ ----*  ",
"===%=$==*$**$***$$=%$$$$#@+ .==**%==*%%%%+ .=;-;-;;;;;*$ --%*%  ",
"=*$%***$$=*=@**@%$$**$$#@@+ .=*==%**$%$=#+ .=-;;=;:-;=*$ ==-*+  ",
"=%=#*#*$$$*%%$@%#*@$#@@+++@ .=*%%**$%$#+@+ .=;-=:;-=*%%# %#$$+  ",
"=%$===@$$$=***%%$#@$$$##@+@ .==%==$###%@++ .=;=:<:=;=*#$ *%#@+  ",
"=**--===*===**#%+$@$$$$#+++ .===%%$#%%%#@+ .=-;=;;==-$$# *$+++  ",
"==*=--=*$@==*%%$###@$$#@+@@ .==%$%%%$%$@++ .=-;-=---=$#$ *@+@+  ",
"=*$*==%*$*##%%%@@$%+###@@++ .=*%%#%==$#$+@ .=-:--%%==*#@        ",
"=%%%=$$$==#+@+#+%#$#@##@+++ .=%%#$$%%#@+@+ .=-;=-%%%*%@+ *---=  ",
"*$%=%%#*==##+++#@$#@#$$#+@+ .*%$##%%#$@+@+ .=-;;=%%%%$@@ =-*-%  ",
"*%*$$=%@$+$++++@@%OO+$$$+++ .*%$###%+#+#++ .=-;;-=%%*$@@ *=%*@  ",
"*$*$@%%$@$@$@+#+#+OOO+##+@+ .*$%##@@#@+@@+ .=-;;=**$%#++ *=*#+  ",
"**$$$#@++@$@#@@++++OO++++++ .%%##@++++@+@+ .=-=;%*%*$$+@ %%$@#  ",
"*$*@@#@$@#++@+@@@@+++++++++ .%@%@@++++++++ .*;-;;%=%#@++ $#@++  ",
"                            .              .*;-=**%%@+@+        ",
";-=-=====-====..............................*-;*;$*$$@++ #::::::",
"-=*=;-=%==$=*$ ..@$*$**==$$++OO...+#**=%$##.*;-;**:*$#@+ %::>;::",
"-**%==%$**$$** .@$****=-==%@##@+..#*=$%$%$@ **=-;**$$#+@ =:>,>--",
"=*--**$$$*$$$$ .***-=--$%*@#@+@#..$=$#@$@+$ %--;-*%$@+@@ =::>-::",
"%*-;-$$**$*+$$ O-*-%-=$+#$#++@#$ .%%=$##+#@ %;--##%$#@@+ -::-=--",
"=%*--$*$$@@#$$ O==--=-*#$#+@@@+# .#=%%@+$++ $===###$#+++ ;::-:==",
"%$%*=*$$*@#$++ +=--=:*%$#@@@+##+ .##@++@+@@ $*==%###@+++ -:-;-==",
"=%*$*$**$#$@$+ #*==%$%%##$#@#++# ..         $**;$$###+@+ -:-=*;;",
"-*%-****$$#+++ #*=%$*%#+##*#$#$# ==;;==**% .**=**$##+@++ =::-:::",
"=%$%--@$*%%#+@ #*%$-=*$#$%:-%#@# =;;=*%#%$ .*;-=*$$#@@@+ =:-:;--",
"*$%=--=*$%%#+@ +%%$*-**%%*-%$$#$ =*==%#=#@ .=;-;=*%#@+@@ =:::-==",
"*-**=-=@$###++ O$$%-1-%=*$*%#%@$ ==*$%=%## .=-=;=*$#@@#+ %:::---",
"%%==*==@#+@+++ O$$%*-==*==%*$+$+ ===*=##%# .==*=%*%$+++@ %:-::==",
"*%===*$#@+@OO+  $%*=%=%=-#-#+@#+ =:-=%#@@@ .=*=%$$$$++++ %::;---",
"%*%==$@@+++OO@  @$$*$*=*=-#+@$++ =*-=%###@ .=*;=*%##+#++ %::-*==",
"%%$%%$@@#$$@+@ .+@$$$$*=#$*#$+++ =**=$@@#+ .==-;=%#@$$++ %:-:-**",
"%=*#$$#@#$$@++ ..O+++++++++++++O =*=@#$#@+ .==--==*$@$@+ %:-:%%%",
"=*%%$@@+@##@++ ...               ==%$@@@++ .=;;=****%@++ %::%*%%",
"**%$$$$+@O++@+ ..@@@@@@###@@@@+..=%%#++@++ .=;;=*$**%$#+ #:-:***",
"%%$#$$$+OOO+++ ..@#$**$*%%$$@@+ .==%$@+@++ .=*;*;$#%$#@+ #:-**%%",
"%@#$@$$+OOOO@+ ..@$**%*$#%##%#+ .==$*#@+++ .===-**##@@@+ #--*%%%",
"*$@$@#+@O+OO++ ..@*%#**#%#+#*## .==*=$#@++ .=;=**#++#+++ #-*%*%%",
"%*%#$#+++OOO++ ..@*$*$$*#%@+##+ .=*=*%$#@@ .=;*=*#@++#++ #-***%%",
"*%$@#$#++@++@@ ..@%**$#@+@++@++ .==%$$#@@+ .*-**$$#@@+++ #***$**",
"               ..@*%$@++@++###+ .**$$@#+@+ .*=*$+$++@+++ .      ",
".....++##%%%$#@++.              .*=$@##++@ .%$+@+##@++++ .####..",
".*=-;;;;;;;;;;;;---==**$.........**$#@++++ .%$@@++++@+#+ .#+$+..",
".=;;;;;-=-;===;==--$%%%@ .++@@#..*$%#+++++ ..            .+++#..",
".=;--=--;;;*=;;;-=%-@$+@ .+*%-$ .%$%@#@+@@ .....................",
".;;;--;;**=;;*-%=**$%@+@ .+=-*+ .$$@#@++++ ..;;;;;;;;;;;;;---=..",
".;=-=---***;=%%=$***$#++ .@--=% ..         ..;;;;--==---==-;=%  ",
".;;-*%--=**=;;===$**$++@ .@=%#+ .%*=-===*%%..;--;-=::=-=*;;**%  ",
".;;*=;-%=---$==,=*@#@+@+ .#*#++ .*=-=*-*-## .;;--=;;:$$*%$*#%$  ",
".;;;;=%;%-$$=%==*$**$@@@ .#%@+@ .=--=%$%#+@ .;-;-=--=$$$*=$$$#  ",
".;=;*==;-*$$$==#$*$$@+$+ ..     .*=%%$#+@++ .;;->>=*=*$$=%%*@+  ",
".;-**;>;=%=$$==%%$*##@++ ........           .;-=>>:;-=*-$#**@+  ",
".;=;=>1>**=*%$%%%%$OO+@+ .***=======***%%##..;-=*::=*$*$%**$@+  ",
".;-;-;>;=$==@@@$%%#OOO++ .*=*%=%*==%*=$$##+ .;==-*%*%=%$%=%#@+  ",
".;=;---%%%$#@@@@###+OO++ .**%%%===-*%%%@#++ .;;=**%%$%***%#@++  ",
".=;--=$$*=**$@@@@#@+$+++ .=%==-*=*===*%$#+@ .;-=*$$$#$%*$@+@#+  ",
".;=;-%%-$==*#$+#$$+@+++@ .==%=*%$%*==*%$+@@ .;-;-=%#++$#++OO@+  ",
".;=;=*%$@%==*#@+$$$+@+@+ .*%=*%=$%***%$#@++ .;;==$$*++@#++OOO+  ",
".-=%%%=@%@%**##@$$$++#++ .*=%$$$%#$$%$#@+++ .-*=*;*$$@#+#++OO+  ",
".-=#@%@=$$*+@++@+$$++@@+ .%*=$#$@$#$###+@@+ .-;=$*##$+@+++@@@+  ",
".==%%@%+@+@#@#@#++++++++ .%*%$#@##@+#++@@++ .=$*$%*$#@+@+@++++  ",
".=*$%*######@@@@@@@@@@@@ .%$######@@@@@@#@#..=*$%$##@@@@@@@@@@..",
"o$$$$$$$$$$$$$$$$$$$$$$$oo$$$$$$$$$$$$$$$$$oo$$$$$$$$$$$$$$$$$XX",
"&&&&&&&&&&&&&&&&&&&&&&&&&&&&&&&&&&&&&&&&&&&&&&&&&&&&&&&&&&&&&&&&"
};
