/* XPM */
static char *_f2f2a5d8b3147ff906de11fc605a8c55wTJ1RuXAcOyYSnx[] = {
/* columns rows colors chars-per-pixel */
"128 128 64 1 ",
"  c #24180F",
". c #251A11",
"X c #291E15",
"o c #2B2116",
"O c #2D241A",
"+ c #2F281A",
"@ c #31261D",
"# c #33291E",
"$ c #362B21",
"% c #3A2D22",
"& c #3D3125",
"* c #3F3328",
"= c #413327",
"- c #44352A",
"; c #48372B",
": c #45392C",
"> c #4B3B2D",
", c #503E2F",
"< c #4D3D31",
"1 c #513F30",
"2 c #4D412D",
"3 c #53442F",
"4 c #54492F",
"5 c #5A4E2F",
"6 c #4F4133",
"7 c #554332",
"8 c #5B4633",
"9 c #564931",
"0 c #5E4934",
"q c #5E4A38",
"w c #5E5032",
"e c #634C35",
"r c #694F35",
"t c #644E38",
"y c #684F38",
"u c #655235",
"i c #6C5236",
"p c #6D5A35",
"a c #675039",
"s c #6B5239",
"d c #735535",
"f c #785735",
"g c #765936",
"h c #7B5A35",
"j c #725639",
"k c #755939",
"l c #7A5B3A",
"z c #756234",
"x c #7B6236",
"c c #7D613B",
"v c #7D6140",
"b c #825D35",
"n c #825E39",
"m c #856137",
"M c #886237",
"N c #85613A",
"B c #89633B",
"V c #85693A",
"C c #8A683E",
"Z c #805F41",
"A c #836441",
"S c #886540",
"D c #806840",
"F c #896941",
/* pixels */
"OOOO$@@%%%$&&=&%&%&%%%$%@@X..... .oO@@@##@#######&%==-;<=;,;;;;;>;;---&&::-;;==%###O#OoOo XoooO@#@@$OOOOO@@OOOoXOO@@@$$@@$$$@OOO",
"jjgldsjhxchhhbxhhllpjpsjpiyueqq905iidddpgjdjfdfdffffdbbbbbMbbbbbbbbbbMNMbbNNBMNNbbbbfbflljjirre0tyteaytayytq7$ .$1eiffflkdhhhldj",
"bbhllxlcxxNlmNNNNNmmNxbbbhbhhmbhbbbbbbmbbbMbbbbbhhhbhhhgbbbbbbbbNhNhxhhhbllhlbhhbbhbffdfdddgfffdjggghhhbNBSASaX.:egbbbbnbbhhbbbb",
"euatwwq0ww9799778779778700eeuuiirrrereee0e008e0ee85797773,,8,838798888888888q88e8858e888080e0eereuuysaasssjANsoX:18088817777800r",
"q7q88q88q9q98q117878888888888800888888388888888818187785r,33388,00800088e88e00008ee8e088080eeeeeeeeeeqe0q7qvZtXX-117778877713377",
"88qqwqqqqqqutqqt000ee0eee0eree0ee0r8e8ee0005000er0r8eeee3,r,r,rreeee8eeeeeeeeeerrrrrrrrrrrrrrrrreeeeeeetqqqvZqXX:7871q1800eee08e",
"ataappapsassytyttteeerrrrrridrireerrrrrrrrerrrerrrrrrrrrrrr8883rerrrrrrrrerrrrrurrdrdiidiiidddriirreetttqqqvAsXX-771qeeeeereerer",
"ssssspppppppsyyysssssiididiiriddddfidfiddiiddddidrrre8errbrrrrr5eiirrurirrrirdrddddfiddfiddiddddddsssyaatqqvAtXX:1qqqeeyrrrrriid",
"jjjggzpspsaattqq8q8t8eeeeeeeereeeeeeee0eee55rprrrere5rr5r5rrfrrfrrrrrdprrrrrrriddddidiriiirrieeeeyyyattatqqjvqX.>778eereeryididd",
"yeauauqwwqqayyyyyyyyyyyyrdddiriiddiidrddrdfdffdddddfddfffdrrrr5rrr5rrr5rrrrrrrirrrrrrdiddidisiiee877<<<<<<<6<<X.-6<<<><1118eeeer",
"88qysssjjlljkjllkkllflkjfdfhhhbfhhhffdfhbffffffffdbfffdfffbbf5rbddrrrrdrirddrddddrfdddiidrisiiisjjjlvjsqq6666<. O*=;<17881111111",
"lllklcxxclllklljllllllllfddflhhbhbhbbbffffhhbfbhfdfddfddfffbfff5rdddrrrrdrdrddrddddididdjriiiiijpjjjjjkjsatvvqO :q8qeyyijdfdffff",
"kllkclxxzlkkvkvllljjklllkkjjjsjffzhdhfbbbbbMbMbbbbbfbffdrfbffr5frrrdrrrrirididrdddddddjdddiisspjjjjsjjsytqqvvtO.:qqqtyyyddddffdf",
"jlllxxzzlsjsssjjkjllkblfhhlhlkfkffhbbbbbbbMbbmbMbbbbfbbffr5dfffffdrrddfriididddigfhddddjjdjdjsjjjjjjjjsytqqvvtO.:qqqteysjjrddddf",
"jyjggpjjlkkklkkkkkjjijdkjkjfffjidiffffffbbbbbbbxbbffffffbfff5rddfddrdrdddddddhffffhfhfgjdjdjjjsjkkkkkjjyaqqvAaO.*q7qqttyyeeerrid",
"yyypsssjjjjkkkkvkkkjjjjyjdfkkkjfdddfddfrfffbhhhfffbfbbfbbfffbfdffddffrdddddifdddgijijiirye0088887788q8qtqq6jvqX.:7qqtyyyjjjrrrrr",
"ssjjjjljklllljllZnlllhhlkjddbblffdfffdffffdffdffbhbbbbbhhbbhhhddfdfffffffbfbfffffffzffddddjpisiryyy0<>-=**&->*. -qqqtysjjjyjjirr",
"jjjjlljjvkkklljnnnnnnNnnbflljlgfbbfffdffdhhfbhfffhfhhhbhhfffhbhlddffzfffdfffhfbbbbbhbhhhflglldjjsyyklhjjstqsj1X -qqqtyjjijfjjfff",
"djjjjzlkjljjjjjjjjjnlhhbbffdfhhhbbbbnnbbhhhhhhhfgffhhhlfgffddffdffffpfffdfffbbbbbbhbbzhhddlddjjjdkjkjkkdssyvAy$ -tqqttyyyyjidfff",
"0eqqqawawq8ett8eeeeeiesissssjiiiifiddifdhffhhhhhfhffffffhfddddddfdffffffbffffbfbfbbfhffflfddfdddjdkhkhkfsstAZy$ $-*--;;<;<,,1181",
"eteewuqtwwwq8e1eeeeeeyeeeeerrrrriiriiiiipdffhhhfddffhhbbhfffffdffdfffdfddddrifbbhbbbbbhffdjdsidjjdddjfkkjsyvSy$.-8667qq18188eeee",
"riisppssssssyyyyetuurruiurreurrrrrriirirrerrriiddiipiirijdggdfffdddfpdfffbfbbrfbhhhhffffkdddfdiiirreeeeeeeqAne$.-711771tyrrryrrr",
"euipiisasssattteyeeeeeeeererierurririreriiidpiriiriidriueeurriiirdfdrr5drrddidrrrrrrrrrrrrrrryyiiyjryyee889jbe% -q1qqqqt0e8rrrre",
"etuayyyyatqaqeetteeiieeireeereerererrrerrrrrrrrririiirirrrerrrter55rrrrrrrrrrerrirrririrddjfkffsrte0071<<:--;=o -8771q1t0eeeeere",
"uyueeteyteette8q080q00eeeerrirrrrrrrreeeerrrrrrrrrrrrrrryeeeeeeyrrrrrererrrrrrrdrprrrrrririirsiddjjdjisiyyyfny% -88118880eeeeeer",
"yequeyyqeqtteetee0e00eeereeee0eeeeeeeeeereeerere0eeer00eee0eeee858r88eeeeeeeerrrrrrrrrrirrrrrrrrrrreirrsjyjZSj% -q8888eeereereer",
"00q9q00q808t8q88008q08888888888878881e1e8eeee0000000eeeee0eeeeee8re8eeereeeeeerrrerrrrrerereereeeeeerriiyinZSj% -88118q88e88eee8",
"eequ0000q0qq888t888e0e8ee0e88888e788e11e8188888800008888800q8t0eer8r00e0eeeeee0r8eereerrrrrrrrryrriiiissijfZSs$ -118888qe8e888ee",
"0090qq8q88787887q7870880808eee8e0e888e80e88e88e000808e78888880888888808e8888e88880e58ee08eee8ee8000ee0e0qqyyZ8X -818,18181818888",
"&=----:;<<<<<<<><:>:--==-===========-;<1,,,>,1,11111,,1;>><:;;;;;=;;;;;;;;;;>;;;;,,31>111111117171717<<:;-%%$%. X%**===%==%%%%==",
"#&##OO@@$OOO@O@@@$$$$$%%==;;;,--=$X.  XXO@@@@@@@@O@@@@@#%%%%-&&==%=%=%%#@$=$==%=%#@O@@O$$$@@$$$$$$$$$$$%$@@@$@o@$@%*$%==%%$@$$$$",
"bblfplgkjklkkkdsjjssjdbbbbMMbnbbnhy= X7dkfbfdjjdjjfkdydkggllgllfbddfdbfdfffdrriiddfdfdjfffffjjddjdhhbbhbfnjbbjbrnbbZbbbbbZbbbbbb",
"MNMmbnNBNnNNNNNNNNmNNmNBNBBNBnBBBBb7..eBBMMbbNNNNbhlljgghghhhlllhffffbbbbbbbbbbbbbMbbbMMbbMbMMMMCCBCCCCBbbbbbbbbbMbMbbbMMbMMMMMM",
"piiiipjjjjjkllzlllkjjjspssasyyjjlSN7 X1hbdssieeye00eeeqequee0eee005r58888r5rrrrr8rrrrrrrrrrrr8rre8e8e88errfrrddr885fbffidrrdiiid",
"0eeeeereeeeqeqqe0eeee0008q00t88eelN<..1ie0888888q8qq88q88q900000888880088,,3,3,88333,,38,33r338888e8885er383388388,8r8r88588000e",
"00eqeeeeetetueeeee0eqqe0000080800lN<.X>ee0080000ee0eeq000eqq00885ee8ee80eer8e8e,888888,838,r3r835888088838r3888rr8r8re58ere8e0e5",
"uueeerrrrerreiuiirrrrrreeee000088kb>.X;000000eeeyeeeeyyreueeteee0e005e0000eeereer8888888r,8835588e0eree85r8rr5r5rrrrrrrfrdrrrirr",
"ddrdrriijdidgjdjjyirssrrieeee0080kb- o>008000teeyrisyrryrirerrirrrrrrrerreeerrrerrrr8rrrrrrdrrrrrrrerrrrrrrrrrrrrrrrrrrdrdrdiiid",
"iiiiidrrddldgfdlfddddddyireeee800jb-.o>e000eyeteyytyrrysssesssirrrdrrdrdrdirrrrrrfrrrrrrrrrffrdrrdrdrrrrrrrrrrrrrrrddrrrrrrrrddi",
"didddddriruddidddddddridjiiee00q0lh= .&>1111>>>11778801e80eeeeeerreerrrrrrrreeee88888r88rr8rrdrdrrdrddddrddrddrdrrrrrrrdrdrddddf",
"rerrrrdirdiiirydidffdffdddrrreeeedh= .%-==-;>118errrriyrridrrdrrrrrrrr5r5r5rr5eerrr8rr8r5rrr5rrrrrrrrrrd5rdrdrrrrrrrrrrrrerrr8re",
"8eereeee0eeeeeeeeererrrrreeee0000ee% .;18118eeeeiissddddddiddidddfdddfdfdddrdrrrrrrrrrrrf5rrrrrrddrrrrrrrrrrrr5rre5r5r5505808rr8",
"ddddfidrirrrssissdfffhhhfjdt8<>>---X X;70888eeeryssssddfdddiddffddddfdddfpdprfrdddrrrrrrfr5ffrfdfffddrprrrrrrrr5rrrrrrrrrrddddfd",
"ddddddddidisiiidjyssdfdfffhbhjsete8@ X-78000eeeerrrryiyiiirdddfdfdddddrdrrrrrrrrrrrrrdrr5dfdfffdrfrdddddddrdrddrrrrdrrdrrrrdddrd",
"dddrddddidjiddiddddddddffdddrretefj$..-700erridrjsdyddddddddddfdffbbbbbfbffbbbbfffdfbbfffpffhfdzfprrdrrrrrrdrdrddrrdrprrpdrprrdr",
"dddddddiddddyjdddsddddkfhjjddiyeyhb=..=10eyedddjfdddddfdfffbbffbbbbbbbbbbbhhfbbfhffdfffffffphfffhfffffdfdfddfrpdddrddpfdffffffff",
"fffffgljdddjsdddffddkdddfddriry0rbh= .-,1188eeeryrryryrjrdrdididrrrrrrrdrrrrrr5ddppdrdddddfddffffffzppdfffzzfzffffffffdffffhffff",
"bbbbbhhbhhhldjisdsssdijdddjdjieerbh=  @==-=-;11170errrrrirrdiidfdddpdddrdpfpffddrfffrddddddpffddhhhfdffzfffbhhbfhfbbhhfhzfhbhbbb",
"bhbhbhbhbhllddjijddsirsrdrsrryeysnb* .%1erridfffbffffbbbbbbbbbbbbhbhbbfffhffbbbhfffbfpdffdpdfffddpigfhhgfpgghghhhhbhhhhbhbhbhbbb",
"hhhhfhffkfdjjdddiisddjdjsidrrrternn= X%7yrrsjffjkfbbnbbbbbbbbbbbbbbbbbbbbbffffhbfffhfpffffddffdddiiidipghhxhhhzhzhhfhhhhhhhhhhhh",
"ffffhhzddjkjdjjjjdsyjiyysdsiryteenb:..%7yijdkfhffbhnbbbbbbbbbbbbfbbbfffffffddddpdrrrr5drrr5r5rrrrrdiuiiirrrriiiipdfdddddfpdfdfff",
"hbzhhhhhfkklhlldkfjdiijiisieeee08lh;.X$1edjfbffkffkffbbbhhhhbbfffbhddddddfzddprfdddddrrdrddrdrdriidggfggfffiddddfdfhzhhhhhhhhhxh",
"bhhhhhhbhhhjjjkkjsjdjisreieye00q8lb>..%,eyydkbhhfffffbfffhfddfddpddrrfpdfrdrrrrrprrrrrrudrddddddigddgffhhxhgljdddfffpfggfghhhhhh",
"idddpiiiisssyaaarisueyetteq008977jh7..$,780eyrsryryrerrrriirrrirrrdrrrdr5rrrrrrrrrrrrerrr5rr5ddfdgdggghhggghlhgjpdfpdpgdpdddiidd",
"iddiddiiusuasaassjjjkkjsrtq8117<7ed,..@%%==-;1118e8eeeryrididddrddrrfrdrrf5rd55frreerrrrrrd5rrdruidgffgjdjddddjpriiiiiiduddddidi",
"ddgggffhljjgkjjspsjkddkkljsyyq7>--,#..#,870eyrsisdddffffdfffdfddffdddpdrrffdrff5rrrrrrrrrrrrd5r5ruuuuduiiipiiiiiiiuriridiuipiidd",
"idiisspippsipaappssysesassiiyetqtte<X $<qqqttusjddjfffldddddddddddrddfdfrdrdrdrddrrdryijspiiuiuiruueeaeeeuuiuueeeuaiuyeijrispiii",
"urrrsssjppjjsasjsyatuyyysssytyt0quhtX.@<tq8qtysrsddffffhdjffdddiffdddrrffdffdffrdfidirsrrieyyiyerryeeee0aee0eeqeq000q0eeueeeiyrr",
"didissapppppsppassssaayayttttqq7qtNsO.$<tqt0tyyyffdfhhbfdgffddddffrrdrrdrdfdrffddfdddrjdiyseyiusuuueaeeueeeayeyapyesiueaisisspsi",
"jsdjpjpspppjsppwsaiaatttttt000qq8qnsO.@<787188qtyrrsidsrerueeeee5reeeeee5r5rrrr5ereryerisrsetteeeettetyutrsuisssaeyiassusssssjid",
"ryyyyssspuppaswvyyuaatetqtt0q88q7qns@.X%*-><<1778q000ee088e8008080e88e8r8rr83r888888q800eeqee0qqq00qqqeuuueuyteueaeauyaaassuyyid",
"isiyuissspuaaappaausttuqtqqqqqq8q0Nk@.$1tttqtttqeeeeeeeeeeeeeeeeeeeee8e888rrr8rre8ee00000088q00q00qqqqqq0qqqqt9ettetttaassaasyrr",
"etettauaaspsupupuaaqqtqqqqqqqq8qqqhl$.@6jyayyytteeereeeeeeeeeeee08e88000r85888888e8000888878879q909qq98900q90q9qw0qqqqqqttqutqye",
"0q0q0wuwwqwwwwwwuwwqwqq8qq98qqqqqqnl$.@6yattasyyyyyjsddddirdiirrrrrrerrr8rr8rr8reeeeee0t00t008898q88q8qqqqeeqqqeqqqq897q7qqqq000",
"ettttyuuuuuppwpauuuuaq95w9qqq998q9paO +3111,1881888e8801888888888e8885e8881e11e18888,8,,,,11377676676666666677q97q7q7q6q7qqqqqqa",
"><<<<1<<2222:22**:2:::<22>::-222:6:*o o=111<11111111111,,,,,,,,;;;;;;,;;,;==;===%==%=%=@=%==#&&&*&&&&&&&********:*:*::>:::6*:6<6",
"$%$OOO#O+++++OOO++OO+OoOO+OOOO+#+++OoOO+%$@@@$@@%@%@$@$$@@$@$@@@oo..X@#o@$==%==%$%%$=%===-==---&&*&&%&$$*##$##@@+##+OOOO#$$*%%$$",
"1;<<<<>>22622666244642444999999q9798890et8t11,>,1,1118818118,8,,,% +>eireridddffrdddddfdjfijjjjjpjuiassssjssaaattaataq66<<::26::",
"ffbdkjssispppispzzzupppzpppgzzllxplsgmxlfhhljfbbbbfnnbbnbnbbbbdbb;.#rfiffhffffbfbfdbfbbbfjffjjdhxhlncNlcclcllclcvvvcjxxklcjlxxkg",
"fdfjkpjzpipipzpzpzklgzzzzclxxxchxxllcxccllvlnZjnljjjjffjjfjfnnnbb;o#;888,8,81e888e8r8e8eerrreeee00q0utqeqqqwaeauppaqwuuuassspppp",
"58885915994ww09wwu9u0uwpuuuuuyaspsaayyyytyytqy8q8t0818888800eefMf= #,8,,,,8,,8,88,8,,8,8,111177797q9878988q997qq5w9qqw9q9qw5559q",
"e888588q899997q98q9w555wwuuuuueuuusayett0q008y8881888888888888ybr= #,8,,,8188,888,88,,,,,,811177777779q77777q7794999q9wqq9w00050",
"18,17978979488884885q9959w0ww0etuuytqteqqqy8q8qqe8te8ee1ee8e88rbr= #,,,,,,,,8,0888,,88881181777888q8q88q98879889w9w90997798q9880",
"8ee8e000q84e588458773859080w00w9q9qq0q88qq88888qe888e1ee8e888,88,#.%,,;,,888e0e888r888e8eeeee000qe0quqqw0tqqqqqqw0w90qqqauqqe05e",
"r8eee00000555575377739333334374479881118111,1,,<>,<<><;;;;-;;=;;;o #,,,,,80e0e0er88rr8ereeeeeeyeueuqueuqaqq9qttqytuueqqawatueeer",
"rrreeueutewuuu0008880780550e0qwwqq88tt88888888181188e1et8888788br% o=;;,,83880888888888,1177888e800q0qqq90qq7qq8qq0000wwqwww00ee",
"eeeeuue0eeqeuwuuteeyqeeirrreerdrrtytyyttyeqyyqeyq0qetererryre8rbr# @,;;;;,,,,,8888888e8errerrryrpsjjjjjjjjjsjjsssssssapssuiuueee",
"isiiipipiyyiupuueyyeeryerreeee58rtrtytyyeeq88888e0088tet8yy8e8yMd# =,,,8,88,e0errrrrdrdrddiriddfddjgggkkjkjjjjjjsjjjsssappssgpdd",
"riiiiippiiuiiuuueeyeeyeere0reerrtreeettyyyyryyyrrtrrt8eerere88sbd# %,880rerrrrrrrrrrrdddiiddddddirssiuiiaaaussssyjjjssaapueipuur",
"iriuuuppiipzpiiiiyyrreeyrrrrdrrrissytyyyyryyyeyyyryyyrrteeeeeesnd% =,0808rrdrrdddrddrdffbbffffddfgldjkkjkjjjjssjjjjsssppppirpiid",
"irruieiuiiipiiuirrrrrrrrrrrrrrrryiiijjryyjfyjryrrryrrjrrryee88rbi#.=,e1eerryrrrrrdfdrffffffffiffffnfnnZfnjjZnyjjjjjsssjkskspsprd",
"ddddiiipuesiuurerrrr,rr8rrrrrfrfiirrrjjryyrrjyydrrryrrryryy8e8rbi# %,eeryrrrifffdddrrfddfiffddfffffnjfjnfnjjyZjZkjjjjjkkskjzkkdd",
"dirrrrpuiureiererrrrrr8rrrrrrrrriirrr8eryeeyyryryeeeyy8yq8,,,,,8,o X%=;;118088rerrerrrrrrirerrrryyyyryssyyyyyyyyyyyssysyassjdddd",
"rireuwuupurruererr3rrrrrrrrfrrrryrrirr8rryyyyryyyyyyryyyyrye888r1= o=;;;;,,18reeeerereerrrrrrrrrisjrijssjyjjyfyjjjjjjjjyaaaaerrr",
"ddiiiiiirrrereeir5r3rr3rrrrrrr5rrrrfirrrfyyybddjyfyffsdffddyrdynf= #;88e0rrrrffffdddrfrdrifdfffnffhknjffjjjjyfjjjjsjvsjjjjjjdddd",
"fiijjpjpjiyjiidirrrffrfffrrrfrffffffbbfrfnfyybffjnnrjdsjyyrreyrbf= #,0800rryrrrryrrrrrrrfffffddffjjkfjjjjZnjZjjjjjvjjjjjjpggdfdf",
"ddffddgpprjrrdirrrrfrrrr8rrfrfrfjfdiddfryffyyjfffyffjjdrfjryeeend=.#;8088rrrrrrrrrrrrrfryiryyyyysdijryyyyjyjjjjfkjjjsjjvjjdgfhfd",
"ddpgjdppijrjdprrrrff3ffrffbrrrrfffffddbdrrfbfyfffbrrjjjdyrr8eqrnd= #,e8eryrrrrjrrfddfdfbfffjfnfdfkddnjnbZjfZjjZjjkkkvjjjskdddrrd",
"ddpiidrrsirirrrdfffrrffrrffrrfffrfbffffffrffrrffjrrsrjssyeye8eenf= #,eeeeerrriffdffffffbfrrbdfbffhbhhllfnjjZfZZnjjfjjsjlkjgjpddf",
"ffhddddfkdkrrrid,f,frrfrrfrfrfrfrrffrrrrrrffrrrfjjjrrryyyyeq000re# &,e818eeeerrrrffdfbrrfbrbjbfffflfllllnjnjfyjjljlZljllkljigffh",
"fdfzddfffkdrrrirrrr,rrr,rrr,,ffrrrrrrrrre8888888181,1111>;-=%=%=&o &1r1ee1eererreerrrrrrrrrbfjrbjdjddkkjjjfjjjyyjjjjsjdijssjddff",
"r0wurrrdrrrrrrerrfrffrrrrfrf,r,rr,r8r8rrrerrrrr88etrsysssyyt0tqjr= %1eee8e8erriirrrrrrrrrrbryrbrdjdssysyyyyyyyrryttt8tttatetrrrr",
"5rewrerrrrr8errrrr,rrrrr,rr,rr,ffrrrrrfrrrrrrrrrijfffffjfssyyetbb= o;;;;;;;;;,188eeeeerrryyee8eeeeeeee0e8y8888eqq8881rte08080008",
"r5wuer80e8e88880f,f;,r,rrr,rr,r,,r,rrr8rr8rrrrrryyrryyyyyyeeq00nb=.O;,,,,,818081888888ee88y88yyyeeeerytyyyyyyyryyeqteeeeeeererre",
"eu5r580re8ee0088rr,rr,rrrrfrrrrr8rrr88r88r88rrreyteteeyttqt8q00bb; #,1e180e0rrrrrrrrrrrrrrrrryrryyyret0t8q8yyqyy80eqeee88er0r08e",
"4004888888000008,r,r,r;r;rr,r,r,rrr,8r8r88r888881e1e81881888888lb; =1r8eee0rrerrryyerrrrrrdyyrryyyyeyyyeyyyqy88q8888888888808008",
"50e888588e88888,88,8,888888888r388880088rrr818eeeeeeeee8q8q8q7qln7 =1088888eeeeeeeeeeeeeeeeeeeyeeeeeeeeee808t808te888e88e88e88e8",
"008588e178,78,1,,888818,888e883r0er000888888eeree8e08888878878elB0.;1e8018ee88eeeeeeeeeeeteeeeee8e881et80ee88e08e88ee88ee8888ee8",
"50558581711,,,,,,,,8881e88888888e8888e88r38388881888e1187q77878ln0.=7r00eee88ee0e1eeeeeeeeyee8eete8tet1e888ee0eyeyeeeeeretee8888",
"7338883111,>;;;,,,,,,e11,,,,,8,,,8778,88,83re5e80881181177qqqq8aj1.%1e88818781871,,,,,7,,,11111888e881e8000088811881e11,111888,8",
"%%&#@###$@OO@@$$$$%$$$##@@@o#@@$$$%%%==-;;;;;;-;>>;;<;;><:<:<::*%O X@%%$%%$$###$=#=#$$$$%$%%####$$%$%%%$%%%$%%%$%%$$$%$$%=%=$%%%",
"2*2&#@X..$=;:-=-===;;,1e888rrrrreee877;;,,,,,,67<7771q<<<;<76<7777777778t8eyrddiiiiiieeeyyrteere88881qq1880qe88et8eee8ee88,,;;;;",
"xxxxzg4OX1jbnbbbbbbMbbMMbbbbMMMMBbBMNMBMMMMbbbMMBnBBCnZSNNnCAcBBBBnBCbBBBCnSMMMMnbMMbbfbbbbnbbbbnlhnnbnnNnBBnnbBnnnMnnnMbnMMMMbM",
"MVVVNVm=X7hBBBNNMMMMMbbbbbbbbbbbbbbBBBBBMMbbffjjssrjkbnZANccAvNclvkkjjlkkjdjiddfffffdflfffffhhfbklfnflbnnBBBBnBnnSCCnCCCBBBBMMMM",
"hcccvFx:o>eisaeuauuuueqee0eeeeuriruuiiueuuee00e8eee00e0q80000008t0qq80003e888e88ee,88,888388,0,,77817788888585e800e00eeyjjjsjjkk",
"8w5qkFV: 20qt00t0eeqq00eereeee0eeq0eeeee0e0ue0rreeeueeeeeeuq088800eee0eeeererre0ee00e88e880008888880q880e08e581e584888888888e88t",
"awwqsFN:.2ue000yyeeeueuureeruueuauyeuueuue00e0u5eeeuesueeaeeq008000ererrrerr8r5eeeeerere8e00e00000eeeyeeeeeeeee0eee0e000r0eeeett",
"taqqySx=X>00e00teqqu0q0qeeeeeqeeeeeeeeeeereruruieeiiiisisiiuueeeyteyeeeeree5rrereeeeeeeeeereeereyeteeeeeeeee0eeee80ee0e0eerettet",
"qqq0tAx=X,0tt00tueuaaeuaisisuiiiriiriiisiipdidiipdddjiipupuureeee0050eer5rrrrrrrrrr5eree5e00058488888977,,3,,777177777880eeertre",
">2667kp%o,8ttt00tqeet0eeeeuiisspijpjpjiipisriiiiiiiidddjdsdiiiuirrrrruiidrrddrdddddddddfpffdfdhhjdjdddjiiiiueee8771111<<<;;;;;;;",
"uwq4>72+O,8tet0teueaieqeeeeeeaeiryiiiiipiiiirprrirriupijjjddjddpiirrrudipdrfdfffdffhdfddffhdfhhhlhlgdjjddidjddjdgfdldddjrdjdkfss",
"uewaacj&o79000000q0eeeuyaeiiiiriprpipjidpiigdpffdlfgfhgdlffhfgffhddhhggfbhfbbhbbhbbffbhfhdddhfhddflfhhhhfliijdipiijjijisrsdriyrr",
"080qqZk*X78ttt0yeseiiiiidipjddpjpijidigddhhhffhzhflghhgghhfzhffpifhffpfpfffhbbbbbbbbbbbbbbbbbhhbhhhhbhbhhhggiidjiriiiriraaeyeeee",
"yetttZl&X<77778t0eeerrijdddggffffgfhlxhbmhhxhhhhmhbnhhhmhhhhhhhfhhhzfpffffffzfhbhfhhbbhhhhhfhbbbbbbhhhhhhhhhddpdjpiisrsrsiiysiyy",
"tytq8Zk&.-:;<778e0ee0ruijididgdjjgglffhxbbmmbbmbmbbxhMhhxhhhhhfhbhhhffffzfffffhfhzhhddhhhbbbhhbbbbbbbhhhbhhhhdggdgkjpjsdiysiieee",
"ee0qtZk*X770qeigljdgdlfffghghghhhhgzhxhhbxmhbhxbhmbhbxhhfhfffddffddifrrprpffddzffhfdfhhhhhhhhhhphhhbbmbhhhhhfldgggfjjjdjjpdsisiy",
"euq0qvk*X7qqqyslfjdflidggggfxfhhhghggfghhbhhhhxhhbxbbhhhxhhfhdddfhhfddhffhfffzfbbhhbbbbbbhhbbbbbhhhhhbhhghhhlgdfjglddjjpdssjssie",
"0q09qkj*Xq67ttssjdrddijfflgfhhghgghhhhxmbbmmbmbbxhhhhxbmbbbbhhbhbhhhfzhfbzfhfffbdfhbbbhfhfffffffhfhfddhffppdpiureeryeeeeeee88000",
";::--<<@X78qqysssjijfkjlgddlgghghhlxmmhhbhhfzihffhhhghhhzhhhhbbbbhbffhhhhbfbhfhbfbbbhfhbbhbhffdpiippprriirrre005887888878800t077",
"jpsstaq$Xq7qyyytiipiddidjdiggdgdggdduiijpdpddgfgfddpfgggfghfhhfhdddidddfhdfhffbhdfhfdhbbhhhhzffdfdddfdddpddiddddprprisijijddjdpj",
"siiyaAl%X:><18qq0000ereerreeuurisijpjgggfggfhgjjhhfhhfghffidffdffdrddrrdd5dddrddddiriiirrurrriiurirrprrriiuiidfijiididjpjddjjdji",
"iriiaDl&X<>:<<1780eeeerrruiieueiuiiiipjdddjiiiiiiidurprurrrrrure8eerrrrrdrrdrrf5rieddiiidiirrrriiiiriddrudiirrrruerururriiiriiiu",
"iiiaiSc&X77qattayassieiiueiiiiiuiiiiiissippiiueewrrrrur55rrrurreeerr5eee5rrfrrr8irerdrriirrerrreripirdpirddrirriireere0reerrridr",
"sssrsCh-X78qaayssiuiisysiireeeee0yeueeeueueuuurrrw5reeeeeree555r5e58eerer5r5rr8reeeeeerrrrirurerurrpirrirrrrirurrureeeiiidjjjidi",
"isriiSh-X18qyysssisipsyruiiiiyeiiieeeeeeueeeeeee88773885888,583re8888r85r85r5r8reeeee88ere0ree5errrrrrrureereeeereeeeeeeisisijpr",
"tyariNb-X18qttyyiaiiiidiiyiiieiereeee0ee000088818878381,8888888r008r80r858888888000088858300ee8e0e0e50e58e8858ee8ee50eeiereissss",
"7,771es%.:8188080888008008888800e80888778808885888777,8,8,8838888e58r58r88r88er5e888,,7738388779377777,,1111,17787,,77771,1,117,",
"3>>>;-%X O*<:;;;;>;>;><<;;-;;;-;>>>,7>1<><>;;;=====%=%%#@@o@oo$$$%=;;;;,;;;;;==$####=#%%==-;>1,7,3,>,,,,e111,111,77111>,<>>>>3,,"
};
