/* XPM */
static char *_678836bbe304934fb7ac3948f490917if3OUWhAwVH3mrWB[] = {
/* columns rows colors chars-per-pixel */
"64 64 52 1 ",
"  c black",
". c #1B1B1B",
"X c gray11",
"o c #1D1D1D",
"O c #1E1E1E",
"+ c gray12",
"@ c #002604",
"# c #002605",
"$ c #002705",
"% c #002905",
"& c #002E05",
"* c #002D06",
"= c #003005",
"- c #003007",
"; c #003406",
": c #003507",
"> c #003707",
", c #003807",
"< c #003E07",
"1 c #003C08",
"2 c #003F09",
"3 c #202020",
"4 c #2C2C2C",
"5 c #353535",
"6 c gray21",
"7 c gray22",
"8 c #004308",
"9 c #004509",
"0 c #004609",
"q c #004C09",
"w c #004D09",
"e c #004E0A",
"r c #00530A",
"t c #00530B",
"y c #00540B",
"u c #00550B",
"i c #005C0C",
"p c #005E0C",
"a c #005F0C",
"s c #00650D",
"d c #00660C",
"f c #00680E",
"g c #006D0E",
"h c #006F0E",
"j c #00770F",
"k c #007610",
"l c gray33",
"z c #008511",
"x c #009E15",
"c c #00A011",
"v c #00A014",
"b c #00B438",
/* pixels */
"8000800808080080808808000896500800800000007700000000000070899977",
"aaaaaaaaaaaaaaasaaaaatyyw00 Xaaaaaaaatqwww 3aaasaaaaee8: fffft 3",
"aaaws8aat0tt0ttt08aw999011* Oaattwssywwwt* 3akfgskggggt8 gfqte  ",
"at0wttt80ata:tt:w00yt991;:* Xataawtt0w0a1: 3afggagkfgsy0 safy:  ",
"awa1t1t800tww0:w1r:81;:***: Oatwett0e01::* 3ahsskgfayww0 e299*  ",
"sw8aaa;880atyyww0,:00q,<:*: Xaswaa0111w::* 3ahakckahsy10 te21;  ",
"sttsssasyaiatt8w*8;000w,*** Xaaaew08eew8:: 3askahhaas008 y9:**  ",
"aitsffat0:aatww08:1:80::*:: Xaaw0eee0w0:*: 3ashsafffa010 y;;1:  ",
"at0taawt0t11www::0w*11<::%* Oarwe1wsa010*: 3asksgeeppu2>        ",
"awqqa000aa1*:*1*w:01:1<:*:* Oatw100ww8::1; 3sshafeeeue,- yffga  ",
"t0wsww8taa11***<:81:1001;;* Otr081ee10:::* 3asfhieeee9>> sftfe  ",
"twt00aw:0*0****::w%@*000*** Otw0111w*1:1:: 3sfkhfpetu9>> yaet1  ",
"t0y0:ww0:0:0:*<*<*@@%*<8*:* 3t0w18::<::::* 3afkfpuu9e9*- ypt8;  ",
"yt000<:**:0:1::****%@*%%;** Xtw,<::**;:*:: 3afsfeueu99;> ee9:1  ",
"y0y::<:0:<**:*::::*****:*:* Ow,w:,**;:*::* 3yhfhkepe9:-* 921*;  ",
"                            O              3ykfatuee,->;        ",
"hsasaaasasaaaiO...X..XOO.O.O.OO..33333333333tsgtg9u99:;- 2kkkkk0",
"fatshsawsa8at8 ..:0y0rtaa00**@@O.3*8ytae0183tkfguuku92>- ekkzkkw",
"fyywaaw0tt80rt .:0ryrrsdssw:1<:*332ta9e9e81 yyafgtt999-, pkzxzse",
"aysftt800t0000 Otryssss8wr:8,*,<3.9a98:8::9 qgfgguu9,-,, pkkzgk0",
"wtsjs00tt0t*00 @drswfa0*<0<**119 3wwa889:2: egff9,e92>>- skkfss1",
"swtss0t00::<80 @asssasr<01*::::1 31ae0::9*: 0fsa22992--- jkkfka8",
"w0wrat00r1<0** :affajrw00::1:11: 3811;:::1: 9yaae222>--- fkskfa0",
"awr0r0tt0<0:0* ,raaw0ww<101:1**2 33         9ttg99222->- fksatg0",
"sywstyyy001:;& 8rsw0yw1*10r19292 ssfhaayte 3yyaty922;:;* sjjsjj8",
"aw0wff:0yww1*: 1rw0ssy010wkfe9:2 ahhatw8e9 3ykfay992:1:* akskjs0",
"y0wsffsy0ww1*: *ww0yfytwwtfw9929 ayaae1a21 3agfgpye9:;:1 sjjkfs1",
"ysttasa:q118*: %w0wfxfwstqrw2e:9 ast0eae22 3afakay92>>2; wjjkfs0",
"ywaataa:1*::** %00qtssaysawy0:9; aaaya11e2 3aaypeyy9*;*: wjfjja1",
"yeaaayw1:::%@=  0wtswawaf1f1*:8* skfse0::1 3ayp99999:*;* rjjjsf8",
"eyesa0::**;%@:  :00t0tarss8:10** aygfe182: 3aykpte92*8** wkjfya:",
"ee0ew01;<00;*, O*10000ta10y10;;* atta9::9; 3aafgpe9:00:: wkfkfr,",
"ept9999>800:** 33$>--;*;------** aya11q1:* 3ppgfpft9,9,- tkfkqe:",
"ptqe9::-:18::: 333               aae0:1:;* 3pkgptttte,-- ekktte1",
"yyq9999-:%*::: 33;,,>>1292,,,,-33aee1:::*: 3pgkpt9yye92- 2kfktt$",
"ee99q99;%%@:** 33:29uu9tee99,,- 3aae8:::*: 3pugtk99e92,- 2kgttt*",
"e199:99*%@*@:* 33:9ttet92e22e2- 3aa0y11::* 3pppftt82::>- 1fgtew%",
"y9:9:2*1%:@*:* 331yt9yy9e2*2u22 3aata01:*: 3pgpty,**9:-- 8fttte%",
"tye299;*;**@:* 33:y9y99t2e,-22- 3ataye011: 3pgufy2::*2;- 1ftyye%",
"ye9:292**:*::1 331eyt922->--,-- 3aae000::: 3tguue99::**- 8tay0t%",
"               33:te91;*2*-222- 3at0918*:; 3upu9;9*::**: 3      ",
"33333;;21qeew1:*:3              3ya8:21;;: 3t9>-*22:::** 310923 ",
"3yaggggggkggggkggffaaty9333333333yt92:*:-- 3e9>>--:*::2; 31*9;3 ",
"3akgkgggaskaaagaaff9tee1 3--,,233y9t2;**-- 33            3:**23 ",
"3agffaffkggtpgkggpeg;9:: 3;tef9 3e0e:0::,, 33333333333333333333 ",
"3kggffggttsggtgepyt9e:;1 3*pfu- 390:1:*:-- 33ggkgkggggkgggfffp3 ",
"3gafaffftttgpetp9tyy99** 3:ffpe 33         33ggggfgipffgppggpe  ",
"3gkfyefffytpgkppp9yy9*;: 32pe9- 3eyfgaaauee33kgfkfpkkpfptkkyye  ",
"3kgtshsqasff0aaxay19:;,- 39y9*- 3upfptguf22 3ggffpggk00twqt1t0  ",
"3ggggawkef00aeaay9yy9:,, 32e>;> 3pfgpq9e2*1 3gfgfpfga000ta0w01  ",
"3kagyaakft000aa19y991;9- 33     3upee92-:;; 3kggzzptat98aeey1*  ",
"3ggytgzgaea00aate9y22:** 33333333           3gfpzzkgsftg01ty::  ",
"3gagazbzytsye0eeee9$**,- 3yypppppaaauuuue2233ggptkkft9y0eyy0:*  ",
"3gfgfgzga0aa::10ee9$$*-- 3yayepeupaeup9922; 3gppfieteae0eae11:  ",
"3gakfsfewww1,::1222-*$-- 3yyeeepapgteee,2-* 3ggpttee0ettye11**  ",
"3agffs00tsyr01::>2>;9*-- 3peppgtaupppue92-, 3ggptq9910tt81;:8:  ",
"3gakfteg0aay10:199-,---, 3ppeptq9uuppue9->, 3ggggpe2--92*;$$:;  ",
"3gagate9:waay8:*q99-,-,- 3yepyea9eutue99>-- 3kkpp99y--,2;**$**  ",
"3fieeea:e1wtt28:999--9*- 3ype999e299e92:--; 3ftptky99,2-9--*$-  ",
"3fa9;e:a00t::*;1-99--,,- 3yya989,999222;>>- 3fgp9t299->-**>>>;  ",
"3aaee:e::;:11111*;--;*;* 3tye92122,-2-->:;* 3a9y9ey99:;>-,----  ",
"3at9yy222288:11:1:>>:1:1 3e9292229,,>>,,9:933ay9e929,,>>,,,,>,33",
"79999999990000089q999999779999999999999999q779999999999q99999944",
"lllllllllllllllllllllllllllllllllllllllllllllllllllllllllllllll7"
};
