/* XPM */
static char *result[] = {
/* columns rows colors chars-per-pixel */
"50 50 184 2 ",
"   c #1B1D1D",
".  c #1F211D",
"X  c #1E2223",
"o  c #262625",
"O  c #262A2C",
"+  c #2D2D2B",
"@  c #302E2D",
"#  c #33312E",
"$  c #252B30",
"%  c #2C3235",
"&  c #2D3438",
"*  c #2F383C",
"=  c #343332",
"-  c #32393D",
";  c #3D3C3A",
":  c #353939",
">  c #413F3E",
",  c #43423E",
"<  c #353D42",
"1  c #3B4548",
"2  c #454443",
"3  c #4B4945",
"4  c #4E4C49",
"5  c #474846",
"6  c #514F4C",
"7  c #53524E",
"8  c #58524A",
"9  c #434D52",
"0  c #4B575E",
"q  c #4A555A",
"w  c #555552",
"e  c #5B5955",
"r  c #5E5C58",
"t  c #585653",
"y  c #605E5A",
"u  c #65625D",
"i  c #485660",
"p  c #4D5D67",
"a  c #525F67",
"s  c #5C696E",
"d  c #53626B",
"f  c #5B6D79",
"g  c #666460",
"h  c #686661",
"j  c #6B6964",
"k  c #676B6C",
"l  c #716E69",
"z  c #76736D",
"x  c #7C786F",
"c  c #616C70",
"v  c #63737C",
"b  c #677075",
"n  c #7A7772",
"m  c #7D7A74",
"M  c #7D7D7A",
"N  c #727B7D",
"B  c #827D76",
"V  c #827F79",
"C  c #85817A",
"Z  c #88857E",
"A  c #667982",
"S  c #6B7A82",
"D  c #6B7E89",
"F  c #657680",
"G  c #6F828D",
"H  c #74868D",
"J  c #798589",
"K  c #6E8493",
"L  c #748997",
"P  c #768D9B",
"I  c #7A8C96",
"U  c #7F919B",
"Y  c #7F96A4",
"T  c #8E8A83",
"R  c #888680",
"E  c #938E86",
"W  c #928F89",
"Q  c #8C918F",
"!  c #96928B",
"~  c #9B958D",
"^  c #9F988F",
"/  c #969187",
"(  c #828F95",
")  c #8E9392",
"_  c #86989F",
"`  c #869399",
"'  c #9E9A92",
"]  c #949A99",
"[  c #959592",
"{  c #A39687",
"}  c #A39D95",
"|  c #A6A097",
" . c #AAA195",
".. c #A6A199",
"X. c #AAA59C",
"o. c #B4A99B",
"O. c #8497A3",
"+. c #8B9CA4",
"@. c #879CA7",
"#. c #919FA4",
"$. c #8EA2AC",
"%. c #93A5AD",
"&. c #9AA6AA",
"*. c #9EA9AC",
"=. c #94A0A5",
"-. c #8CA3B0",
";. c #94A6B2",
":. c #94A9B5",
">. c #9CAAB2",
",. c #9AAEBA",
"<. c #96ACB9",
"1. c #A5A9A7",
"2. c #AEA9A1",
"3. c #A9ACAB",
"4. c #A0A8A9",
"5. c #B2ADA4",
"6. c #BAB2A6",
"7. c #B5B2AB",
"8. c #BCB6AB",
"9. c #BEB8AF",
"0. c #B5B0A6",
"q. c #A3AEB2",
"w. c #A5B1B6",
"e. c #A6B4BC",
"r. c #ABB5BA",
"t. c #AEB6B9",
"y. c #B3B6B3",
"u. c #BEBBB3",
"i. c #B4BABC",
"p. c #B9BCBB",
"a. c #B4B8B6",
"s. c #C1B9AF",
"d. c #C2BCB2",
"f. c #C7C0B5",
"g. c #C5C2BC",
"h. c #CCC6BC",
"j. c #CEC9BE",
"k. c #CCC1B5",
"l. c #D1CABF",
"z. c #AFBFC9",
"x. c #B1BCC2",
"c. c #BBC2C4",
"v. c #B4C3CD",
"b. c #BFC9CF",
"n. c #B7C6D0",
"m. c #C4C7C5",
"M. c #CBCBC5",
"N. c #C6CCCC",
"B. c #CECECB",
"V. c #C8C6C2",
"C. c #D2CCC2",
"Z. c #D1CEC9",
"A. c #CFD1CC",
"S. c #D6D0C6",
"D. c #D5D3CB",
"F. c #DAD5CC",
"G. c #DDD9CF",
"H. c #C4CCD1",
"J. c #CBD2D3",
"K. c #C5D2DA",
"L. c #D4D6D3",
"P. c #DEDBD3",
"I. c #D4DBDD",
"U. c #DBDCD9",
"Y. c #D8D8D4",
"T. c #E2DACA",
"R. c #E2DDD4",
"E. c #E0DFD9",
"W. c #EBE3D5",
"Q. c #E4E4DE",
"!. c #EEE7DB",
"~. c #F0E7D8",
"^. c #F2EBDD",
"/. c #D2DEE3",
"(. c #DDE4E6",
"). c #E3E4E2",
"_. c #EAEAE6",
"`. c #E0E9EB",
"'. c #ECEEEC",
"]. c #E0E7EA",
"[. c #F4EDE2",
"{. c #EBF0EF",
"}. c #F1F0E7",
"|. c None",
/* pixels */
"|.|.|.|.|.|.|.|.|.|.|.|.|.|.|.|.|.|.|.|.|.|.|.|.|.|.|.|.|.|.|.|.|.|.|.|.|.|.|.|.$ a |.|.|.|.|.|.|.|.",
"|.|.|.|.|.|.|.|.|.|.|.|.|.|.|.|.|.|.|.|.|.|.|.|.|.|.|.|.|.|.|.|.|.|.|.|.|.|.|.|.f Y U |.|.|.|.|.|.|.",
"|.|.|.|.|.|.|.|.|.|.|.|.|.|.|.|.|.|.|.|.|.|.|.|.|.|.|.|.|.|.|.|.|.|.|.|.|.|.|.d P ,.n.K.b 2 |.|.|.|.",
"|.|.|.|.|.|.|.|.|.|.|.|.|.|.|.|.|.|.|.|.|.|.|.|.|.|.|.|.|.|.|.|.|.|.|.|.|.|.a P ,.v.K./.).].V.|.|.|.",
"|.|.|.|.|.|.|.|.|.|.|.|.|.|.|.|.|.|.|.|.|.|.|.|.|.|.|.|.|.|.|.|.|.|.|.|.|.p L <.v.K./.(.).).l.E |.|.",
"|.|.|.|.|.|.|.|.|.|.|.|.|.|.|.|.|.|.|.|.|.|.|.|.|.|.|.|.|.|.|.|.|.|.|.|.i K :.z.K./.(.'.).V.6.! = |.",
"|.|.|.|.|.|.|.|.|.|.|.|.|.|.|.|.|.|.|.|.|.|.|.|.|.|.|.|.|.|.|.|.|.|.|.q D :.z.K.(.`.{._.F.6.~ B = |.",
"|.|.|.|.|.|.|.|.|.|.|.|.|.|.|.|.|.|.|.|.|.|.|.|.|.|.|.|.|.|.|.|.|.|.9 v O.,.b./.(.{.'.F.8.{ m u + |.",
"|.|.|.|.|.|.|.|.|.|.|.|.|.|.|.|.|.|.|.|.|.|.|.|.|.|.|.|.|.|.|.|.|.9 S O.#.t.c.I.{.'.T.s.} B u 6 @ |.",
"|.|.|.|.|.|.|.|.|.|.|.|.|.|.|.|.|.|.|.|.|.|.|.|.|.|.|.|.|.|.|.  9 D O.+.r.i.m.A.R.R.d.} B u 6 = |.|.",
"|.|.|.|.|.|.|.|.|.|.|.|.|.|.|.|.|.|.|.|.|.|.|.|.|.|.|.|.|.|.|.0 G U ] x.t.N.m.M.g.9.| C u 8 ; |.|.|.",
"|.|.|.|.|.|.|.|.|.|.|.|.|.|.|.|.|.|.|.|.|.|.|.|.|.|.|.|.|.|.5 P ;.e.x.3.L.m.Z.u.2.~ C j 8 ; |.|.|.|.",
"|.|.|.|.|.|.|.|.|.|.|.|.|.|.|.|.|.|.|.|.|.|.|.|.|.|.|.|.|.+ S ;.w.c.I.I.p.Y.u.0.! B u t 2 |.|.|.|.|.",
"|.|.|.|.|.|.|.|.|.|.|.|.|.|.|.|.|.|.|.|.|.|.|.|.|.|.|.|.|.q +.>.p.L._.{.Q.7.d.~ C u w 2 |.|.|.|.|.|.",
"|.|.|.|.|.|.|.|.|.|.|.|.|.|.|.|.|.|.|.|.|.|.|.|.|.|.|.|.% H *.t.D.Q.^.[.!.l./ Z u e , |.|.|.|.|.|.|.",
"|.|.|.|.|.|.|.|.|.|.|.|.|.|.|.|.|.|.|.|.|.|.|.|.|.|.|.O f $.q.m.Q.~.[.W.S.s./ j y 4 . |.|.|.|.|.|.|.",
"|.|.|.|.|.|.|.|.|.|.|.|.|.|.|.|.|.|.|.|.|.|.|.|.|.|.|.0 @.x.n.U.W.^.W.l.8...B y 3 o |.|.|.|.|.|.|.|.",
"|.|.|.|.|.|.|.|.|.|.|.|.|.|.|.|.|.|.|.|.|.|.|.|.|.|.9 v M c.(.'.[.W.j.7.} C l w @ |.|.|.|.|.|.|.|.|.",
"|.|.|.|.|.|.|.|.|.|.|.|.|.|.|.|.|.|.|.|.|.|.|.|.|.9 L ;.>.T (.[.^.C.2.' M h w ; |.|.|.|.|.|.|.|.|.|.",
"|.|.|.|.|.|.|.|.|.|.|.|.|.|.|.|.|.|.|.|.|.|.|.|.1 G :.x.J.c.~ R.T.s.[ n g 4 : |.|.|.|.|.|.|.|.|.|.|.",
"|.|.|.|.|.|.|.|.|.|.|.|.|.|.|.|.|.|.|.|.|.|.|.- D ;.x.J.U.E.a.W o.~ m r 5 + |.|.|.|.|.|.|.|.|.|.|.|.",
"|.|.|.|.|.|.|.|.|.|.|.|.|.|.|.|.|.|.|.|.|.|.* A $.i.N.U.U.R.C.~ j z r ; |.|.|.|.|.|.|.|.|.|.|.|.|.|.",
"|.|.|.|.|.|.|.|.|.|.|.|.|.|.|.|.|.|.|.|.|.$ F $.e.N.Y.U.P.C.7.~ u 4 ; |.|.|.|.|.|.|.|.|.|.|.|.|.|.|.",
"|.|.|.|.|.|.|.|.|.|.|.|.|.|.|.|.|.|.|.|.% v @.e.c.L.P.R.l.7.~ m r = |.|.|.|.|.|.|.|.|.|.|.|.|.|.|.|.",
"|.|.|.|.|.|.|.|.|.|.|.|.|.|.|.|.|.|.|.& v +.w.c.L.P.G.l.8.^ m r > |.|.|.|.|.|.|.|.|.|.|.|.|.|.|.|.|.",
"|.|.|.|.|.|.|.|.|.|.|.|.|.|.|.|.|.|.& v @.w.c.D.P.P.M.8.^ m y > |.|.|.|.|.|.|.|.|.|.|.|.|.|.|.|.|.|.",
"|.|.|.|.|.|.|.|.|.|.|.|.|.|.|.|.|.- v @.w.p.B.Y.F.l.8.' m u , |.|.|.|.|.|.|.|.|.|.|.|.|.|.|.|.|.|.|.",
"|.|.|.|.|.|.|.|.|.|.|.|.|.|.|.|.- A +.w.p.M.F.F.M.8.| C u 2 |.|.|.|.|.|.|.|.|.|.|.|.|.|.|.|.|.|.|.|.",
"|.|.|.|.|.|.|.|.|.|.|.|.|.|.|.1 A +.>.a.M.D.F.l.u.} C g 5 |.|.|.|.|.|.|.|.|.|.|.|.|.|.|.|.|.|.|.|.|.",
"|.|.|.|.|.|.|.|.|.|.|.|.|.|.- A +.q.a.V.S.F.j.s...Z h 4 |.|.|.|.|.|.|.|.|.|.|.|.|.|.|.|.|.|.|.|.|.|.",
"|.|.|.|.|.|.|.|.|.|.|.|.|.* v +.*.a.g.S.C.j.d...R j 7 |.|.|.|.|.|.|.|.|.|.|.|.|.|.|.|.|.|.|.|.|.|.|.",
"|.|.|.|.|.|.|.|.|.|.|.|.% v _ *.y.u.S.l.V.d.X.T l t o |.|.|.|.|.|.|.|.|.|.|.|.|.|.|.|.|.|.|.|.|.|.|.",
"|.|.|.|.|.|.|.|.|.|.|.O s ` &.3.d.M.l.h.d.X.W z e @ |.|.|.|.|.|.|.|.|.|.|.|.|.|.|.|.|.|.|.|.|.|.|.|.",
"|.|.|.|.|.|.|.|.|.|.X d U &.3.u.d.C.k.u.2.W n r : |.|.|.|.|.|.|.|.|.|.|.|.|.|.|.|.|.|.|.|.|.|.|.|.|.",
"|.|.|.|.|.|.|.|.|.|.i I =.1.7.d.k.d.u.X.! m y > |.|.|.|.|.|.|.|.|.|.|.|.|.|.|.|.|.|.|.|.|.|.|.|.|.|.",
"|.|.|.|.|.|.|.|.|.5 H =.1.0.d.f.d.9...! m g 5 |.|.|.|.|.|.|.|.|.|.|.|.|.|.|.|.|.|.|.|.|.|.|.|.|.|.|.",
"|.|.|.|.|.|.|.|.- s ] 4.2.9.9.s.7...! m h 4 o |.|.|.|.|.|.|.|.|.|.|.|.|.|.|.|.|.|.|.|.|.|.|.|.|.|.|.",
"|.|.|.|.|.|.|.< G H R 2.8.8.s.5...! M h 6 + |.|.|.|.|.|.|.|.|.|.|.|.|.|.|.|.|.|.|.|.|.|.|.|.|.|.|.|.",
"|.|.|.|.|.|.% c %.q.W ! 8.8.X.| T M u 7 + |.|.|.|.|.|.|.|.|.|.|.|.|.|.|.|.|.|.|.|.|.|.|.|.|.|.|.|.|.",
"|.|.|.|.|.% s ( ] 7.g.^ ~ 2.} T m h 8 @ |.|.|.|.|.|.|.|.|.|.|.|.|.|.|.|.|.|.|.|.|.|.|.|.|.|.|.|.|.|.",
"|.|.|.|.% v ( ) !  .d.C.! V T m h 7 + |.|.|.|.|.|.|.|.|.|.|.|.|.|.|.|.|.|.|.|.|.|.|.|.|.|.|.|.|.|.|.",
"|.|.|.< v J ) ~ X. .o.7.5.B j r 7 + |.|.|.|.|.|.|.|.|.|.|.|.|.|.|.|.|.|.|.|.|.|.|.|.|.|.|.|.|.|.|.|.",
"|.|.* G N [ ! X.o.5.} E E B u 4 |.|.|.|.|.|.|.|.|.|.|.|.|.|.|.|.|.|.|.|.|.|.|.|.|.|.|.|.|.|.|.|.|.|.",
"|.|.w +.] C X.} 5.X.^ T l u w @ |.|.|.|.|.|.|.|.|.|.|.|.|.|.|.|.|.|.|.|.|.|.|.|.|.|.|.|.|.|.|.|.|.|.",
"|.|.O Q ^ 5.E 6.} } R z u 8 + |.|.|.|.|.|.|.|.|.|.|.|.|.|.|.|.|.|.|.|.|.|.|.|.|.|.|.|.|.|.|.|.|.|.|.",
"|.|.|.3 { o.6.E } C m r w = |.|.|.|.|.|.|.|.|.|.|.|.|.|.|.|.|.|.|.|.|.|.|.|.|.|.|.|.|.|.|.|.|.|.|.|.",
"|.|.|.|.8 { X...m m u w ; |.|.|.|.|.|.|.|.|.|.|.|.|.|.|.|.|.|.|.|.|.|.|.|.|.|.|.|.|.|.|.|.|.|.|.|.|.",
"|.|.|.|.|.3 E Z C h 8 2 |.|.|.|.|.|.|.|.|.|.|.|.|.|.|.|.|.|.|.|.|.|.|.|.|.|.|.|.|.|.|.|.|.|.|.|.|.|.",
"|.|.|.|.|.|.@ h h r 4 |.|.|.|.|.|.|.|.|.|.|.|.|.|.|.|.|.|.|.|.|.|.|.|.|.|.|.|.|.|.|.|.|.|.|.|.|.|.|.",
"|.|.|.|.|.|.|.|.= 2 |.|.|.|.|.|.|.|.|.|.|.|.|.|.|.|.|.|.|.|.|.|.|.|.|.|.|.|.|.|.|.|.|.|.|.|.|.|.|.|."
};
