/* XPM */
static char *result[] = {
/* columns rows colors chars-per-pixel */
"83 21 187 2 ",
"   c #1F2123",
".  c #212325",
"X  c #242629",
"o  c #26292B",
"O  c #2B2C2C",
"+  c #2A2827",
"@  c #312F2B",
"#  c #2E302E",
"$  c #34312E",
"%  c #38342F",
"&  c #2A2E31",
"*  c #2D3234",
"=  c #2F363A",
"-  c #333432",
";  c #3A3632",
":  c #3D3934",
">  c #34393E",
",  c #3D3B38",
"<  c #413C37",
"1  c #433E39",
"2  c #45413C",
"3  c #49443E",
"4  c #343D43",
"5  c #393F44",
"6  c #364046",
"7  c #3A434A",
"8  c #3E484F",
"9  c #374148",
"0  c #3E4B54",
"q  c #3C4751",
"w  c #454543",
"e  c #4B4741",
"r  c #4E4943",
"t  c #4F4D4A",
"y  c #524D46",
"u  c #534F49",
"i  c #55514C",
"p  c #5B534C",
"a  c #5F584F",
"s  c #565047",
"d  c #414D56",
"f  c #404F59",
"g  c #44535C",
"h  c #4E5557",
"j  c #565652",
"k  c #5A5651",
"l  c #5D5954",
"z  c #5B5C5C",
"x  c #555959",
"c  c #60574F",
"v  c #645B52",
"b  c #695F55",
"n  c #635F5A",
"m  c #5D605E",
"M  c #6C6256",
"N  c #64615B",
"B  c #6C645A",
"V  c #726657",
"C  c #736759",
"Z  c #75695B",
"A  c #796B5C",
"S  c #475561",
"D  c #485760",
"F  c #4A5964",
"G  c #4E5E6A",
"H  c #545F67",
"J  c #4F606D",
"K  c #51626D",
"L  c #596469",
"P  c #536571",
"I  c #576974",
"U  c #5A6A75",
"Y  c #5B6E7A",
"T  c #5E707D",
"R  c #666563",
"E  c #6B6761",
"W  c #6E6A64",
"Q  c #6E6D6A",
"!  c #756C62",
"~  c #7B6E62",
"^  c #7C7265",
"/  c #75726B",
"(  c #7C756B",
")  c #7E786D",
"_  c #67757F",
"`  c #7E7B74",
"'  c #70777A",
"]  c #837666",
"[  c #837769",
"{  c #83796D",
"}  c #887C6D",
"|  c #837D74",
" . c #8B7F73",
".. c #807F7B",
"X. c #8D8275",
"o. c #84827C",
"O. c #8C857B",
"+. c #89847B",
"@. c #94887A",
"#. c #617684",
"$. c #647986",
"%. c #657B89",
"&. c #697E8C",
"*. c #6B7983",
"=. c #6C818F",
"-. c #7E8788",
";. c #6E8493",
":. c #728795",
">. c #748A97",
",. c #748B9B",
"<. c #788E9C",
"1. c #77909E",
"2. c #7C93A2",
"3. c #7F98A7",
"4. c #838582",
"5. c #8D8A82",
"6. c #8C8E89",
"7. c #938C80",
"8. c #95938C",
"9. c #9A938B",
"0. c #9F998E",
"q. c #848C91",
"w. c #8E9392",
"e. c #8A969A",
"r. c #8F9A9C",
"t. c #929592",
"y. c #999791",
"u. c #949895",
"i. c #9B9B95",
"p. c #959D9C",
"a. c #9B9D9A",
"s. c #A5998B",
"d. c #A29788",
"f. c #A39E94",
"g. c #9CA19E",
"h. c #AAA49A",
"j. c #AAA39A",
"k. c #B1A494",
"l. c #B6AA9C",
"z. c #B4A799",
"x. c #8396A3",
"c. c #8399A5",
"v. c #8C9CA4",
"b. c #839CAB",
"n. c #8B9FAD",
"m. c #959FA2",
"M. c #87A0AF",
"N. c #89A1AE",
"B. c #95A1A4",
"V. c #9BA2A3",
"C. c #94A4AB",
"Z. c #9AA6AB",
"A. c #9CA8AE",
"S. c #87A1B0",
"D. c #8BA3B2",
"F. c #8FA8B6",
"G. c #92A5B2",
"H. c #96AAB5",
"J. c #9DABB3",
"K. c #96ABB9",
"L. c #99AEB9",
"P. c #9FB0B7",
"I. c #9EB0BD",
"U. c #A2A5A1",
"Y. c #A0A9AD",
"T. c #A8A9A6",
"R. c #B4ADA3",
"E. c #AFB0AB",
"W. c #B7B3AB",
"Q. c #B9B3A8",
"!. c #A4ADB1",
"~. c #A9AFB2",
"^. c #A9B3B6",
"/. c #A2B3BC",
"(. c #A5B1B7",
"). c #B5B6B3",
"_. c #BEBCB6",
"`. c #B3BABD",
"'. c #C0C2BE",
"]. c #ABBCC5",
"[. c #A7B8C3",
"{. c #B2BFC4",
"}. c #BBBFC0",
"|. c #BCC1C2",
" X c #BBC5CA",
".X c #B5C1C6",
"XX c None",
/* pixels */
"XXXXXXXX        o               . . . . . .     XXXXXXXXXXXXXXXXXXXXXXXXXXXXXXXXXXXXXXXXXXXXXXXXXXXXXXXXXXXXXXXXXXXXXXXXXXXXXXXXXXXXXXXXXXXXXXXXXXXXXXXXXXXXXXXXXXXXXX",
"XXXXXX.   o = = = = * = = * & * & & & & & O & O o X o XXXXXXXXXXXXXXXXXXXXXXXXXXXXXXXXXXXXXXXXXXXXXXXXXXXXXXXXXXXXXXXXXXXXXXXXXXXXXXXXXXXXXXXXXXXXXXXXXXXXXXXXXXXXXXXX",
"XXXX. . * S 0 g g g S S S S J J P g g g 0 F G d d S q 4 o & o o o X XXXXXXXXXXXXXXXXXXXXXXXXXXXXXXXXXXXXXXXXXXXXXXXXXXXXXXXXXXXXXXXXXXXXXXXXXXXXXXXXXXXXXXXXXXXXXXXXXX",
"XX  o 7 I #.#.#.#.#.%.#.#.#.%.=.#.#.$.#.#.#.<.,.&.#.Y P g 7 d > 7 d 7 9 9 > * 4 4 & & & & o o o o o X X   X o   X   .   .   . . .   .   . . . .       . . . . XXXXXXXX",
". o T <.=.;.,.,.,.,.2.,.2.3.3.3.=.<.<.>.,.H.H.G.n.n.c.:.#.P T *.I P P P K G K G G G G F G F F F F D D g g 0 0 g f f f 0 0 0 G d h 7 g g g 9 5 6 6 9 4 4 4 , X . . XXXX",
". q c.b.M.b.b.S.S.N.M.S.M.S.G.3.N.N.N.b.K.].[.[.[.[.I.c.;.,.G.:.1.:.;.:.;.;.;.&.&.;.&.;.&.=.&.%.&.%.%.%.%.%.%.%.$.#.$.#.#.#.$.#.U T #.T Y K K T T I U K H H j * X XXXX",
". L n.H.H.H.H.H.L.H.K.H.P.H.P.v.J.G.G.H./.{.]..X].].[.G.D.].K.c.S.S.S.S.S.S.S.S.S.b.S.S.b.b.b.b.b.3.b.3.3.3.3.3.2.3.3.1.3.x.G.v.:.<.:.:.>.<.<.2.>.:.2.w.W k k u o . XX",
"o -.B.p.B.B.m.B.Z.A.Z.A.A.A.Z.r.A.Z.C.J.`.|.|.|.{.}./.K.L..XG.H.I.K.I.H.H.H.K.L.K.K.K.K.L.L.K.K.K.K.L.K.L.K.K.K.H.K.H.K.K.H.].v.N.H.G.F.G.F.F.K.b.G.^.t.k u i i , . . ",
"* -.o.5.6.6.6.w.w.w.t.u.p.g.u.t.g.a.e.V.).|.'.'.|.|.!.Z.^. Xe.Z.A.J.V.g.i.p.p.p.B.V.B.B.V.B.Z.Z.Z.Y.Z.Y.A.A.J.J.J.J.!.J.P.]. Xv.J./.J.L.L./.P./.H./.|./ z h x x w X . ",
"# B ( ( ( ( ( [ ) o.o.+.o.8.+.O.5.5.o.8.Q.Q._.'._.W.u.w.E.).4.t.8.t.8.{ | o.| | { | | ^ ] ] [ { ....O.5.6.6.8.t.6.V.Z.Y.Y.`.~.e.A.^.Z.!.Y.~.^.J.A.`.|.Q q.' m N t O . ",
"+ < b M M B V V Z Z A ! ~ X.^ { / [ Z X.k.z.l.l.l.k.{ { j.R.W ( ( | @.} A V C C V Z C C Z Z A C A ~ ~ A ~ ] ] ~ ! 5.8.y.y._.T.o.a.j.i.a.i.j.T.u.g.).).4.T.o.N E k O   ",
". O p v v v v v N v v M M ( M ^ C Z v ( d.d.s.d.s.@.B B s.9.M V V Z X.] A V V V Z V Z V Z V Z A Z Z A Z Z Z A Z M ( (  . .R.O.( O.7.O.O.7.7.9.o.@.Q.j.` j.| N ! ! - . ",
". + 3 i s p p p p p p a a Z v N v b p C X.X.O.@.@.| b v +.O.i v v b [ [ C C V V V Z A C C A A C Z Z A A A A A C v C Z ~ ~ l.X.Z [ { ^ ^ } [ X.~ { k.8.| h.` n / / & . ",
". + 2 y y y y y y y s i s v a p k p y c ~ ( / / / ~ v p W ` y p p p B Z C B V V V Z C C A C C A Z A Z A A A A C c v b B B y./ v B ! M B ~ ! ^ b Z 0.9./ f./ l o.W $ . ",
"XXX $ e 3 y e y y y r y i i p r p y r p W W W E E E k y k Q r t s i a a v v p v c c c b v M b b v V V b b V M b a p p k c ..W i v b c v v n B k b O.7.Q o.E k ..x O . ",
"XX  O 2 3 1 3 3 3 3 3 3 r r s 2 y r r e k n n l v c i 3 e v y 3 2 3 3 e y r r y s y y s y y y y y s s s p i p p i i p i p W ! e p b u k k c n p p / o.l k v H ..u X . ",
"XX. @ % : % < < < < < < 1 1 r < 2 2 2 : 3 i i i t r e , : e t : < 1 < < < 1 < 1 2 1 2 2 2 2 2 3 3 1 3 3 3 3 3 y 3 3 r r y s N 3 y i r y y u s s t k ` z j x R E 2 . . ",
"XX. X @ $ $ @ $ $ $ % ; % : : : $ : : ; : 3 3 3 2 1 1 , $ $ 2 , @ $ $ $ $ $ $ - % $ % ; % ; ; ; : ; < < : < < < 1 1 : 2 3 2 i e < 2 2 1 2 3 3 3 1 3 W N k j x j & . XX",
"XX. . . + O $ @ @ O @ + @ @ @ O @ $ @ $ O - : : : ; - , * # * - $ O & * # $ - - ; - - - ; $ - - @ @ @ @ $ $ @ @ $ % % ; ; $ , w : ; : $ ; : ; : ; % r j j k j e . XXXX",
"XXXXXX. . X X X X X O X X X + O O O O O # o # O O O X X     . + . .         X X o o o O X X X O o X o + X X O O O + O + O O # : - $ O - @ O $ $ @ O $ 2 t w w X XXXXXX",
"XXXXXX. . . . . .   . .   .               . .   XXXXXXXXXXXXXXXXXXXXXXXXXXXXXXXXXXXXXXXXXXXXXXXXXXXX. XXXXXXXXXXXXXXXXXXXXXXXXX X   X & & o & o o O O * * O . XXXXXXXX"
};
