/* XPM */
static char *_25e2aee18774abdd842e2a84a53b793kkVzSdYNtHDlmInr[] = {
/* columns rows colors chars-per-pixel */
"30 30 14 1 ",
"  c None",
". c #17111A",
"X c #17111B",
"o c #372538",
"O c #472A37",
"+ c #492B38",
"@ c #512D37",
"# c #572F36",
"$ c #5F3136",
"% c #673435",
"& c #713735",
"* c #8C3F34",
"= c #AA5844",
"- c #B46C5B",
/* pixels */
"                              ",
"                              ",
"                    ..        ",
"                   .-=.       ",
"                   .=*.       ",
"                  .-*.XX..    ",
"                  .=*+..==.   ",
"                 .=*+%==**%.  ",
"                .=*+%=**..+.  ",
"               .=*+%***.XX.XX ",
"              .=*%.***.%.XXXX ",
"             .=*%.X.*.X.#. X  ",
"            .=*%.XX.*%.X.X    ",
"           .=*%.XXX .%+.XXX   ",
"          .=*%..XX  X..X X    ",
"         .=*%.XXX    XXXX     ",
"     ....=*%.XXX      XX      ",
"    .---=+%.XXX               ",
"   .-===**+.XX                ",
"  .-==***&*%.                 ",
"  .==*****&%.                 ",
"  .=******&%.X                ",
"  .**oo@**&+.X                ",
"  .**O+%*&*+.X                ",
"   .*+$$&*+.XX                ",
"   X.***%+.XXX                ",
"    X.....XXX                 ",
"     XXXXXXX                  ",
"      XXXXX                   ",
"                              "
};
