/* XPM */
static char *fa68c5b8371f46859c122a111f60d54bTQNPjQBVjEjEOeWA[] = {
/* columns rows colors chars-per-pixel */
"50 50 184 2 ",
"   c None",
".  c #253016",
"X  c #2D3619",
"o  c #29391E",
"O  c #353C14",
"+  c #30361E",
"@  c #363816",
"#  c #13252B",
"$  c #1A2D2D",
"%  c #152B29",
"&  c #192D33",
"*  c #1B2C39",
"=  c #172D32",
"-  c #1F3237",
";  c #24372F",
":  c #213336",
">  c #27373D",
",  c #28373F",
"<  c #223838",
"1  c #2B3A3D",
"2  c #323C3D",
"3  c #33433F",
"4  c #796E1D",
"5  c #5B5320",
"6  c #6B632C",
"7  c #706628",
"8  c #736B2A",
"9  c #777030",
"0  c #2E3B43",
"q  c #343F41",
"w  c #344243",
"e  c #8B7E2D",
"r  c #84752B",
"t  c #807334",
"y  c #C57E02",
"u  c #BC8B18",
"i  c #8C802C",
"p  c #96872F",
"a  c #9A8E2C",
"s  c #94892E",
"d  c #938532",
"f  c #9F8D33",
"g  c #A9932C",
"h  c #A6932F",
"j  c #A79331",
"k  c #A89632",
"l  c #AD9C35",
"z  c #B19C32",
"x  c #BBA337",
"c  c #C78703",
"v  c #CA8404",
"b  c #C68B03",
"n  c #CA8A04",
"m  c #C68A0B",
"M  c #CA8909",
"N  c #C6860C",
"B  c #D38B04",
"V  c #DE8F03",
"C  c #D48F09",
"Z  c #D78806",
"A  c #D59305",
"S  c #DE9303",
"D  c #D79A02",
"F  c #DE9B03",
"G  c #D89609",
"H  c #D3970D",
"J  c #C48911",
"K  c #C79F15",
"L  c #C99F12",
"P  c #C49E1C",
"I  c #C9921A",
"U  c #DA9D17",
"Y  c #E28F02",
"T  c #E19402",
"R  c #E69E03",
"E  c #E99E02",
"W  c #E29C0D",
"Q  c #F49F06",
"!  c #FB9F05",
"~  c #F59F08",
"^  c #FD9F09",
"/  c #DEA20E",
"(  c #C6A115",
")  c #CAA113",
"_  c #C3A01A",
"`  c #D7AE14",
"'  c #D7AC1D",
"]  c #DFB61D",
"[  c #DDB81A",
"{  c #E3A103",
"}  c #EDA202",
"|  c #F6A104",
" . c #F9A104",
".. c #FEAE06",
"X. c #F7A108",
"o. c #FAA108",
"O. c #FEAC09",
"+. c #F6AC07",
"@. c #FCB004",
"#. c #F6B30A",
"$. c #EDAE1A",
"%. c #F7AE19",
"&. c #F3AB13",
"*. c #E3B716",
"=. c #E3B916",
"-. c #E2B61B",
";. c #E8B518",
":. c #E6B918",
">. c #ECB414",
",. c #F2B211",
"<. c #FAB710",
"1. c #F3B11A",
"2. c #F8B01F",
"3. c #F9BA13",
"4. c #C2A122",
"5. c #DFB522",
"6. c #DFB52B",
"7. c #DDB926",
"8. c #C8AA38",
"9. c #C3A339",
"0. c #DEB430",
"q. c #E2B423",
"w. c #F1B425",
"e. c #F4B62A",
"r. c #EFB93E",
"t. c #F3B632",
"y. c #F0BB39",
"u. c #F1B934",
"i. c #F5CB1E",
"p. c #EECD2C",
"a. c #F6CA23",
"s. c #F8C924",
"d. c #F4CA2E",
"f. c #F9C62B",
"g. c #F2CA33",
"h. c #F3CB39",
"j. c #FAD039",
"k. c #96844A",
"l. c #8F8455",
"z. c #A5994F",
"x. c #B5A475",
"c. c #C99C43",
"v. c #CBA348",
"b. c #DCB44D",
"n. c #CFAC5B",
"m. c #CEA954",
"M. c #D2AC51",
"N. c #D3AD5C",
"B. c #DFB858",
"V. c #EBBD43",
"C. c #F5B946",
"Z. c #D3AE63",
"A. c #D4B263",
"S. c #D6B46B",
"D. c #D5B772",
"F. c #D8B775",
"G. c #D7B975",
"H. c #DBBB77",
"J. c #DDBC79",
"K. c #E0B960",
"L. c #EFCC41",
"P. c #EFC04B",
"I. c #F2D040",
"U. c #FAD34A",
"Y. c #F6D44D",
"T. c #EFCE51",
"R. c #F2C05A",
"E. c #EBD353",
"W. c #FAD655",
"Q. c #F6D869",
"!. c #E7C679",
"~. c #E4C673",
"^. c #FEDE71",
"/. c #F1DE7F",
"(. c #FCE07A",
"). c #818689",
"_. c #D6BF88",
"`. c #DEC488",
"'. c #DDC783",
"]. c #E7CA8C",
"[. c #F0DE91",
"{. c #FBE388",
"}. c #F3E19B",
"|. c #FCF2C4",
/* pixels */
"                                                                                                    ",
"                                                                E.                                  ",
"                                                              L.i.h.                                ",
"                                                            [.a.i.a.h.                              ",
"                                                              l s.a.a.h.                            ",
"                                                            0 * a a.a.a.g.                          ",
"                                                          z.& & 2 j s.a.a.g.                        ",
"                                                        g.a.h q w 1 a f.s.a.p.                      ",
"                                                      Q.Y.d.a.x > * & s a.a.s.g.                    ",
"                                                      p.^.f.a.s.e & & - f a.s.a.6.                  ",
"                                                    }.Y./.s.a.a.s.r : w w e i.q.q.7.                ",
"                                                    Q.Q.{.d.a.a.a.a.d w 0 = e ] q.-.6.              ",
"                                                    T.Q.{.j.s.a.a.i.s.k $ & $ 8 [ q.q.q.            ",
"                                                    E.W.h.U.a.a.a.s.a.i.z $ - w 9 -.-.-.0.          ",
"                                                    {.h.a.a.a.a.a.a.a.=.;.j 2 w - 7 7.-.] 5.        ",
"                                                    |.a.a.s.a.a.a.a.=.-.=.*.s ; * - 6 q.] 5.6.      ",
"                                                    P.<.a.a.a.a.a.:.*.*.*.*.*.g & & : 9 5.q.q.'     ",
"                                                  C...@.<.a.a.a.:.*.*.*.*.*.[ =.g : w 3 5 ( P P     ",
"                                                V.@.O.@...3.a.:.*.*.*.*.*.*.*.*.*.p w % # l.P       ",
"                                              y.O.X.| ..O...>.=.*.*.*.*.*.*.*.*.-.` 4 # ).          ",
"                                            y.O.| ! O.O...} { -.*.*.=.*.=.=.` ) ( ( 4.              ",
"                                          u.O. .! ....O. .} R b L ) ) ) ( ( ) ) L 9.                ",
"                                        y.O.|  ...@.O.^ Q R n b b ) ) ( ( ( ( 8.                    ",
"                                      u...X. ...@.O.^ Q R S c n b n.                                ",
"                                    e...| ! O...O.^ | R T y c n m.                                  ",
"                                  e...! ! ....O.^ Q R S v c n m.                                    ",
"                                e...! Q ....O.^ Q R T Z c n n.                                      ",
"                              w...| Q ..@.O.^ X.E S Z m n M.                                        ",
"                            w.O.| ! ....O.^ Q R T Z b n n.                                          ",
"                          w...|  .....O.^ ~ E T T v n N.                                            ",
"                        w.O.X. .....O.^ ~ E T V n n Z.                                              ",
"                      w...|  .O.@.O.! Q R T Y B n Z.                                                ",
"                    2.O.^  .....O.^ Q R T V C b N.                                                  ",
"                  w...| Q O...O.^ Q R T Y C n F.                                                    ",
"                1.O. . ...@...^ Q R T Y A b A.                                                      ",
"              ,...!  .O...O.^ Q E S V A n S.                                                        ",
"            %... . .....O.^ | R T Y G n H.                                                          ",
"            1.........O.^ Q E S T G b F.                                                            ",
"        R.k.X &...@...^ Q R S T G v H.                                                              ",
"      b.#.,.@ o $...Q E E T Y A n H.                                                                ",
"    A.F } @.,.O + { R R F T B b J.                                                                  ",
"    !.F F @.@.,.@ ; / { R n n J.                                                                    ",
"      ~.F / @.+.U @ O H b M J.                                                                      ",
"        B.F D W W I . @ m '.                                                                        ",
"          M.J M b M u x.                                                                            ",
"            v.M m J m ].                                                                            ",
"              c.m m `.                                                                              ",
"                Z.`.                                                                                ",
"                                                                                                    ",
"                                                                                                    "
};
