/* XPM */
static char *_0c82a3de08e446fdd75b7b38588e5ffrJavocbq0WZgAboh[] = {
/* columns rows colors chars-per-pixel */
"64 64 29 1 ",
"  c #0B0801",
". c #110D01",
"X c #161101",
"o c #1B1502",
"O c #1E1802",
"+ c #251D02",
"@ c #291E00",
"# c #2C2203",
"$ c #322603",
"% c #352904",
"& c #3B2E05",
"* c #3D3006",
"= c #402F00",
"- c #433406",
"; c #483606",
": c #473806",
"> c #4C3B06",
", c #513E06",
"< c #554205",
"1 c #5A4505",
"2 c #5E4905",
"3 c #634C05",
"4 c #684F06",
"5 c #675006",
"6 c #6B5306",
"7 c #705606",
"8 c #755A07",
"9 c #7A5E07",
"0 c #7E6107",
/* pixels */
">>>>#&%$*&%#%#%%$###%$%###$;;;;#>:>;#%###%$##$#$$#*&%%&%**=$;;;+",
"<343#o+++++OOOo+OOOOoooOOO#1544#<343#++++#+$#+++######$$%%*&797&",
"2263##@@o++++++++#+##+#+#++2262#2263+$%%$*$%%%%%*%%%&%****-&305&",
"2162#%$%%$$$$$$$$$&%%%%%&$&2172#3<63#$%%%%%*%&%%$%$%$%%$%%%*106&",
"217<@1<,>>>>>,<1221<1<151<2217<+118<+<<12252552111<<3555676&20<&",
"3191@2334433336777452422222219<+319<+4512225552111356687099&202&",
"1<82+,1112<11<536421<21,2,21<82+1<82+5211<<111,;<:<<1<81666%<94&",
"1281+:::--:*>-,>:,:<24;;<,22281#1281+<1>::<<:,,><::<:-2:1,<$392&",
"136<+*-**&>--%-*******&&*-&135<#1341+*:&&*--*;*&*&%%*%:%;*;%641&",
"<271#-**%#%#%###+##%&$##$%+128<#1271#&-%#%**%&$%%%$$%%&$:%-;471&",
"<27<#%$$#@$##$++####+#+####<<7<#1171#+#++#*&#&&&$%%%#$$$%#%>171&",
"<<7>#11<>>>>>,<122<<<<252<2<16,#<<6,#<<12232552111<<3525676>16>&",
"226<#1225423437777452522322126<#117<#4523225352<12355687099;36<&",
"2<3,#<1112111<335521<21,1<1212,#212,#52<<<11<1>:,;<12171656>12>&",
"234,#-:;----;*,,>>:<23>;,,2125,#124<#,1,;;1<:<<:<,:,;-2:1><>44>&",
"<43<#*--**:*-%-*****-*%**-*163,#162<+*;***:-*:***%&%&%:%>*:>83,&",
"<4<2@-&&&#&#&+#####%%###%%#<4<1#15<1#%-%#$-&%%$$$$#$%%*%**-:8,<*",
"16<<X%$$####$#+##+###+####+<4<,X15<<X##+@#&%$%%%%%%%$$$#%#$>9;,&",
"242,X<1,;>>>;,<1221<11232<2242<X152<X<<<3233552111<15525676:8<>&",
"<6<,@2335423437777432322522<61,#16<<+5523234552<22256686999>9>::",
"163;#<<212111,55441113<,2,2163-#163:#22<<12111,:,;<<1171766>93%&",
"162,#;;;-*:*>->>,,:,23>;<,2<62,#<62,+<1<;;<<:<,,<<:<:*3-<><$92;$",
"242,#&--**:*;%-*****-**&***242,#252<#&:***--*;*&%&%%*&*%:*>%61>$",
"<52>#-*&&#&#%###+#$#&####%#<42>#142:#&-$#$-%%%$$%$$$&$*$-&*%91;#",
"142<#%$%@@#@$#+###+###++###152<#152<#+#++#-%#%%%%%%%$#$$%#$%72<#",
"<63<#1<,,>>,;,<122<<1<251<2<55<#<55<#<<12233663111<<3434676%74>#",
"<341X1334433557777452521522<251X<331X6422223332<22346687099#631#",
"2142X<<133,<1,555511121,1<12152X2152X3211<2111,>>>,<2<61666*252@",
"216<X::;=--*;->>>>;,25;;<>12<6<X216<X,1,;>1,:<,><,>>>-3:<><&18,#",
"3<51X*---&;--%-*******%**-*5<41X3<41X*:&*&:-*;*&&&%%&%:$;->&<6< ",
"1<43X-&%%$&#%#####$$*###%%#1<52X1152X&-%$$-&%%$$%%$%%$&$:%-%<63&",
"1155+%$$@@@#$#+##+###+####+1154+1<55++#+@#&%%%%%%%%$$$$$%$%&167&",
"1,46O12,>;>,;,<1221<11232111<56O1<46O,,22233652121<15525676*<67*",
",136o1324432556768432331323<<36X,136X6412233451121256687088&<58*",
",146X,,222111<554511121,1<1,165X,<66X531<<1111>;<:<<1<71756*177*",
"1343o;;----*>*>><>><23>;<,21233o1333o,1>>:<,-<><<<-<>-2-<<<*353*",
"1562#*--**:*-%******:*&&**&<543#1543@*;&**;-*:***%&%&&:%:->&782*",
"3432#-*&&$&#&###+##$%###%%+3433#3433#&-$%%**%&$%&#$$%#*$:%*&833&",
"4831O%$%####$#+#$+###++####482<+3831++#++#*%$%%$$&%$$$$$%#$&041&",
"6961o11,>>;;>,<122<<11232<17942o6941o<,122335521<1<<2525477&072&",
"9961X13344255367685524223229842X9842X6413223441122235787999&063&",
"9941X<1122<11<555521<2<,1<10951X0861X421<<21<1,;,><12<7<766#061&",
"894,O-;;---*-*>,:>:<22,;,,2996<o896<o,1,>:<,:<,><,;<;-3:<,<%08<@",
"986,X*--**;*-&******:*%**-*884<X986,X*:%**:-*;**&&%%*%:%;*;%77>#",
"987,.-**&#&#&+##+##%&$#%$%+086,.086,.%-%$$-&%&#%$%$$%$&$:%*%77>#",
"946<.%$$#####$##$+##++#+###9461.9561.+$++#*&#%%%$$$$$$$$%$$%29<#",
"077<X1<,;>;,;,<2221<11132120661X0771X<,122524521<2<13534676%392@",
"8443o13356233367765523213138361O8361O6322225442122256686999%272#",
"947<+,1222111<33332112<>1<18661+9471+33<<111<2,><><<2171767$292O",
"977<+;;;---*;-,,,,;123>:<<29761+9761+,1,:;<,:,,><>>>;-2-<,<$79<O",
"9732+&--**-*:%-***&&;*%****9631+9731+*>%**:-*;*&*&&%&%;$:*:$645o",
"93<1+=&&%$*#%+##+#$%%$##%&#8311+8311+%-$#$-&%&$%$$$$%%&$;&*#<<2O",
"72<<@%$$@@$@#%++#@@@@@+####71<<+71<<+@#+##*%#%%%$%%%$#%$%#$#,,<O",
"72>,+303030302039303030292072:<+72><+2039303020302020393030@<*<X",
"8<;>+939303030392930393030281;>+8<;>@0202039202029203939393@:%:+",
"7<;,@+@@@@+@++++@@@+@@++++#7<;,+7<:,@@@@@@@@+######+@@+@@@+@-%:+",
"61;>+%%%$%%$%$%%%%%%%%%%$%$6<:>+6<->+$%%%%%%%%%%$$$$%%%%%%%@;$>o",
"6>;,#<1,>>>>>,,1221<1<232116>:<+6,;<#<<<22526621211<2525476%&%<@",
"1;*2#23334333477685223223222;&1#2-&2#6422223552<22256687999$##3#",
"1;&>@,<132,12,445521<31,1<11;&,+<:&>@33<<<2<<2>><:<<2172766$$#<+",
"<;*;+;;;--:&>=>>>>><23,;<>2<:&:+<:*:+,1,;;1<:<,,<>:,;-2;1<<#$%>@",
">&%&o*--**;--%--&***;*%%*-&>*%&O,*%%o&;%**:-*:**&&%&&%:$-*;+#$&X",
":*##o-&*%#&+&++#+##$%$##$$#:&$$O-&$$o&:$$$-*%%$$%%$$%%*%-%*+##$X",
"-*#%o%$$$+$##$+######+@####-*#$X:*#$o##++#&&#%%%$%%#$$$#%$$+##%X"
};
