/* XPM */
static char *b1844a2daa824cc4a0e4e3834eccf71bAF9P7Hamc9vo8pMG[] = {
/* columns rows colors chars-per-pixel */
"64 64 29 1 ",
"  c #0B0801",
". c #120E01",
"X c #161101",
"o c #1B1502",
"O c #1F1802",
"+ c #261D02",
"@ c #281F02",
"# c #2C2203",
"$ c #322603",
"% c #352904",
"& c #3B2E04",
"* c #3E3005",
"= c #402F00",
"- c #433405",
"; c #483705",
": c #473806",
"> c #4C3A05",
", c #513E05",
"< c #554205",
"1 c #5A4505",
"2 c #5E4905",
"3 c #634C05",
"4 c #684F06",
"5 c #675006",
"6 c #6C5306",
"7 c #715706",
"8 c #755A06",
"9 c #7A5E07",
"0 c #7E6107",
/* pixels */
">>;;#&%%*&%$$#$$####$$$##+%@#%%%#%%%%%##%%%####%##**%%%%**-#:::+",
"<363#O+O++O+OO+++++ooooO++++##+#+#++#++++#+###+#+####%%#*%**784-",
"2263#+#+o+++++o++#++#+#+###++++#######%%#*%%%%%%%%%%%%******404-",
"3162#&&%%%#%#&###%#%#%##%#%$*%%#%%%%%%%%%%%%#%%#%%%%********,04%",
"117<+-*-::---:%%$&$%%%%#%#*#-%****:***%*$%#%#%%&**%%****&&-&20,-",
"3191+&$$$$**&&%&%%$&-*%%:--%*******%##+%#%%%%%%#%%*%%%**-->-491*",
"1<82+531<12325163323332262255665888655<2,12435521,1<122<,,2&,92-",
"1281+<1<<<<1<1>>>;>>>-;,,,11225555755212<<<<<<,,<<122551,,,%482&",
"1351#8662111111<;--&&---&*------::*****::>>:*---->>111<1433$44,=",
"127<#<<<<<<<>><<<<;<><,,>>;-;-&-*:**--::>>>,::&&-;><<1,<,,3;481&",
"1<71#655337766333533213256678879664464211224644322577777744>171&",
"<<6>#1<<>>>,,>,<121<1133222131,<>,,:,1,2324464311<<33534676>,7>&",
"2251#3323656888874332211;;-,>,;>>,,122244434364466566674489>44,-",
"213,#653556688666676664665680900000009800999778877677774479;13;&",
"133,#666663633689789900990900000997689998787676465478767898>43>&",
"153<#566356666668766465774532337668866777776887900088099888;83,&",
"<4<1@766353355575677878009900990000899900900009990899090000;8><*",
"251,X998976888899090000990908987899999880086888800000899890>9>>*",
"132,X099966788870909098098876757876866668898868090988777890;7<>*",
"161,#778533333313222323536756779886663323678808889887899000;9,;;",
"163-#233563565687754333343376536888880876868885335667798000>03%&",
"153,#>,------&&&&&-->,>>>>>,1112<<<<12655676666533345676778%92;$",
"232,#536787666667966678796874655667890099980088886788900897%71>#",
"153>#756633333233333537988900000998663333463669890900090088$82-#",
"133<#4666689776635543<>,,,>123333331<<211113666868888798979$73<#",
"<43<#000000009875778788744553666666778098787888000009890009$75>+",
"<332X666766688980000909900009879998800988990009909000989800#631#",
"2133X676799099888788989900090009990098099900888009989900089&252#",
"2161X363332233365348997799888090008990899978768876876680800&18,#",
"3<51X766889899890000009099090997889000000997087873433377888&<6< ",
"1<33X687779999900009976785578676886667879999888996333355757&153&",
"1155+<23643666433333553312343334666865633636546333333435367&<67&",
"1,56o857766545344534476767499988899009909999990000099877780&,67&",
"<136o898996700078866787644346777666000009988886678898999787&158&",
",165X<<<<<2<<<12<11,,,,111,44433335666685335324469999900000&178&",
"1253o668999799978877668899978777889000999099999980099909999&363&",
"<553#678989978709997988898990000900899989099899853355546680&683&",
"3533#900699889009999778890099987653333323123331,2,233336557&833&",
"5831+000966877766348887777889989998088666678790988798890099&031&",
"7851o688900009970009990900090988668688009897999887764880990&072&",
"9852.311225665467666587987676634355675686898998989000090777&063&",
"9851X764579900009990900090087676768977788989997887745558687#061&",
"996<o889999099000990090009800009999008897755533231,<<<21356%08,#",
"985<X477976777678890090998899000909998880099999999988000008%78>@",
"086,.099989766887544766667784478009000875675533553221555679$77>#",
"946<.878876666341<<>,,2<1,,,,333233555658879677788977999000%38<@",
"0662X<233364235656584333331374446655554333<<133545533323668%382#",
"8562o2314411,1,42356555663366644777565555445554335655553366$283@",
"9461+,1<<221<212,,,,>::>>:>>;,,,>>,,1111143131<112133313113%291+",
"9761+;:--&--::----:--:::--::-;;-:-:-,,,>::>:,>,,<:>,,,,,,,,%79<o",
"9552+-=&:::::-::;,>,,,,,,,,1,,,,,,-:--;;:>---:-::::,,,,,1,,%464o",
"8311@&&--&-----:;;>;-::>:,,,,;;=::----==--*--:,,111,,,,>:,,+1,1+",
"72<<+@@++++++++++++++#+##+@@@@@@+++++++++++++++@#+++++++++@@>>,+",
"73><+303030393030303020202020202030303030393930393030303030@,-,X",
"8<;>+939393030303020202030203020303030303039302039303030303+-&>+",
"7<;>+++@+@+++++++++#++++++@@+@@@++++++++++++++#+++++++++++++-%:+",
"7,:>+%%%$$$$%$%$%%%%%%%%%%%%%%%%$$$$%&$$%%%%%%%%%%$%%%%%%$$#;$>o",
"4>:,@1,,>>>,>,,322111<24211122>,>>,;,,,22225552111<<3424477$&$1@",
"3-*1@244433334777744142222264424774666422225552111354687099$##3@",
"1-*,@,,133,,1,444411121:2,1221124444333<<11111>>,,,12<7<746$$#<+",
",:--O:::---*;=,,:::<22::<,2,1,1122,,1,1>::1,:,,>,>>,:-3:1,<@$&>+",
">-$&o---**:*;$-&****:****:*:-:-:>>-&-*:&**:-*:***&%%&%-%:*:+#$&X",
":*$#o-**%%&#%#@####%%%###%#*#%#%%*%%-&:$$$-*%%$$%%%%%%&%-%-+##$X",
"--##o%$##+$@#$@@#++##+++##+*+%#%###@@@#+++*%$&%%$%$$$#$$%$$+##%."
};
